{
.appVersion = "3151";
.formatVersion = 3;
customParameters = (
{
name = blueScale;
value = 0.04815;
}
);
date = "2023-05-13 22:00:00 +0000";
familyName = "ET Book";
featurePrefixes = (
{
automatic = 1;
code = "languagesystem DFLT dflt;

languagesystem latn dflt;
";
name = Languagesystems;
}
);
features = (
{
automatic = 1;
code = "feature sups;
feature frac;
feature ordn;
";
tag = aalt;
},
{
automatic = 1;
code = "lookup ccmp_latn_1 {
	sub fi by f i;
	sub fl by f l;
} ccmp_latn_1;

script latn;
lookup ccmp_latn_1;
";
tag = ccmp;
},
{
automatic = 1;
code = "sub one by onesuperior;
sub two by twosuperior;
sub three by threesuperior;
";
tag = sups;
},
{
automatic = 1;
code = "sub one slash four by onequarter;
sub one slash two by onehalf;
sub three slash four by threequarters;
";
tag = frac;
},
{
automatic = 1;
code = "sub [zero one two three four five six seven eight nine] [A a]' by ordfeminine;
sub [zero one two three four five six seven eight nine] [O o]' by ordmasculine;
";
tag = ordn;
},
{
automatic = 1;
code = "lookupflag IgnoreMarks;
sub f f i by f_f_i;
sub f f l by f_f_l;
sub f f by f_f;
sub f i by fi;
sub f l by fl;
";
tag = liga;
}
);
fontMaster = (
{
customParameters = (
{
name = underlinePosition;
value = -111;
},
{
name = "Alignment Zones";
value = (
{
pos = "-1";
size = "-21";
},
{
pos = 427;
size = 3;
},
{
pos = 644;
size = 20;
},
{
pos = 753;
size = 5;
},
{
pos = "-272";
size = "-3";
}
);
}
);
id = m01;
metricValues = (
{
over = 15;
pos = 800;
},
{
over = 15;
pos = 650;
},
{
over = 15;
pos = 415;
},
{
over = -15;
},
{
over = -15;
pos = -200;
},
{
pos = 11;
}
);
name = "Display Italic";
}
);
glyphs = (
{
glyphname = A;
lastChange = "2023-05-15 06:06:58 +0000";
layers = (
{
hints = (
{
horizontal = 1;
place = (-2, 25);
place = (-2, 25);
type = Stem;
},
{
horizontal = 1;
place = (279, 45);
place = (279, 45);
type = Stem;
},
{
place = (494, 90);
place = (494, 90);
type = Stem;
}
);
layerId = m01;
shapes = (
{
closed = 1;
nodes = (
(29,0,o),
(149,0,o),
(205,-2,c),
(218,-2,o),
(221,25,o),
(208,25,c),
(200,25,o),
(192,24,o),
(182,25,c),
(158,26,o),
(125,30,o),
(125,64,c),
(125,75,o),
(132,90,o),
(144,106,c),
(269,272,l),
(274,277,o),
(278,279,o),
(283,279,c),
(480,279,l),
(486,279,o),
(494,271,o),
(494,268,c),
(495,105,l),
(495,41,o),
(471,23,o),
(383,23,c),
(369,23,o),
(370,-2,o),
(380,-2,c),
(448,0,o),
(586,1,o),
(662,-2,c),
(673,-3,o),
(675,0,o),
(676,9,c),
(678,18,o),
(673,25,o),
(666,26,c),
(664,26,o),
(661,26,o),
(659,26,c),
(650,26,o),
(641,25,o),
(631,26,c),
(608,29,o),
(584,37,o),
(584,80,c),
(578,648,l),
(578,657,o),
(577,662,o),
(566,665,c),
(555,667,o),
(539,668,o),
(526,664,c),
(521,663,o),
(516,660,o),
(515,657,c),
(99,116,l),
(46,47,o),
(24,33,o),
(-28,23,c),
(-46,23,o),
(-46,-2,o),
(-35,-2,c)
);
},
{
closed = 1;
nodes = (
(320,324,o),
(316,333,o),
(321,339,c),
(479,554,l),
(485,562,o),
(496,565,o),
(496,546,c),
(496,498,o),
(496,393,o),
(496,339,c),
(496,333,o),
(490,325,o),
(477,325,c),
(335,324,l)
);
}
);
width = 693;
}
);
unicode = 65;
},
{
glyphname = Aacute;
lastChange = "2023-05-15 06:06:58 +0000";
layers = (
{
hints = (
{
horizontal = 1;
place = (-2, 25);
place = (-2, 25);
type = Stem;
},
{
horizontal = 1;
place = (279, 45);
place = (279, 45);
type = Stem;
},
{
place = (494, 90);
place = (494, 90);
type = Stem;
}
);
layerId = m01;
shapes = (
{
closed = 1;
nodes = (
(29,0,o),
(149,0,o),
(205,-2,c),
(218,-2,o),
(221,25,o),
(208,25,c),
(200,25,o),
(192,24,o),
(182,25,c),
(158,26,o),
(125,30,o),
(125,64,c),
(125,75,o),
(132,90,o),
(144,106,c),
(269,272,l),
(274,277,o),
(278,279,o),
(283,279,c),
(480,279,l),
(486,279,o),
(494,271,o),
(494,268,c),
(495,105,l),
(495,41,o),
(471,23,o),
(383,23,c),
(369,23,o),
(370,-2,o),
(380,-2,c),
(448,0,o),
(586,2,o),
(662,-2,c),
(672,-2,o),
(675,0,o),
(676,9,c),
(678,18,o),
(673,25,o),
(666,26,c),
(664,26,o),
(661,26,o),
(659,26,c),
(650,26,o),
(640,25,o),
(631,26,c),
(608,29,o),
(584,37,o),
(584,80,c),
(578,648,l),
(578,657,o),
(577,662,o),
(566,664,c),
(555,667,o),
(539,668,o),
(526,664,c),
(521,663,o),
(516,660,o),
(515,657,c),
(99,116,l),
(46,47,o),
(24,33,o),
(-28,23,c),
(-46,23,o),
(-46,-2,o),
(-35,-2,c)
);
},
{
closed = 1;
nodes = (
(320,324,o),
(316,333,o),
(321,339,c),
(479,554,l),
(484,561,o),
(496,565,o),
(496,546,c),
(496,498,o),
(496,393,o),
(496,339,c),
(496,333,o),
(490,325,o),
(477,325,c),
(335,324,l)
);
},
{
closed = 1;
nodes = (
(580,753,o),
(643,822,o),
(672,863,c),
(680,874,o),
(669,878,o),
(661,877,c),
(644,879,o),
(614,878,o),
(596,877,c),
(586,877,o),
(580,875,o),
(577,867,c),
(573,842,o),
(546,757,o),
(535,722,c),
(532,713,o),
(544,712,o),
(550,718,c)
);
}
);
width = 693;
}
);
unicode = 193;
},
{
glyphname = Acircumflex;
lastChange = "2023-05-15 06:06:58 +0000";
layers = (
{
hints = (
{
horizontal = 1;
place = (-2, 25);
place = (-2, 25);
type = Stem;
},
{
horizontal = 1;
place = (279, 45);
place = (279, 45);
type = Stem;
},
{
horizontal = 1;
place = (860, -20);
target = down;
type = TopGhost;
},
{
place = (494, 88);
place = (494, 88);
type = Stem;
}
);
layerId = m01;
shapes = (
{
closed = 1;
nodes = (
(29,0,o),
(149,0,o),
(205,-2,c),
(218,-2,o),
(221,25,o),
(208,25,c),
(200,25,o),
(192,24,o),
(182,25,c),
(158,26,o),
(125,30,o),
(125,64,c),
(125,75,o),
(132,90,o),
(144,106,c),
(269,272,l),
(274,277,o),
(278,279,o),
(283,279,c),
(480,279,l),
(486,279,o),
(494,271,o),
(494,268,c),
(495,105,l),
(495,41,o),
(471,23,o),
(383,23,c),
(369,23,o),
(370,-2,o),
(380,-2,c),
(448,0,o),
(586,2,o),
(662,-2,c),
(672,-2,o),
(675,0,o),
(676,9,c),
(678,18,o),
(673,25,o),
(666,26,c),
(664,26,o),
(661,26,o),
(659,26,c),
(650,26,o),
(640,25,o),
(631,26,c),
(608,29,o),
(584,37,o),
(584,80,c),
(578,648,l),
(578,657,o),
(577,662,o),
(566,664,c),
(555,667,o),
(539,668,o),
(526,664,c),
(521,663,o),
(516,660,o),
(515,657,c),
(99,116,l),
(46,47,o),
(24,33,o),
(-28,23,c),
(-46,23,o),
(-46,-2,o),
(-35,-2,c)
);
},
{
closed = 1;
nodes = (
(320,324,o),
(316,333,o),
(321,339,c),
(479,554,l),
(484,561,o),
(496,565,o),
(496,546,c),
(496,498,o),
(496,393,o),
(496,339,c),
(496,333,o),
(490,325,o),
(477,325,c),
(335,324,l)
);
},
{
closed = 1;
nodes = (
(426,697,l),
(575,793,l),
(580,796,o),
(585,796,o),
(588,792,c),
(667,697,l),
(673,697,l),
(679,697,o),
(679,701,o),
(678,707,c),
(644,844,l),
(641,856,o),
(636,858,o),
(626,859,c),
(615,859,o),
(593,861,o),
(582,860,c),
(574,860,o),
(566,858,o),
(560,851,c),
(414,704,l),
(411,701,o),
(410,698,o),
(414,697,c)
);
}
);
width = 693;
}
);
unicode = 194;
},
{
glyphname = Adieresis;
lastChange = "2023-05-15 06:06:58 +0000";
layers = (
{
hints = (
{
place = (603, 104);
place = (603, 104);
type = Stem;
},
{
horizontal = 1;
place = (702, 107);
place = (702, 107);
type = Stem;
},
{
place = (539, 64);
place = (539, 64);
type = Stem;
},
{
place = (436, 103);
place = (436, 103);
type = Stem;
},
{
horizontal = 1;
place = (-2, 25);
place = (-2, 25);
type = Stem;
},
{
horizontal = 1;
place = (279, 45);
place = (279, 45);
type = Stem;
},
{
horizontal = 1;
place = (808, -20);
target = down;
type = TopGhost;
},
{
place = (494, 90);
place = (494, 90);
type = Stem;
}
);
layerId = m01;
shapes = (
{
closed = 1;
nodes = (
(29,0,o),
(149,0,o),
(205,-2,c),
(218,-2,o),
(221,25,o),
(208,25,c),
(200,25,o),
(192,24,o),
(182,25,c),
(158,26,o),
(125,30,o),
(125,64,c),
(125,75,o),
(132,90,o),
(144,106,c),
(269,272,l),
(274,277,o),
(278,279,o),
(283,279,c),
(480,279,l),
(486,279,o),
(494,271,o),
(494,268,c),
(495,105,l),
(495,41,o),
(471,23,o),
(383,23,c),
(369,23,o),
(370,-2,o),
(380,-2,c),
(448,0,o),
(586,2,o),
(662,-2,c),
(672,-2,o),
(675,0,o),
(676,9,c),
(678,18,o),
(673,25,o),
(666,26,c),
(664,26,o),
(661,26,o),
(659,26,c),
(650,26,o),
(640,25,o),
(631,26,c),
(608,29,o),
(584,37,o),
(584,80,c),
(578,648,l),
(578,657,o),
(577,662,o),
(566,664,c),
(555,667,o),
(539,668,o),
(526,664,c),
(521,663,o),
(516,660,o),
(515,657,c),
(99,116,l),
(46,47,o),
(24,33,o),
(-28,23,c),
(-46,23,o),
(-46,-2,o),
(-35,-2,c)
);
},
{
closed = 1;
nodes = (
(320,324,o),
(316,333,o),
(321,339,c),
(479,554,l),
(484,561,o),
(496,565,o),
(496,546,c),
(496,498,o),
(496,393,o),
(496,339,c),
(496,333,o),
(490,325,o),
(477,325,c),
(335,324,l)
);
},
{
closed = 1;
nodes = (
(515,702,o),
(539,727,o),
(539,755,c),
(539,785,o),
(515,808,o),
(488,808,c),
(459,808,o),
(436,785,o),
(436,755,c),
(436,727,o),
(459,702,o),
(488,702,c)
);
},
{
closed = 1;
nodes = (
(684,702,o),
(707,727,o),
(707,756,c),
(707,786,o),
(684,809,o),
(655,809,c),
(627,809,o),
(603,786,o),
(603,756,c),
(603,727,o),
(627,702,o),
(655,702,c)
);
}
);
width = 693;
}
);
unicode = 196;
},
{
glyphname = Agrave;
lastChange = "2023-05-15 06:06:58 +0000";
layers = (
{
hints = (
{
horizontal = 1;
place = (-2, 25);
place = (-2, 25);
type = Stem;
},
{
horizontal = 1;
place = (279, 45);
place = (279, 45);
type = Stem;
},
{
horizontal = 1;
place = (876, -20);
target = down;
type = TopGhost;
},
{
place = (494, 87);
place = (494, 87);
type = Stem;
}
);
layerId = m01;
shapes = (
{
closed = 1;
nodes = (
(29,0,o),
(149,0,o),
(205,-2,c),
(218,-2,o),
(221,25,o),
(208,25,c),
(200,25,o),
(192,24,o),
(182,25,c),
(158,26,o),
(125,30,o),
(125,64,c),
(125,75,o),
(132,90,o),
(144,106,c),
(269,272,l),
(274,277,o),
(278,279,o),
(283,279,c),
(480,279,l),
(486,279,o),
(494,271,o),
(494,268,c),
(495,105,l),
(495,41,o),
(471,23,o),
(383,23,c),
(369,23,o),
(370,-2,o),
(380,-2,c),
(448,0,o),
(586,2,o),
(662,-2,c),
(672,-2,o),
(675,0,o),
(676,9,c),
(678,18,o),
(673,25,o),
(666,26,c),
(664,26,o),
(661,26,o),
(659,26,c),
(650,26,o),
(640,25,o),
(631,26,c),
(608,29,o),
(584,37,o),
(584,80,c),
(578,648,l),
(578,657,o),
(577,662,o),
(566,664,c),
(555,667,o),
(539,668,o),
(526,664,c),
(521,663,o),
(516,660,o),
(515,657,c),
(99,116,l),
(46,47,o),
(24,33,o),
(-28,23,c),
(-46,23,o),
(-46,-2,o),
(-35,-2,c)
);
},
{
closed = 1;
nodes = (
(320,324,o),
(316,333,o),
(321,339,c),
(479,554,l),
(484,561,o),
(496,565,o),
(496,546,c),
(496,498,o),
(496,393,o),
(496,339,c),
(496,333,o),
(490,325,o),
(477,325,c),
(335,324,l)
);
},
{
closed = 1;
nodes = (
(598,713,o),
(600,715,o),
(599,718,c),
(551,870,l),
(551,871,o),
(550,872,o),
(550,873,c),
(547,877,o),
(542,876,o),
(538,876,c),
(464,876,l),
(458,876,o),
(449,871,o),
(458,863,c),
(581,717,l),
(583,714,o),
(588,713,o),
(592,713,c)
);
}
);
width = 693;
}
);
unicode = 192;
},
{
glyphname = Aring;
lastChange = "2023-05-15 06:06:58 +0000";
layers = (
{
hints = (
{
place = (494, 90);
place = (494, 90);
type = Stem;
},
{
horizontal = 1;
place = (-2, 25);
place = (-2, 25);
type = Stem;
},
{
horizontal = 1;
place = (279, 45);
place = (279, 45);
type = Stem;
},
{
place = (626, 35);
place = (626, 35);
type = Stem;
},
{
horizontal = 1;
place = (852, 37);
place = (852, 37);
type = Stem;
},
{
horizontal = 1;
place = (694, 37);
place = (694, 37);
type = Stem;
},
{
place = (470, 37);
place = (470, 37);
type = Stem;
},
{
place = (507, 119);
place = (507, 119);
type = Stem;
}
);
layerId = m01;
shapes = (
{
closed = 1;
nodes = (
(29,0,o),
(149,0,o),
(205,-2,c),
(218,-2,o),
(221,25,o),
(208,25,c),
(200,25,o),
(192,24,o),
(182,25,c),
(158,26,o),
(125,30,o),
(125,64,c),
(125,75,o),
(132,90,o),
(144,106,c),
(269,272,l),
(274,277,o),
(278,279,o),
(283,279,c),
(480,279,l),
(486,279,o),
(494,271,o),
(494,268,c),
(495,105,l),
(495,41,o),
(471,23,o),
(383,23,c),
(369,23,o),
(370,-2,o),
(380,-2,c),
(448,0,o),
(586,2,o),
(662,-2,c),
(672,-2,o),
(675,0,o),
(676,9,c),
(678,18,o),
(673,25,o),
(666,26,c),
(664,26,o),
(661,26,o),
(659,26,c),
(650,26,o),
(640,25,o),
(631,26,c),
(608,29,o),
(584,37,o),
(584,80,c),
(578,648,l),
(578,657,o),
(577,662,o),
(566,664,c),
(555,667,o),
(539,668,o),
(526,664,c),
(521,663,o),
(516,660,o),
(515,657,c),
(99,116,l),
(46,47,o),
(24,33,o),
(-28,23,c),
(-46,23,o),
(-46,-2,o),
(-35,-2,c)
);
},
{
closed = 1;
nodes = (
(320,324,o),
(316,333,o),
(321,339,c),
(479,554,l),
(484,561,o),
(496,565,o),
(496,546,c),
(496,498,o),
(496,393,o),
(496,339,c),
(496,333,o),
(490,325,o),
(477,325,c),
(335,324,l)
);
},
{
closed = 1;
nodes = (
(619,694,o),
(661,737,o),
(661,791,c),
(661,845,o),
(619,889,o),
(566,889,c),
(514,889,o),
(470,845,o),
(470,791,c),
(470,737,o),
(514,694,o),
(566,694,c)
);
},
{
closed = 1;
nodes = (
(533,731,o),
(507,758,o),
(507,791,c),
(507,825,o),
(533,852,o),
(566,852,c),
(599,852,o),
(626,825,o),
(626,791,c),
(626,758,o),
(599,731,o),
(566,731,c)
);
}
);
width = 693;
}
);
unicode = 197;
},
{
glyphname = Atilde;
lastChange = "2023-05-15 06:06:58 +0000";
layers = (
{
hints = (
{
horizontal = 1;
place = (-2, 25);
place = (-2, 25);
type = Stem;
},
{
horizontal = 1;
place = (279, 45);
place = (279, 45);
type = Stem;
},
{
horizontal = 1;
place = (854, -20);
target = down;
type = TopGhost;
},
{
horizontal = 1;
place = (719, 66);
place = (719, 66);
type = Stem;
},
{
horizontal = 1;
place = (789, 66);
place = (789, 66);
type = Stem;
}
);
layerId = m01;
shapes = (
{
closed = 1;
nodes = (
(29,0,o),
(149,0,o),
(205,-2,c),
(218,-2,o),
(221,25,o),
(208,25,c),
(200,25,o),
(192,24,o),
(182,25,c),
(158,26,o),
(125,30,o),
(125,64,c),
(125,75,o),
(132,90,o),
(144,106,c),
(269,272,l),
(274,277,o),
(278,279,o),
(283,279,c),
(480,279,l),
(486,279,o),
(494,271,o),
(494,268,c),
(495,105,l),
(495,41,o),
(471,23,o),
(383,23,c),
(369,23,o),
(370,-2,o),
(380,-2,c),
(448,0,o),
(586,2,o),
(662,-2,c),
(672,-2,o),
(675,0,o),
(676,9,c),
(678,18,o),
(673,25,o),
(666,26,c),
(664,26,o),
(661,26,o),
(659,26,c),
(650,26,o),
(640,25,o),
(631,26,c),
(608,29,o),
(584,37,o),
(584,80,c),
(578,648,l),
(578,657,o),
(577,662,o),
(566,664,c),
(555,667,o),
(539,668,o),
(526,664,c),
(521,663,o),
(516,660,o),
(515,657,c),
(99,116,l),
(46,47,o),
(24,33,o),
(-28,23,c),
(-46,23,o),
(-46,-2,o),
(-35,-2,c)
);
},
{
closed = 1;
nodes = (
(320,324,o),
(316,333,o),
(321,339,c),
(479,554,l),
(484,561,o),
(496,565,o),
(496,546,c),
(496,498,o),
(496,393,o),
(496,339,c),
(496,333,o),
(490,325,o),
(477,325,c),
(335,324,l)
);
},
{
closed = 1;
nodes = (
(681,719,o),
(721,772,o),
(721,841,c),
(721,848,o),
(721,854,o),
(712,854,c),
(704,854,o),
(702,852,o),
(701,844,c),
(694,801,o),
(680,785,o),
(657,785,c),
(618,785,o),
(559,855,o),
(497,855,c),
(443,855,o),
(410,813,o),
(403,734,c),
(402,724,o),
(404,720,o),
(411,720,c),
(419,720,o),
(422,722,o),
(423,728,c),
(432,776,o),
(443,789,o),
(468,789,c),
(507,789,o),
(561,719,o),
(628,719,c)
);
}
);
width = 693;
}
);
unicode = 195;
},
{
glyphname = AE;
lastChange = "2023-05-15 06:06:58 +0000";
layers = (
{
hints = (
{
horizontal = 1;
place = (616, 30);
place = (616, 30);
type = Stem;
},
{
horizontal = 1;
place = (-2, 23);
place = (-2, 23);
type = Stem;
},
{
horizontal = 1;
place = (255, 30);
place = (255, 30);
type = Stem;
},
{
horizontal = 1;
place = (312, 30);
place = (312, 30);
type = Stem;
},
{
horizontal = 1;
place = (648, -20);
target = down;
type = TopGhost;
}
);
layerId = m01;
shapes = (
{
closed = 1;
nodes = (
(28,2,o),
(109,0,o),
(180,-2,c),
(192,-2,o),
(195,8,o),
(197,11,c),
(199,17,o),
(194,19,o),
(191,21,c),
(134,24,o),
(125,32,o),
(125,56,c),
(125,72,o),
(132,84,o),
(157,117,c),
(255,243,l),
(262,251,o),
(268,255,o),
(280,255,c),
(461,255,l),
(474,255,o),
(475,252,o),
(473,243,c),
(448,113,l),
(435,43,o),
(415,23,o),
(358,21,c),
(348,21,o),
(345,17,o),
(343,11,c),
(341,2,o),
(343,-2,o),
(353,-2,c),
(481,0,o),
(708,0,o),
(859,-2,c),
(871,-2,o),
(878,3,o),
(881,12,c),
(922,129,l),
(924,135,o),
(926,144,o),
(920,144,c),
(906,144,l),
(883,109,o),
(869,94,o),
(837,73,c),
(788,40,o),
(748,28,o),
(685,28,c),
(619,28,l),
(547,28,o),
(527,40,o),
(527,76,c),
(527,83,o),
(528,89,o),
(529,95,c),
(570,299,l),
(574,308,o),
(577,311,o),
(585,312,c),
(740,312,l),
(820,312,o),
(841,296,o),
(841,240,c),
(841,236,o),
(837,227,o),
(845,225,c),
(851,225,l),
(863,225,o),
(863,232,o),
(864,238,c),
(870,287,o),
(886,368,o),
(896,400,c),
(898,410,o),
(895,412,o),
(890,413,c),
(883,413,o),
(879,416,o),
(874,404,c),
(857,362,o),
(825,342,o),
(780,342,c),
(596,342,l),
(589,342,o),
(579,345,o),
(581,355,c),
(629,600,l),
(632,613,o),
(637,615,o),
(643,616,c),
(821,616,l),
(896,616,o),
(919,589,o),
(925,517,c),
(926,504,l),
(928,502,o),
(932,499,o),
(938,500,c),
(943,500,o),
(946,503,o),
(948,504,c),
(957,540,o),
(968,598,o),
(972,630,c),
(972,643,o),
(968,646,o),
(950,646,c),
(825,645,o),
(561,646,o),
(440,648,c),
(431,647,o),
(428,642,o),
(425,635,c),
(422,627,o),
(421,623,o),
(432,622,c),
(486,618,o),
(496,613,o),
(496,603,c),
(496,599,o),
(493,593,o),
(486,584,c),
(169,180,l),
(141,144,o),
(122,121,o),
(113,109,c),
(97,89,o),
(79,70,o),
(60,54,c),
(37,34,o),
(13,24,o),
(-17,21,c),
(-23,19,o),
(-24,16,o),
(-26,10,c),
(-26,6,o),
(-26,1,o),
(-22,-2,c)
);
},
{
closed = 1;
nodes = (
(300,285,o),
(291,288,o),
(301,301,c),
(536,605,l),
(543,611,o),
(544,606,o),
(544,599,c),
(485,301,l),
(480,288,o),
(475,285,o),
(469,285,c),
(303,285,l)
);
}
);
width = 965;
}
);
unicode = 198;
},
{
glyphname = B;
lastChange = "2023-05-15 06:06:58 +0000";
layers = (
{
hints = (
{
place = (542, 93);
place = (542, 93);
type = Stem;
},
{
horizontal = 1;
place = (621, 25);
place = (621, 25);
type = Stem;
},
{
horizontal = 1;
place = (-3, 32);
place = (-3, 32);
type = Stem;
},
{
horizontal = 1;
place = (351, 31);
place = (351, 31);
type = Stem;
},
{
place = (520, 97);
place = (520, 97);
type = Stem;
}
);
layerId = m01;
shapes = (
{
closed = 1;
nodes = (
(116,-2,o),
(240,-2,o),
(342,-3,c),
(513,-4,o),
(617,71,o),
(617,192,c),
(617,265,o),
(569,326,o),
(490,354,c),
(486,355,o),
(484,362,o),
(490,363,c),
(580,381,o),
(635,436,o),
(635,507,c),
(635,596,o),
(559,646,o),
(431,646,c),
(149,646,l),
(144,646,o),
(139,641,o),
(138,634,c),
(137,625,o),
(141,621,o),
(146,621,c),
(153,620,o),
(160,622,o),
(169,621,c),
(243,622,o),
(229,568,o),
(219,520,c),
(135,125,l),
(120,56,o),
(105,33,o),
(62,27,c),
(52,26,o),
(41,26,o),
(31,26,c),
(15,26,o),
(11,-3,o),
(29,-3,c)
);
},
{
closed = 1;
nodes = (
(238,29,o),
(223,49,o),
(223,101,c),
(223,110,o),
(225,123,o),
(228,139,c),
(271,342,l),
(271,347,o),
(281,351,o),
(285,351,c),
(338,351,l),
(452,351,o),
(520,294,o),
(520,204,c),
(520,143,o),
(493,90,o),
(449,59,c),
(415,36,o),
(384,29,o),
(323,29,c)
);
},
{
closed = 1;
nodes = (
(289,382,o),
(281,388,o),
(283,396,c),
(326,607,l),
(329,613,o),
(336,618,o),
(344,618,c),
(391,618,l),
(438,618,o),
(468,614,o),
(490,605,c),
(523,591,o),
(542,559,o),
(542,515,c),
(542,466,o),
(520,431,o),
(478,407,c),
(446,389,o),
(414,382,o),
(344,382,c),
(297,382,l)
);
}
);
width = 646;
}
);
unicode = 66;
},
{
glyphname = C;
lastChange = "2023-05-15 06:06:58 +0000";
layers = (
{
hints = (
{
horizontal = 1;
place = (-18, 33);
place = (-18, 33);
type = Stem;
},
{
horizontal = 1;
place = (630, 33);
place = (630, 33);
type = Stem;
},
{
place = (29, 97);
place = (29, 97);
type = Stem;
}
);
layerId = m01;
shapes = (
{
closed = 1;
nodes = (
(387,-18,o),
(426,-13,o),
(480,-2,c),
(525,7,o),
(529,7,o),
(541,7,c),
(555,7,o),
(558,6,o),
(571,2,c),
(578,-3,o),
(589,-3,o),
(590,2,c),
(600,39,o),
(625,116,o),
(642,159,c),
(647,171,o),
(624,176,o),
(619,167,c),
(550,68,o),
(462,15,o),
(353,15,c),
(209,15,o),
(126,115,o),
(126,271,c),
(126,473,o),
(292,630,o),
(494,630,c),
(612,630,o),
(667,582,o),
(667,489,c),
(667,478,o),
(667,477,o),
(665,464,c),
(663,454,o),
(683,444,o),
(688,460,c),
(701,503,o),
(718,555,o),
(727,590,c),
(731,607,o),
(726,615,o),
(719,619,c),
(650,649,o),
(577,663,o),
(501,663,c),
(237,663,o),
(29,494,o),
(29,277,c),
(29,92,o),
(174,-18,o),
(348,-18,c)
);
}
);
width = 712;
}
);
unicode = 67;
},
{
glyphname = Ccedilla;
lastChange = "2023-05-15 06:06:58 +0000";
layers = (
{
hints = (
{
place = (347, 51);
place = (347, 51);
type = Stem;
},
{
horizontal = 1;
place = (-18, 21);
target = up;
type = BottomGhost;
},
{
horizontal = 1;
place = (-207, 21);
place = (-207, 21);
type = Stem;
},
{
horizontal = 1;
place = (630, 33);
place = (630, 33);
type = Stem;
},
{
place = (29, 97);
place = (29, 97);
type = Stem;
},
{
horizontal = 1;
place = (-17, 32);
place = (-17, 32);
type = Stem;
}
);
layerId = m01;
shapes = (
{
closed = 1;
nodes = (
(345,-207,o),
(398,-169,o),
(398,-105,c),
(398,-69,o),
(377,-40,o),
(342,-35,c),
(350,-18,l),
(388,-18,o),
(427,-13,o),
(480,-2,c),
(525,7,o),
(529,7,o),
(541,7,c),
(555,7,o),
(558,6,o),
(571,2,c),
(578,-3,o),
(589,-3,o),
(590,2,c),
(600,39,o),
(625,116,o),
(642,159,c),
(647,171,o),
(624,176,o),
(619,167,c),
(550,68,o),
(462,15,o),
(353,15,c),
(209,15,o),
(126,115,o),
(126,271,c),
(126,473,o),
(292,630,o),
(494,630,c),
(612,630,o),
(667,582,o),
(667,489,c),
(667,478,o),
(667,477,o),
(665,464,c),
(663,454,o),
(683,444,o),
(688,460,c),
(701,503,o),
(718,555,o),
(727,590,c),
(731,607,o),
(726,615,o),
(719,618,c),
(650,649,o),
(577,663,o),
(501,663,c),
(237,663,o),
(29,494,o),
(29,277,c),
(29,98,o),
(164,-10,o),
(329,-17,c),
(299,-78,l),
(297,-84,o),
(298,-88,o),
(305,-89,c),
(335,-92,o),
(347,-105,o),
(347,-126,c),
(347,-164,o),
(315,-186,o),
(258,-186,c),
(252,-186,o),
(249,-186,o),
(237,-185,c),
(234,-186,o),
(230,-189,o),
(230,-194,c),
(227,-200,o),
(234,-204,o),
(238,-206,c),
(252,-207,o),
(254,-207,o),
(260,-207,c)
);
}
);
width = 712;
}
);
unicode = 199;
},
{
glyphname = D;
lastChange = "2023-05-15 06:06:58 +0000";
layers = (
{
hints = (
{
horizontal = 1;
place = (-3, 34);
place = (-3, 34);
type = Stem;
},
{
horizontal = 1;
place = (615, 31);
place = (615, 31);
type = Stem;
},
{
place = (679, 101);
place = (679, 101);
type = Stem;
}
);
layerId = m01;
shapes = (
{
closed = 1;
nodes = (
(126,-2,o),
(263,-3,o),
(362,-3,c),
(597,-4,o),
(780,155,o),
(780,358,c),
(780,532,o),
(638,646,o),
(424,646,c),
(127,646,l),
(111,646,o),
(104,617,o),
(120,617,c),
(198,616,o),
(230,619,o),
(211,531,c),
(125,125,l),
(108,47,o),
(98,34,o),
(50,32,c),
(38,31,o),
(28,30,o),
(17,29,c),
(-2,26,o),
(-5,-3,o),
(13,-3,c)
);
},
{
closed = 1;
nodes = (
(221,31,o),
(196,38,o),
(212,113,c),
(315,600,l),
(321,616,o),
(336,614,o),
(349,615,c),
(523,622,o),
(679,554,o),
(679,363,c),
(679,220,o),
(584,92,o),
(451,50,c),
(414,38,o),
(356,31,o),
(301,31,c)
);
}
);
width = 793;
}
);
unicode = 68;
},
{
glyphname = Eth;
lastChange = "2023-05-15 06:06:58 +0000";
layers = (
{
hints = (
{
horizontal = 1;
place = (-2, 29);
place = (-2, 29);
type = Stem;
},
{
horizontal = 1;
place = (294, 58);
place = (294, 58);
type = Stem;
},
{
horizontal = 1;
place = (617, 29);
place = (617, 29);
type = Stem;
},
{
place = (675, 96);
place = (675, 96);
type = Stem;
}
);
layerId = m01;
shapes = (
{
closed = 1;
nodes = (
(608,-4,o),
(771,156,o),
(771,358,c),
(771,532,o),
(646,644,o),
(445,646,c),
(332,647,o),
(245,650,o),
(149,646,c),
(143,646,o),
(141,644,o),
(139,640,c),
(136,629,l),
(136,625,o),
(141,623,o),
(145,623,c),
(165,623,l),
(205,623,o),
(227,606,o),
(227,577,c),
(227,568,o),
(225,555,o),
(221,533,c),
(187,364,l),
(182,354,o),
(180,354,o),
(174,352,c),
(93,352,l),
(84,352,o),
(71,354,o),
(67,342,c),
(68,335,o),
(63,316,o),
(61,310,c),
(59,298,o),
(68,291,o),
(78,294,c),
(151,294,l),
(168,294,o),
(169,284,o),
(169,274,c),
(140,125,l),
(123,36,o),
(109,26,o),
(47,26,c),
(44,26,l),
(39,26,o),
(36,24,o),
(34,19,c),
(31,6,l),
(30,0,o),
(37,-2,o),
(45,-2,c),
(388,-3,l)
);
},
{
closed = 1;
nodes = (
(243,27,o),
(219,41,o),
(219,85,c),
(219,95,o),
(220,103,o),
(222,111,c),
(254,274,l),
(256,286,o),
(269,294,o),
(281,294,c),
(405,294,l),
(412,294,o),
(417,296,o),
(422,309,c),
(427,335,l),
(430,349,o),
(425,353,o),
(417,352,c),
(403,354,o),
(326,353,o),
(288,352,c),
(273,352,o),
(272,363,o),
(274,374,c),
(318,595,l),
(321,605,o),
(330,617,o),
(344,617,c),
(374,617,l),
(538,617,o),
(675,553,o),
(675,363,c),
(675,156,o),
(522,27,o),
(328,27,c)
);
}
);
width = 773;
}
);
unicode = 208;
},
{
glyphname = E;
lastChange = "2023-05-15 06:06:58 +0000";
layers = (
{
hints = (
{
horizontal = 1;
place = (-2, 33);
place = (-2, 33);
type = Stem;
},
{
horizontal = 1;
place = (311, 34);
place = (311, 34);
type = Stem;
},
{
horizontal = 1;
place = (615, 31);
place = (615, 31);
type = Stem;
}
);
layerId = m01;
shapes = (
{
closed = 1;
nodes = (
(170,1,o),
(398,0,o),
(535,-2,c),
(563,-2,o),
(567,-1,o),
(575,7,c),
(582,16,o),
(606,106,o),
(620,140,c),
(621,148,o),
(606,151,o),
(599,141,c),
(571,104,o),
(559,95,o),
(527,72,c),
(488,44,o),
(447,31,o),
(379,31,c),
(309,31,l),
(257,31,o),
(196,29,o),
(211,97,c),
(254,297,l),
(256,308,o),
(265,311,o),
(277,311,c),
(414,311,l),
(498,311,o),
(521,296,o),
(521,244,c),
(521,209,o),
(543,222,o),
(544,228,c),
(552,274,o),
(570,365,o),
(581,409,c),
(586,420,o),
(562,420,o),
(560,413,c),
(535,360,o),
(510,345,o),
(450,345,c),
(286,345,l),
(273,345,o),
(264,348,o),
(266,358,c),
(317,601,l),
(320,614,o),
(330,615,o),
(342,615,c),
(510,615,l),
(592,615,o),
(624,588,o),
(624,521,c),
(624,509,o),
(617,498,o),
(634,497,c),
(641,497,o),
(645,499,o),
(644,503,c),
(650,527,o),
(663,585,o),
(670,623,c),
(673,643,o),
(665,646,o),
(648,646,c),
(137,646,l),
(129,646,o),
(120,642,o),
(118,633,c),
(117,626,o),
(119,620,o),
(127,619,c),
(153,619,l),
(195,619,o),
(219,605,o),
(219,575,c),
(219,567,o),
(218,555,o),
(213,532,c),
(125,113,l),
(112,50,o),
(98,33,o),
(50,29,c),
(42,28,o),
(28,30,o),
(17,29,c),
(10,29,o),
(4,22,o),
(2,13,c),
(1,6,o),
(6,-2,o),
(13,-2,c)
);
}
);
width = 662;
}
);
unicode = 69;
},
{
glyphname = Eacute;
lastChange = "2023-05-15 06:06:58 +0000";
layers = (
{
hints = (
{
horizontal = 1;
place = (-2, 33);
place = (-2, 33);
type = Stem;
},
{
horizontal = 1;
place = (311, 34);
place = (311, 34);
type = Stem;
},
{
horizontal = 1;
place = (615, 31);
place = (615, 31);
type = Stem;
}
);
layerId = m01;
shapes = (
{
closed = 1;
nodes = (
(170,1,o),
(398,0,o),
(535,-2,c),
(563,-2,o),
(567,-1,o),
(575,7,c),
(582,16,o),
(606,106,o),
(620,140,c),
(621,148,o),
(606,151,o),
(599,141,c),
(571,104,o),
(559,95,o),
(527,72,c),
(488,44,o),
(446,31,o),
(379,31,c),
(309,31,l),
(257,31,o),
(197,29,o),
(211,97,c),
(253,297,l),
(255,308,o),
(265,311,o),
(277,311,c),
(414,311,l),
(498,311,o),
(521,296,o),
(521,244,c),
(521,209,o),
(543,222,o),
(543,228,c),
(552,274,o),
(570,365,o),
(581,409,c),
(586,420,o),
(562,420,o),
(560,413,c),
(535,360,o),
(510,345,o),
(450,345,c),
(286,345,l),
(273,345,o),
(264,348,o),
(266,358,c),
(317,601,l),
(320,614,o),
(330,615,o),
(342,615,c),
(510,615,l),
(592,615,o),
(624,588,o),
(624,521,c),
(624,509,o),
(617,498,o),
(634,497,c),
(641,497,o),
(645,499,o),
(644,503,c),
(650,527,o),
(663,585,o),
(670,623,c),
(673,643,o),
(665,646,o),
(648,646,c),
(137,646,l),
(129,646,o),
(120,642,o),
(118,633,c),
(117,626,o),
(119,620,o),
(127,619,c),
(153,619,l),
(195,619,o),
(219,605,o),
(219,575,c),
(219,567,o),
(218,555,o),
(213,532,c),
(125,113,l),
(112,50,o),
(98,33,o),
(50,29,c),
(42,28,o),
(28,30,o),
(17,29,c),
(10,29,o),
(4,22,o),
(2,13,c),
(1,6,o),
(6,-2,o),
(12,-2,c)
);
},
{
closed = 1;
nodes = (
(471,753,o),
(534,822,o),
(563,863,c),
(571,874,o),
(560,878,o),
(552,877,c),
(535,879,o),
(505,878,o),
(487,877,c),
(477,877,o),
(471,875,o),
(468,867,c),
(464,842,o),
(437,757,o),
(426,722,c),
(423,713,o),
(435,712,o),
(441,718,c)
);
}
);
width = 662;
}
);
unicode = 201;
},
{
glyphname = Ecircumflex;
lastChange = "2023-05-15 06:06:58 +0000";
layers = (
{
hints = (
{
horizontal = 1;
place = (-2, 33);
place = (-2, 33);
type = Stem;
},
{
horizontal = 1;
place = (311, 34);
place = (311, 34);
type = Stem;
},
{
horizontal = 1;
place = (615, 31);
place = (615, 31);
type = Stem;
},
{
horizontal = 1;
place = (860, -20);
target = down;
type = TopGhost;
}
);
layerId = m01;
shapes = (
{
closed = 1;
nodes = (
(170,1,o),
(398,0,o),
(535,-2,c),
(563,-2,o),
(567,-1,o),
(575,7,c),
(582,16,o),
(606,106,o),
(620,140,c),
(621,148,o),
(606,151,o),
(599,141,c),
(571,104,o),
(559,95,o),
(527,72,c),
(488,44,o),
(446,31,o),
(379,31,c),
(309,31,l),
(257,31,o),
(197,29,o),
(211,97,c),
(253,297,l),
(255,308,o),
(265,311,o),
(277,311,c),
(414,311,l),
(498,311,o),
(521,296,o),
(521,244,c),
(521,209,o),
(543,222,o),
(543,228,c),
(552,274,o),
(570,365,o),
(581,409,c),
(586,420,o),
(562,420,o),
(560,413,c),
(535,360,o),
(510,345,o),
(450,345,c),
(286,345,l),
(273,345,o),
(264,348,o),
(266,358,c),
(317,601,l),
(320,614,o),
(330,615,o),
(342,615,c),
(510,615,l),
(592,615,o),
(624,588,o),
(624,521,c),
(624,509,o),
(617,498,o),
(634,497,c),
(641,497,o),
(645,499,o),
(644,503,c),
(650,527,o),
(663,585,o),
(670,623,c),
(673,643,o),
(665,646,o),
(648,646,c),
(137,646,l),
(129,646,o),
(120,642,o),
(118,633,c),
(117,626,o),
(119,620,o),
(127,619,c),
(153,619,l),
(195,619,o),
(219,605,o),
(219,575,c),
(219,567,o),
(218,555,o),
(213,532,c),
(125,113,l),
(112,50,o),
(98,33,o),
(50,29,c),
(42,28,o),
(28,30,o),
(17,29,c),
(10,29,o),
(4,22,o),
(2,13,c),
(1,6,o),
(6,-2,o),
(12,-2,c)
);
},
{
closed = 1;
nodes = (
(298,697,l),
(447,793,l),
(452,796,o),
(457,796,o),
(460,792,c),
(539,697,l),
(545,697,l),
(551,697,o),
(551,701,o),
(550,707,c),
(516,844,l),
(513,856,o),
(508,858,o),
(498,859,c),
(487,859,o),
(465,861,o),
(454,860,c),
(446,860,o),
(438,858,o),
(432,851,c),
(286,704,l),
(283,701,o),
(282,698,o),
(286,697,c)
);
}
);
width = 662;
}
);
unicode = 202;
},
{
glyphname = Edieresis;
lastChange = "2023-05-15 06:06:58 +0000";
layers = (
{
hints = (
{
horizontal = 1;
place = (702, 107);
place = (702, 107);
type = Stem;
},
{
horizontal = 1;
place = (-2, 33);
place = (-2, 33);
type = Stem;
},
{
horizontal = 1;
place = (311, 34);
place = (311, 34);
type = Stem;
},
{
horizontal = 1;
place = (615, 31);
place = (615, 31);
type = Stem;
},
{
horizontal = 1;
place = (808, -20);
target = down;
type = TopGhost;
}
);
layerId = m01;
shapes = (
{
closed = 1;
nodes = (
(170,1,o),
(398,0,o),
(535,-2,c),
(563,-2,o),
(567,-1,o),
(575,7,c),
(582,16,o),
(606,106,o),
(620,140,c),
(621,148,o),
(606,151,o),
(599,141,c),
(571,104,o),
(559,95,o),
(527,72,c),
(488,44,o),
(446,31,o),
(379,31,c),
(309,31,l),
(257,31,o),
(197,29,o),
(211,97,c),
(253,297,l),
(255,308,o),
(265,311,o),
(277,311,c),
(414,311,l),
(498,311,o),
(521,296,o),
(521,244,c),
(521,209,o),
(543,222,o),
(543,228,c),
(552,274,o),
(570,365,o),
(581,409,c),
(586,420,o),
(562,420,o),
(560,413,c),
(535,360,o),
(510,345,o),
(450,345,c),
(286,345,l),
(273,345,o),
(264,348,o),
(266,358,c),
(317,601,l),
(320,614,o),
(330,615,o),
(342,615,c),
(510,615,l),
(592,615,o),
(624,588,o),
(624,521,c),
(624,509,o),
(617,498,o),
(634,497,c),
(641,497,o),
(645,499,o),
(644,503,c),
(650,527,o),
(663,585,o),
(670,623,c),
(673,643,o),
(665,646,o),
(648,646,c),
(137,646,l),
(129,646,o),
(120,642,o),
(118,633,c),
(117,626,o),
(119,620,o),
(127,619,c),
(153,619,l),
(195,619,o),
(219,605,o),
(219,575,c),
(219,567,o),
(218,555,o),
(213,532,c),
(125,113,l),
(112,50,o),
(98,33,o),
(50,29,c),
(42,28,o),
(28,30,o),
(17,29,c),
(10,29,o),
(4,22,o),
(2,13,c),
(1,6,o),
(6,-2,o),
(12,-2,c)
);
},
{
closed = 1;
nodes = (
(396,702,o),
(420,727,o),
(420,755,c),
(420,785,o),
(396,808,o),
(369,808,c),
(340,808,o),
(317,785,o),
(317,755,c),
(317,727,o),
(340,702,o),
(369,702,c)
);
},
{
closed = 1;
nodes = (
(565,702,o),
(588,727,o),
(588,756,c),
(588,786,o),
(565,809,o),
(537,809,c),
(508,809,o),
(484,786,o),
(484,756,c),
(484,727,o),
(508,702,o),
(537,702,c)
);
}
);
width = 662;
}
);
unicode = 203;
},
{
glyphname = Egrave;
lastChange = "2023-05-15 06:06:58 +0000";
layers = (
{
hints = (
{
horizontal = 1;
place = (-2, 33);
place = (-2, 33);
type = Stem;
},
{
horizontal = 1;
place = (311, 34);
place = (311, 34);
type = Stem;
},
{
horizontal = 1;
place = (615, 31);
place = (615, 31);
type = Stem;
},
{
horizontal = 1;
place = (876, -20);
target = down;
type = TopGhost;
}
);
layerId = m01;
shapes = (
{
closed = 1;
nodes = (
(170,1,o),
(398,0,o),
(535,-2,c),
(563,-2,o),
(567,-1,o),
(575,7,c),
(582,16,o),
(606,106,o),
(620,140,c),
(621,148,o),
(606,151,o),
(599,141,c),
(571,104,o),
(559,95,o),
(527,72,c),
(488,44,o),
(446,31,o),
(379,31,c),
(309,31,l),
(257,31,o),
(197,29,o),
(211,97,c),
(253,297,l),
(255,308,o),
(265,311,o),
(277,311,c),
(414,311,l),
(498,311,o),
(521,296,o),
(521,244,c),
(521,209,o),
(543,222,o),
(543,228,c),
(552,274,o),
(570,365,o),
(581,409,c),
(586,420,o),
(562,420,o),
(560,413,c),
(535,360,o),
(510,345,o),
(450,345,c),
(286,345,l),
(273,345,o),
(264,348,o),
(266,358,c),
(317,601,l),
(320,614,o),
(330,615,o),
(342,615,c),
(510,615,l),
(592,615,o),
(624,588,o),
(624,521,c),
(624,509,o),
(617,498,o),
(634,497,c),
(641,497,o),
(645,499,o),
(644,503,c),
(650,527,o),
(663,585,o),
(670,623,c),
(673,643,o),
(665,646,o),
(648,646,c),
(137,646,l),
(129,646,o),
(120,642,o),
(118,633,c),
(117,626,o),
(119,620,o),
(127,619,c),
(153,619,l),
(195,619,o),
(219,605,o),
(219,575,c),
(219,567,o),
(218,555,o),
(213,532,c),
(125,113,l),
(112,50,o),
(98,33,o),
(50,29,c),
(42,28,o),
(28,30,o),
(17,29,c),
(10,29,o),
(4,22,o),
(2,13,c),
(1,6,o),
(6,-2,o),
(12,-2,c)
);
},
{
closed = 1;
nodes = (
(499,713,o),
(501,715,o),
(500,718,c),
(452,870,l),
(452,871,o),
(451,872,o),
(451,873,c),
(448,877,o),
(443,876,o),
(439,876,c),
(365,876,l),
(359,876,o),
(352,872,o),
(359,863,c),
(482,717,l),
(485,714,o),
(490,713,o),
(493,713,c)
);
}
);
width = 662;
}
);
unicode = 200;
},
{
glyphname = F;
lastChange = "2023-05-15 06:06:58 +0000";
layers = (
{
hints = (
{
horizontal = 1;
place = (-2, 29);
place = (-2, 29);
type = Stem;
},
{
horizontal = 1;
place = (311, 34);
place = (311, 34);
type = Stem;
},
{
horizontal = 1;
place = (616, 30);
place = (616, 30);
type = Stem;
}
);
layerId = m01;
shapes = (
{
closed = 1;
nodes = (
(93,-1,o),
(220,-1,o),
(289,-2,c),
(299,-1,o),
(302,6,o),
(303,12,c),
(304,29,o),
(286,30,o),
(274,27,c),
(201,27,o),
(198,53,o),
(210,112,c),
(249,297,l),
(251,307,o),
(260,311,o),
(264,311,c),
(400,311,l),
(458,311,o),
(476,293,o),
(476,225,c),
(476,217,o),
(497,215,o),
(499,227,c),
(504,266,o),
(522,352,o),
(537,405,c),
(544,431,o),
(516,419,o),
(514,414,c),
(487,363,o),
(465,346,o),
(414,345,c),
(379,345,o),
(296,344,o),
(276,345,c),
(264,345,o),
(260,353,o),
(262,363,c),
(262,363,o),
(314,604,o),
(319,602,c),
(324,616,o),
(339,616,o),
(342,616,c),
(464,616,l),
(539,616,o),
(563,593,o),
(563,521,c),
(563,514,o),
(558,496,o),
(572,497,c),
(578,498,o),
(584,500,o),
(584,503,c),
(610,626,l),
(614,645,o),
(594,646,o),
(582,646,c),
(444,645,o),
(256,645,o),
(143,646,c),
(124,648,o),
(120,617,o),
(133,617,c),
(150,617,l),
(191,617,o),
(215,601,o),
(215,573,c),
(215,564,o),
(214,555,o),
(209,532,c),
(120,113,l),
(105,41,o),
(85,25,o),
(32,25,c),
(21,25,l),
(8,27,o),
(2,-2,o),
(17,-2,c)
);
}
);
width = 549;
}
);
unicode = 70;
},
{
glyphname = G;
lastChange = "2023-05-15 06:06:58 +0000";
layers = (
{
hints = (
{
horizontal = 1;
place = (-18, 30);
place = (-18, 30);
type = Stem;
},
{
horizontal = 1;
place = (632, 30);
place = (632, 30);
type = Stem;
},
{
place = (61, 98);
place = (61, 98);
type = Stem;
}
);
layerId = m01;
shapes = (
{
closed = 1;
nodes = (
(498,-18,o),
(607,-3,o),
(692,19,c),
(704,22,o),
(701,39,o),
(696,41,c),
(649,43,o),
(656,73,o),
(665,108,c),
(679,168,o),
(672,206,o),
(747,215,c),
(751,215,o),
(756,215,o),
(760,215,c),
(768,216,o),
(772,241,o),
(763,242,c),
(704,240,o),
(601,240,o),
(526,242,c),
(517,242,o),
(507,218,o),
(522,216,c),
(531,215,l),
(576,210,o),
(591,206,o),
(591,171,c),
(591,142,o),
(577,70,o),
(557,51,c),
(534,28,o),
(473,12,o),
(412,12,c),
(232,12,o),
(159,108,o),
(159,271,c),
(159,473,o),
(288,632,o),
(485,632,c),
(609,632,o),
(688,572,o),
(714,468,c),
(716,461,o),
(740,461,o),
(737,474,c),
(733,595,l),
(731,608,o),
(726,615,o),
(722,616,c),
(642,645,o),
(564,662,o),
(489,662,c),
(236,662,o),
(61,494,o),
(61,284,c),
(61,87,o),
(230,-18,o),
(409,-18,c)
);
}
);
width = 747;
}
);
unicode = 71;
},
{
glyphname = H;
lastChange = "2023-05-15 06:06:58 +0000";
layers = (
{
hints = (
{
horizontal = 1;
place = (-2, 27);
place = (-2, 27);
type = Stem;
},
{
horizontal = 1;
place = (308, 38);
place = (308, 38);
type = Stem;
},
{
horizontal = 1;
place = (621, 25);
place = (621, 25);
type = Stem;
}
);
layerId = m01;
shapes = (
{
closed = 1;
nodes = (
(72,1,o),
(211,-1,o),
(282,-2,c),
(289,-3,o),
(295,0,o),
(297,11,c),
(299,29,o),
(278,25,o),
(266,25,c),
(192,24,o),
(189,55,o),
(201,112,c),
(240,295,l),
(242,305,o),
(248,308,o),
(258,308,c),
(572,308,l),
(580,308,o),
(589,302,o),
(585,285,c),
(549,113,l),
(536,52,o),
(520,30,o),
(474,25,c),
(464,24,o),
(453,26,o),
(440,24,c),
(432,23,o),
(426,18,o),
(425,10,c),
(424,3,o),
(427,-2,o),
(438,-2,c),
(506,1,o),
(644,1,o),
(712,-2,c),
(720,0,o),
(728,1,o),
(728,12,c),
(728,30,o),
(705,23,o),
(693,24,c),
(630,29,o),
(628,62,o),
(639,112,c),
(725,519,l),
(741,596,o),
(758,617,o),
(805,621,c),
(813,622,o),
(823,621,o),
(831,621,c),
(834,622,o),
(840,627,o),
(842,632,c),
(844,641,o),
(840,646,o),
(834,646,c),
(774,642,o),
(640,643,o),
(570,646,c),
(563,646,o),
(558,641,o),
(558,634,c),
(557,619,o),
(567,621,o),
(579,621,c),
(651,621,o),
(649,584,o),
(638,533,c),
(602,361,l),
(601,354,o),
(592,346,o),
(584,346,c),
(265,346,l),
(257,346,o),
(250,354,o),
(254,363,c),
(289,532,l),
(304,605,o),
(324,620,o),
(387,620,c),
(404,620,o),
(411,616,o),
(414,634,c),
(415,640,o),
(412,646,o),
(400,646,c),
(326,643,o),
(186,643,o),
(117,646,c),
(110,646,o),
(105,638,o),
(105,631,c),
(104,626,o),
(109,621,o),
(112,620,c),
(145,620,l),
(187,620,o),
(207,606,o),
(207,577,c),
(207,568,o),
(205,555,o),
(200,533,c),
(114,125,l),
(97,45,o),
(74,25,o),
(15,25,c),
(-5,25,l),
(-9,25,o),
(-14,19,o),
(-15,11,c),
(-16,5,o),
(-13,-2,o),
(-2,-2,c)
);
}
);
width = 773;
}
);
unicode = 72;
},
{
glyphname = I;
lastChange = "2023-05-15 06:06:58 +0000";
layers = (
{
hints = (
{
horizontal = 1;
place = (-2, 27);
place = (-2, 27);
type = Stem;
},
{
horizontal = 1;
place = (619, 27);
place = (619, 27);
type = Stem;
}
);
layerId = m01;
shapes = (
{
closed = 1;
nodes = (
(95,2,o),
(231,0,o),
(301,-2,c),
(305,-1,o),
(311,4,o),
(313,9,c),
(314,16,o),
(311,23,o),
(303,23,c),
(228,22,o),
(210,43,o),
(225,112,c),
(314,532,l),
(329,605,o),
(344,616,o),
(408,620,c),
(417,617,o),
(423,622,o),
(426,631,c),
(429,638,o),
(429,646,o),
(421,646,c),
(352,643,o),
(224,643,o),
(160,646,c),
(151,646,o),
(146,642,o),
(144,635,c),
(138,618,o),
(155,618,o),
(166,619,c),
(238,614,o),
(236,589,o),
(224,533,c),
(135,113,l),
(122,50,o),
(108,24,o),
(39,25,c),
(34,25,o),
(25,19,o),
(23,13,c),
(21,6,o),
(23,-2,o),
(30,-2,c)
);
}
);
width = 356;
}
);
unicode = 73;
},
{
glyphname = Iacute;
lastChange = "2023-05-15 06:06:58 +0000";
layers = (
{
hints = (
{
horizontal = 1;
place = (-2, 27);
place = (-2, 27);
type = Stem;
},
{
horizontal = 1;
place = (619, 27);
place = (619, 27);
type = Stem;
}
);
layerId = m01;
shapes = (
{
closed = 1;
nodes = (
(95,2,o),
(231,0,o),
(301,-2,c),
(305,-1,o),
(311,4,o),
(312,9,c),
(314,16,o),
(311,23,o),
(303,23,c),
(228,22,o),
(210,43,o),
(225,112,c),
(314,532,l),
(329,605,o),
(344,616,o),
(408,620,c),
(417,617,o),
(423,622,o),
(426,630,c),
(429,638,o),
(429,646,o),
(421,646,c),
(352,643,o),
(224,643,o),
(160,646,c),
(151,646,o),
(146,642,o),
(144,634,c),
(138,618,o),
(155,618,o),
(166,619,c),
(238,614,o),
(236,589,o),
(224,533,c),
(135,113,l),
(122,50,o),
(108,24,o),
(39,25,c),
(34,25,o),
(25,19,o),
(23,13,c),
(21,6,o),
(23,-2,o),
(30,-2,c)
);
},
{
closed = 1;
nodes = (
(318,753,o),
(380,822,o),
(409,863,c),
(417,874,o),
(407,878,o),
(399,877,c),
(381,879,o),
(351,878,o),
(334,877,c),
(323,877,o),
(318,875,o),
(315,867,c),
(310,842,o),
(283,757,o),
(273,722,c),
(270,713,o),
(281,712,o),
(287,718,c)
);
}
);
width = 356;
}
);
unicode = 205;
},
{
glyphname = Icircumflex;
lastChange = "2023-05-15 06:06:58 +0000";
layers = (
{
hints = (
{
horizontal = 1;
place = (-2, 27);
place = (-2, 27);
type = Stem;
},
{
horizontal = 1;
place = (619, 27);
place = (619, 27);
type = Stem;
},
{
horizontal = 1;
place = (861, -20);
target = down;
type = TopGhost;
}
);
layerId = m01;
shapes = (
{
closed = 1;
nodes = (
(95,2,o),
(231,0,o),
(301,-2,c),
(305,-1,o),
(311,4,o),
(312,9,c),
(314,16,o),
(311,23,o),
(303,23,c),
(228,22,o),
(210,43,o),
(225,112,c),
(314,532,l),
(329,605,o),
(344,616,o),
(408,620,c),
(417,617,o),
(423,622,o),
(426,630,c),
(429,638,o),
(429,646,o),
(421,646,c),
(352,643,o),
(224,643,o),
(160,646,c),
(151,646,o),
(146,642,o),
(144,634,c),
(138,618,o),
(155,618,o),
(166,619,c),
(238,614,o),
(236,589,o),
(224,533,c),
(135,113,l),
(122,50,o),
(108,24,o),
(39,25,c),
(34,25,o),
(25,19,o),
(23,13,c),
(21,6,o),
(23,-2,o),
(30,-2,c)
);
},
{
closed = 1;
nodes = (
(177,698,l),
(326,794,l),
(331,797,o),
(336,797,o),
(339,793,c),
(418,698,l),
(424,698,l),
(430,698,o),
(430,702,o),
(429,708,c),
(395,845,l),
(392,857,o),
(387,859,o),
(377,860,c),
(366,860,o),
(344,862,o),
(333,861,c),
(325,861,o),
(317,859,o),
(311,852,c),
(165,705,l),
(162,702,o),
(161,699,o),
(165,698,c)
);
}
);
width = 356;
}
);
unicode = 206;
},
{
glyphname = Idieresis;
lastChange = "2023-05-15 06:06:58 +0000";
layers = (
{
hints = (
{
place = (351, 103);
place = (351, 103);
type = Stem;
},
{
horizontal = 1;
place = (702, 107);
place = (702, 107);
type = Stem;
},
{
place = (184, 102);
place = (184, 102);
type = Stem;
},
{
horizontal = 1;
place = (-2, 27);
place = (-2, 27);
type = Stem;
},
{
horizontal = 1;
place = (619, 27);
place = (619, 27);
type = Stem;
},
{
horizontal = 1;
place = (808, -20);
target = down;
type = TopGhost;
}
);
layerId = m01;
shapes = (
{
closed = 1;
nodes = (
(95,2,o),
(231,0,o),
(301,-2,c),
(305,-1,o),
(311,4,o),
(312,9,c),
(314,16,o),
(311,23,o),
(303,23,c),
(228,22,o),
(210,43,o),
(225,112,c),
(314,532,l),
(329,605,o),
(344,616,o),
(408,620,c),
(417,617,o),
(423,622,o),
(426,630,c),
(429,638,o),
(429,646,o),
(421,646,c),
(352,643,o),
(224,643,o),
(160,646,c),
(151,646,o),
(146,642,o),
(144,634,c),
(138,618,o),
(155,618,o),
(166,619,c),
(238,614,o),
(236,589,o),
(224,533,c),
(135,113,l),
(122,50,o),
(108,24,o),
(39,25,c),
(34,25,o),
(25,19,o),
(23,13,c),
(21,6,o),
(23,-2,o),
(30,-2,c)
);
},
{
closed = 1;
nodes = (
(263,702,o),
(286,727,o),
(286,755,c),
(286,785,o),
(263,808,o),
(235,808,c),
(206,808,o),
(184,785,o),
(184,755,c),
(184,727,o),
(206,702,o),
(235,702,c)
);
},
{
closed = 1;
nodes = (
(432,702,o),
(454,727,o),
(454,756,c),
(454,786,o),
(432,809,o),
(403,809,c),
(374,809,o),
(351,786,o),
(351,756,c),
(351,727,o),
(374,702,o),
(403,702,c)
);
}
);
width = 356;
}
);
unicode = 207;
},
{
glyphname = Igrave;
lastChange = "2023-05-15 06:06:58 +0000";
layers = (
{
hints = (
{
horizontal = 1;
place = (-2, 27);
place = (-2, 27);
type = Stem;
},
{
horizontal = 1;
place = (619, 27);
place = (619, 27);
type = Stem;
},
{
horizontal = 1;
place = (876, -20);
target = down;
type = TopGhost;
}
);
layerId = m01;
shapes = (
{
closed = 1;
nodes = (
(95,2,o),
(231,0,o),
(301,-2,c),
(305,-1,o),
(311,4,o),
(312,9,c),
(314,16,o),
(311,23,o),
(303,23,c),
(228,22,o),
(210,43,o),
(225,112,c),
(314,532,l),
(329,605,o),
(344,616,o),
(408,620,c),
(417,617,o),
(423,622,o),
(426,630,c),
(429,638,o),
(429,646,o),
(421,646,c),
(352,643,o),
(224,643,o),
(160,646,c),
(151,646,o),
(146,642,o),
(144,634,c),
(138,618,o),
(155,618,o),
(166,619,c),
(238,614,o),
(236,589,o),
(224,533,c),
(135,113,l),
(122,50,o),
(108,24,o),
(39,25,c),
(34,25,o),
(25,19,o),
(23,13,c),
(21,6,o),
(23,-2,o),
(30,-2,c)
);
},
{
closed = 1;
nodes = (
(345,713,o),
(347,715,o),
(347,718,c),
(299,870,l),
(298,871,o),
(298,872,o),
(297,873,c),
(295,877,o),
(290,876,o),
(285,876,c),
(211,876,l),
(206,876,o),
(198,872,o),
(205,863,c),
(329,717,l),
(331,714,o),
(336,713,o),
(340,713,c)
);
}
);
width = 356;
}
);
unicode = 204;
},
{
glyphname = J;
lastChange = "2023-05-15 06:06:58 +0000";
layers = (
{
hints = (
{
horizontal = 1;
place = (-287, 56);
place = (-287, 56);
type = Stem;
},
{
horizontal = 1;
place = (620, 26);
place = (620, 26);
type = Stem;
}
);
layerId = m01;
shapes = (
{
closed = 1;
nodes = (
(-27,-287,o),
(35,-258,o),
(95,-208,c),
(155,-159,o),
(179,-112,o),
(197,-15,c),
(301,532,l),
(313,594,o),
(328,613,o),
(373,618,c),
(387,619,o),
(408,613,o),
(414,631,c),
(417,642,o),
(413,646,o),
(406,646,c),
(341,643,o),
(206,642,o),
(136,646,c),
(127,646,o),
(124,640,o),
(123,632,c),
(122,624,o),
(125,621,o),
(132,621,c),
(144,620,o),
(155,621,o),
(166,620,c),
(230,616,o),
(219,577,o),
(211,533,c),
(92,-98,l),
(85,-134,o),
(80,-149,o),
(73,-166,c),
(55,-206,o),
(25,-231,o),
(-25,-231,c),
(-45,-231,o),
(-62,-226,o),
(-81,-220,c),
(-96,-215,o),
(-111,-205,o),
(-127,-205,c),
(-139,-205,o),
(-154,-209,o),
(-162,-220,c),
(-171,-232,o),
(-177,-251,o),
(-177,-259,c),
(-177,-278,o),
(-156,-287,o),
(-106,-287,c)
);
}
);
width = 338;
}
);
unicode = 74;
},
{
glyphname = K;
lastChange = "2023-05-15 06:06:58 +0000";
layers = (
{
hints = (
{
horizontal = 1;
place = (-3, 25);
place = (-3, 25);
type = Stem;
},
{
horizontal = 1;
place = (620, 25);
place = (620, 25);
type = Stem;
}
);
layerId = m01;
shapes = (
{
closed = 1;
nodes = (
(86,-1,o),
(219,-1,o),
(291,-3,c),
(300,0,o),
(301,2,o),
(303,10,c),
(305,21,o),
(293,23,o),
(285,22,c),
(200,22,o),
(205,54,o),
(217,111,c),
(252,279,l),
(254,289,o),
(257,291,o),
(262,295,c),
(291,313,l),
(535,8,l),
(540,1,o),
(546,-3,o),
(556,-3,c),
(601,-1,o),
(666,-1,o),
(705,-3,c),
(715,-3,o),
(721,24,o),
(711,24,c),
(704,24,l),
(656,24,o),
(619,36,o),
(578,88,c),
(369,349,l),
(366,353,o),
(361,360,o),
(372,368,c),
(450,428,o),
(570,517,o),
(570,517,c),
(651,578,o),
(711,604,o),
(753,612,c),
(794,620,l),
(799,622,o),
(797,621,o),
(802,622,c),
(806,623,o),
(811,633,o),
(810,640,c),
(809,645,o),
(804,645,o),
(801,645,c),
(723,643,o),
(645,641,o),
(567,645,c),
(562,645,o),
(557,639,o),
(556,632,c),
(553,620,o),
(558,620,o),
(566,620,c),
(598,620,o),
(608,613,o),
(608,596,c),
(608,580,o),
(589,567,o),
(579,560,c),
(476,491,o),
(385,420,o),
(283,348,c),
(269,338,o),
(266,346,o),
(268,354,c),
(305,531,l),
(320,604,o),
(339,619,o),
(401,620,c),
(402,620,o),
(412,620,o),
(412,620,c),
(424,620,o),
(431,645,o),
(417,645,c),
(347,642,o),
(219,643,o),
(162,645,c),
(146,645,o),
(145,619,o),
(154,620,c),
(161,620,l),
(204,620,o),
(222,605,o),
(222,576,c),
(222,567,o),
(221,554,o),
(216,532,c),
(126,112,l),
(112,48,o),
(96,28,o),
(46,23,c),
(32,22,o),
(15,29,o),
(9,10,c),
(7,4,o),
(10,-1,o),
(20,-3,c)
);
}
);
width = 710;
}
);
unicode = 75;
},
{
glyphname = L;
lastChange = "2023-05-15 06:06:58 +0000";
layers = (
{
hints = (
{
horizontal = 1;
place = (-2, 40);
place = (-2, 40);
type = Stem;
},
{
horizontal = 1;
place = (620, 26);
place = (620, 26);
type = Stem;
}
);
layerId = m01;
shapes = (
{
closed = 1;
nodes = (
(571,-2,o),
(578,12,o),
(580,18,c),
(594,53,o),
(609,106,o),
(623,138,c),
(627,152,o),
(607,154,o),
(601,146,c),
(568,105,o),
(546,86,o),
(513,68,c),
(475,47,o),
(433,39,o),
(373,38,c),
(344,38,o),
(295,38,o),
(270,38,c),
(211,39,o),
(213,79,o),
(222,122,c),
(309,532,l),
(324,605,o),
(344,620,o),
(406,620,c),
(416,620,o),
(427,618,o),
(430,631,c),
(431,636,o),
(429,646,o),
(422,646,c),
(353,642,o),
(214,642,o),
(145,646,c),
(141,646,o),
(138,640,o),
(136,635,c),
(130,614,o),
(146,620,o),
(159,620,c),
(233,620,o),
(230,588,o),
(218,533,c),
(133,127,l),
(118,53,o),
(98,30,o),
(49,27,c),
(41,26,o),
(39,27,o),
(30,26,c),
(24,25,o),
(12,17,o),
(16,2,c),
(17,-2,o),
(27,-2,o),
(32,-1,c),
(163,2,o),
(417,-2,o),
(554,-2,c)
);
}
);
width = 603;
}
);
unicode = 76;
},
{
glyphname = Lslash;
lastChange = "2023-05-15 06:06:58 +0000";
layers = (
{
hints = (
{
horizontal = 1;
place = (-2, 38);
place = (-2, 38);
type = Stem;
},
{
horizontal = 1;
place = (623, 24);
place = (623, 24);
type = Stem;
},
{
horizontal = 1;
place = (648, -20);
target = down;
type = TopGhost;
}
);
layerId = m01;
shapes = (
{
closed = 1;
nodes = (
(211,1,o),
(430,1,o),
(558,-2,c),
(567,-2,o),
(581,3,o),
(584,11,c),
(595,38,o),
(611,75,o),
(623,129,c),
(626,142,o),
(622,144,o),
(614,144,c),
(611,144,o),
(605,145,o),
(598,136,c),
(570,99,o),
(551,82,o),
(522,66,c),
(486,45,o),
(446,36,o),
(390,36,c),
(272,36,l),
(238,36,o),
(223,50,o),
(223,79,c),
(223,91,o),
(224,105,o),
(227,119,c),
(273,347,l),
(359,420,l),
(371,431,o),
(379,443,o),
(381,452,c),
(397,513,l),
(399,521,o),
(398,531,o),
(386,520,c),
(358,497,o),
(333,476,o),
(308,454,c),
(295,443,o),
(292,446,o),
(295,460,c),
(309,532,l),
(323,605,o),
(343,623,o),
(402,623,c),
(416,623,o),
(417,627,o),
(420,640,c),
(418,644,o),
(419,647,o),
(411,647,c),
(303,644,o),
(212,646,o),
(165,648,c),
(160,648,o),
(156,646,o),
(150,638,c),
(146,629,o),
(151,623,o),
(159,623,c),
(168,623,l),
(208,623,o),
(231,606,o),
(231,577,c),
(231,516,o),
(191,362,o),
(190,356,c),
(107,287,l),
(101,281,o),
(93,272,o),
(90,260,c),
(74,197,l),
(72,188,o),
(79,184,o),
(87,191,c),
(111,212,o),
(133,231,o),
(154,250,c),
(163,257,o),
(169,252,o),
(167,243,c),
(144,127,l),
(128,47,o),
(112,29,o),
(57,29,c),
(42,29,o),
(45,31,o),
(41,20,c),
(37,10,l),
(34,3,o),
(40,-2,o),
(48,-2,c)
);
}
);
width = 593;
}
);
unicode = 321;
},
{
glyphname = M;
lastChange = "2023-05-15 06:06:58 +0000";
layers = (
{
hints = (
{
horizontal = 1;
place = (-2, 25);
place = (-2, 25);
type = Stem;
},
{
horizontal = 1;
place = (620, 26);
place = (620, 26);
type = Stem;
}
);
layerId = m01;
shapes = (
{
closed = 1;
nodes = (
(54,1,o),
(161,0,o),
(215,-2,c),
(218,-2,o),
(222,2,o),
(223,10,c),
(225,16,o),
(225,22,o),
(220,22,c),
(169,26,o),
(147,45,o),
(147,87,c),
(147,101,o),
(149,116,o),
(153,129,c),
(272,537,l),
(274,545,o),
(281,554,o),
(283,536,c),
(357,2,l),
(360,-5,o),
(386,-9,o),
(402,1,c),
(744,541,l),
(752,554,o),
(759,554,o),
(755,537,c),
(663,113,l),
(651,56,o),
(636,33,o),
(596,26,c),
(583,24,o),
(570,24,o),
(556,24,c),
(546,24,o),
(540,-3,o),
(553,-2,c),
(607,-1,o),
(716,3,o),
(814,-2,c),
(819,-3,o),
(826,3,o),
(827,9,c),
(832,25,o),
(820,23,o),
(809,23,c),
(737,23,o),
(741,62,o),
(752,112,c),
(841,532,l),
(856,605,o),
(877,621,o),
(939,621,c),
(946,621,l),
(955,620,o),
(957,636,o),
(956,641,c),
(955,645,o),
(951,646,o),
(943,646,c),
(902,644,o),
(825,645,o),
(789,646,c),
(781,646,o),
(774,645,o),
(770,638,c),
(436,130,l),
(430,119,o),
(424,131,o),
(422,139,c),
(352,637,l),
(352,644,o),
(343,647,o),
(333,646,c),
(287,644,o),
(202,644,o),
(156,645,c),
(143,648,o),
(139,626,o),
(146,622,c),
(155,620,o),
(161,620,o),
(176,620,c),
(248,619,o),
(248,578,o),
(232,524,c),
(132,181,l),
(114,120,o),
(98,79,o),
(84,62,c),
(67,41,o),
(42,27,o),
(5,22,c),
(2,22,o),
(-4,18,o),
(-6,11,c),
(-7,5,o),
(-5,-2,o),
(0,-2,c)
);
}
);
width = 883;
}
);
unicode = 77;
},
{
glyphname = N;
lastChange = "2023-05-15 06:06:58 +0000";
layers = (
{
hints = (
{
horizontal = 1;
place = (623, 23);
place = (623, 23);
type = Stem;
},
{
horizontal = 1;
place = (-2, 21);
target = up;
type = BottomGhost;
}
);
layerId = m01;
shapes = (
{
closed = 1;
nodes = (
(609,-18,o),
(633,-16,o),
(634,-11,c),
(745,515,l),
(760,586,o),
(788,615,o),
(851,624,c),
(859,624,o),
(870,647,o),
(856,646,c),
(787,644,o),
(680,645,o),
(633,646,c),
(629,646,o),
(624,642,o),
(623,635,c),
(623,629,o),
(625,623,o),
(628,623,c),
(711,617,o),
(726,587,o),
(711,515,c),
(630,133,l),
(627,124,o),
(620,119,o),
(611,133,c),
(283,638,l),
(280,643,o),
(272,646,o),
(251,646,c),
(220,645,o),
(171,644,o),
(134,646,c),
(131,646,o),
(124,643,o),
(123,635,c),
(122,628,o),
(122,623,o),
(130,621,c),
(164,616,o),
(196,618,o),
(219,587,c),
(128,136,l),
(112,55,o),
(89,31,o),
(23,22,c),
(11,23,o),
(7,-3,o),
(20,-2,c),
(77,1,o),
(190,0,o),
(247,-2,c),
(252,-2,o),
(255,4,o),
(256,11,c),
(258,24,o),
(254,25,o),
(242,25,c),
(165,35,o),
(159,77,o),
(171,141,c),
(245,522,l),
(247,532,o),
(251,537,o),
(260,526,c),
(603,-11,l)
);
}
);
width = 789;
}
);
unicode = 78;
},
{
glyphname = Ntilde;
lastChange = "2023-05-15 06:06:58 +0000";
layers = (
{
hints = (
{
horizontal = 1;
place = (623, 23);
place = (623, 23);
type = Stem;
},
{
horizontal = 1;
place = (-2, 21);
target = up;
type = BottomGhost;
},
{
horizontal = 1;
place = (823, -20);
target = down;
type = TopGhost;
},
{
horizontal = 1;
place = (688, 66);
place = (688, 66);
type = Stem;
},
{
horizontal = 1;
place = (758, 66);
place = (758, 66);
type = Stem;
}
);
layerId = m01;
shapes = (
{
closed = 1;
nodes = (
(609,-18,o),
(633,-16,o),
(634,-11,c),
(745,515,l),
(760,586,o),
(788,615,o),
(851,624,c),
(859,624,o),
(870,647,o),
(856,646,c),
(787,644,o),
(680,644,o),
(633,646,c),
(629,646,o),
(624,642,o),
(623,634,c),
(623,629,o),
(625,623,o),
(628,623,c),
(711,617,o),
(726,587,o),
(711,515,c),
(630,133,l),
(627,124,o),
(620,119,o),
(611,133,c),
(283,638,l),
(280,643,o),
(272,646,o),
(251,646,c),
(220,645,o),
(171,644,o),
(134,646,c),
(131,646,o),
(124,643,o),
(123,634,c),
(122,628,o),
(122,623,o),
(130,621,c),
(164,616,o),
(196,618,o),
(219,587,c),
(128,136,l),
(112,55,o),
(89,31,o),
(23,22,c),
(11,23,o),
(7,-3,o),
(20,-2,c),
(77,1,o),
(190,0,o),
(247,-2,c),
(252,-2,o),
(255,4,o),
(256,11,c),
(258,24,o),
(254,25,o),
(242,25,c),
(164,35,o),
(159,77,o),
(171,141,c),
(245,522,l),
(247,532,o),
(251,537,o),
(260,526,c),
(603,-11,l)
);
},
{
closed = 1;
nodes = (
(635,688,o),
(675,741,o),
(675,810,c),
(675,817,o),
(675,823,o),
(666,823,c),
(658,823,o),
(656,821,o),
(655,813,c),
(648,770,o),
(634,754,o),
(611,754,c),
(572,754,o),
(513,824,o),
(451,824,c),
(397,824,o),
(364,782,o),
(357,703,c),
(356,693,o),
(358,689,o),
(365,689,c),
(373,689,o),
(376,691,o),
(377,697,c),
(386,745,o),
(397,758,o),
(422,758,c),
(461,758,o),
(515,688,o),
(582,688,c)
);
}
);
width = 789;
}
);
unicode = 209;
},
{
glyphname = O;
lastChange = "2023-05-15 06:06:58 +0000";
layers = (
{
hints = (
{
horizontal = 1;
place = (-18, 31);
place = (-18, 31);
type = Stem;
},
{
horizontal = 1;
place = (631, 31);
place = (631, 31);
type = Stem;
},
{
place = (88, 94);
place = (88, 94);
type = Stem;
},
{
place = (688, 94);
place = (688, 94);
type = Stem;
}
);
layerId = m01;
shapes = (
{
closed = 1;
nodes = (
(606,-18,o),
(782,150,o),
(782,358,c),
(782,529,o),
(656,662,o),
(480,662,c),
(267,662,o),
(88,491,o),
(88,287,c),
(88,114,o),
(211,-18,o),
(387,-18,c)
);
},
{
closed = 1;
nodes = (
(256,14,o),
(182,109,o),
(182,262,c),
(182,369,o),
(226,482,o),
(295,555,c),
(342,605,o),
(406,631,o),
(481,631,c),
(609,632,o),
(688,532,o),
(688,389,c),
(688,176,o),
(556,12,o),
(387,13,c)
);
}
);
width = 819;
}
);
unicode = 79;
},
{
glyphname = Oacute;
lastChange = "2023-05-15 06:06:58 +0000";
layers = (
{
hints = (
{
horizontal = 1;
place = (-18, 31);
place = (-18, 31);
type = Stem;
},
{
horizontal = 1;
place = (631, 31);
place = (631, 31);
type = Stem;
},
{
place = (88, 94);
place = (88, 94);
type = Stem;
},
{
place = (688, 94);
place = (688, 94);
type = Stem;
}
);
layerId = m01;
shapes = (
{
closed = 1;
nodes = (
(606,-18,o),
(782,150,o),
(782,358,c),
(782,529,o),
(656,662,o),
(480,662,c),
(267,662,o),
(88,491,o),
(88,287,c),
(88,114,o),
(211,-18,o),
(387,-18,c)
);
},
{
closed = 1;
nodes = (
(256,14,o),
(182,109,o),
(182,262,c),
(182,369,o),
(226,482,o),
(295,555,c),
(342,605,o),
(406,631,o),
(481,631,c),
(609,632,o),
(688,532,o),
(688,389,c),
(688,176,o),
(556,12,o),
(387,13,c)
);
},
{
closed = 1;
nodes = (
(517,753,o),
(579,822,o),
(609,863,c),
(617,874,o),
(606,878,o),
(598,877,c),
(580,879,o),
(550,878,o),
(533,877,c),
(522,877,o),
(517,875,o),
(514,867,c),
(509,842,o),
(482,757,o),
(472,722,c),
(469,713,o),
(480,712,o),
(486,718,c)
);
}
);
width = 819;
}
);
unicode = 211;
},
{
glyphname = Ocircumflex;
lastChange = "2023-05-15 06:06:58 +0000";
layers = (
{
hints = (
{
horizontal = 1;
place = (-18, 31);
place = (-18, 31);
type = Stem;
},
{
horizontal = 1;
place = (631, 31);
place = (631, 31);
type = Stem;
},
{
horizontal = 1;
place = (862, -20);
target = down;
type = TopGhost;
},
{
place = (88, 94);
place = (88, 94);
type = Stem;
},
{
place = (688, 94);
place = (688, 94);
type = Stem;
}
);
layerId = m01;
shapes = (
{
closed = 1;
nodes = (
(606,-18,o),
(782,150,o),
(782,358,c),
(782,529,o),
(656,662,o),
(480,662,c),
(267,662,o),
(88,491,o),
(88,287,c),
(88,114,o),
(211,-18,o),
(387,-18,c)
);
},
{
closed = 1;
nodes = (
(256,14,o),
(182,109,o),
(182,262,c),
(182,369,o),
(226,482,o),
(295,555,c),
(342,605,o),
(406,631,o),
(481,631,c),
(609,632,o),
(688,532,o),
(688,389,c),
(688,176,o),
(556,12,o),
(387,13,c)
);
},
{
closed = 1;
nodes = (
(387,699,l),
(536,795,l),
(541,798,o),
(546,798,o),
(549,794,c),
(628,699,l),
(634,699,l),
(640,699,o),
(640,703,o),
(639,709,c),
(605,846,l),
(602,858,o),
(597,860,o),
(587,861,c),
(576,861,o),
(554,863,o),
(543,862,c),
(535,862,o),
(527,860,o),
(521,853,c),
(375,706,l),
(372,703,o),
(371,700,o),
(375,699,c)
);
}
);
width = 819;
}
);
unicode = 212;
},
{
glyphname = Odieresis;
lastChange = "2023-05-15 06:06:58 +0000";
layers = (
{
hints = (
{
place = (550, 103);
place = (550, 103);
type = Stem;
},
{
horizontal = 1;
place = (702, 107);
place = (702, 107);
type = Stem;
},
{
place = (383, 102);
place = (383, 102);
type = Stem;
},
{
horizontal = 1;
place = (-18, 31);
place = (-18, 31);
type = Stem;
},
{
horizontal = 1;
place = (631, 31);
place = (631, 31);
type = Stem;
},
{
place = (88, 94);
place = (88, 94);
type = Stem;
},
{
place = (688, 94);
place = (688, 94);
type = Stem;
},
{
horizontal = 1;
place = (808, -20);
target = down;
type = TopGhost;
}
);
layerId = m01;
shapes = (
{
closed = 1;
nodes = (
(606,-18,o),
(782,150,o),
(782,358,c),
(782,529,o),
(656,662,o),
(480,662,c),
(267,662,o),
(88,491,o),
(88,287,c),
(88,114,o),
(211,-18,o),
(387,-18,c)
);
},
{
closed = 1;
nodes = (
(256,14,o),
(182,109,o),
(182,262,c),
(182,369,o),
(226,482,o),
(295,555,c),
(342,605,o),
(406,631,o),
(481,631,c),
(609,632,o),
(688,532,o),
(688,389,c),
(688,176,o),
(556,12,o),
(387,13,c)
);
},
{
closed = 1;
nodes = (
(462,702,o),
(485,727,o),
(485,755,c),
(485,785,o),
(462,808,o),
(434,808,c),
(405,808,o),
(383,785,o),
(383,755,c),
(383,727,o),
(405,702,o),
(434,702,c)
);
},
{
closed = 1;
nodes = (
(631,702,o),
(653,727,o),
(653,756,c),
(653,786,o),
(631,809,o),
(602,809,c),
(573,809,o),
(550,786,o),
(550,756,c),
(550,727,o),
(573,702,o),
(602,702,c)
);
}
);
width = 819;
}
);
unicode = 214;
},
{
glyphname = Ograve;
lastChange = "2023-05-15 06:06:58 +0000";
layers = (
{
hints = (
{
horizontal = 1;
place = (-18, 31);
place = (-18, 31);
type = Stem;
},
{
horizontal = 1;
place = (631, 31);
place = (631, 31);
type = Stem;
},
{
horizontal = 1;
place = (876, -20);
target = down;
type = TopGhost;
},
{
place = (88, 94);
place = (88, 94);
type = Stem;
},
{
place = (688, 94);
place = (688, 94);
type = Stem;
}
);
layerId = m01;
shapes = (
{
closed = 1;
nodes = (
(606,-18,o),
(782,150,o),
(782,358,c),
(782,529,o),
(656,662,o),
(480,662,c),
(267,662,o),
(88,491,o),
(88,287,c),
(88,114,o),
(211,-18,o),
(387,-18,c)
);
},
{
closed = 1;
nodes = (
(256,14,o),
(182,109,o),
(182,262,c),
(182,369,o),
(226,482,o),
(295,555,c),
(342,605,o),
(406,631,o),
(481,631,c),
(609,632,o),
(688,532,o),
(688,389,c),
(688,176,o),
(556,12,o),
(387,13,c)
);
},
{
closed = 1;
nodes = (
(574,713,o),
(577,715,o),
(576,718,c),
(528,870,l),
(527,871,o),
(527,872,o),
(526,873,c),
(524,877,o),
(519,876,o),
(515,876,c),
(440,876,l),
(435,876,o),
(427,872,o),
(434,863,c),
(558,717,l),
(560,714,o),
(565,713,o),
(569,713,c)
);
}
);
width = 819;
}
);
unicode = 210;
},
{
glyphname = Oslash;
lastChange = "2023-05-15 06:06:58 +0000";
layers = (
{
hints = (
{
horizontal = 1;
place = (-18, 29);
place = (-18, 29);
type = Stem;
},
{
horizontal = 1;
place = (633, 29);
place = (633, 29);
type = Stem;
},
{
place = (110, 94);
place = (110, 94);
type = Stem;
},
{
place = (719, 93);
place = (719, 93);
type = Stem;
}
);
layerId = m01;
shapes = (
{
closed = 1;
nodes = (
(221,34,l),
(226,40,o),
(233,41,o),
(239,37,c),
(294,-2,o),
(348,-18,o),
(418,-18,c),
(636,-18,o),
(812,150,o),
(812,359,c),
(812,451,o),
(777,529,o),
(707,587,c),
(702,592,o),
(705,596,o),
(709,600,c),
(766,667,l),
(770,675,o),
(748,688,o),
(743,684,c),
(685,618,l),
(681,613,o),
(678,609,o),
(673,612,c),
(619,647,o),
(563,662,o),
(497,662,c),
(290,662,o),
(110,489,o),
(110,287,c),
(110,203,o),
(139,132,o),
(201,69,c),
(206,64,o),
(206,59,o),
(196,47,c),
(123,-38,l),
(117,-45,o),
(136,-65,o),
(147,-52,c)
);
},
{
closed = 1;
nodes = (
(360,11,o),
(311,30,o),
(271,70,c),
(265,76,o),
(263,83,o),
(269,89,c),
(660,545,l),
(668,554,o),
(676,544,o),
(680,538,c),
(707,496,o),
(719,447,o),
(719,388,c),
(719,176,o),
(588,11,o),
(419,11,c)
);
},
{
closed = 1;
nodes = (
(215,157,o),
(204,207,o),
(204,264,c),
(204,369,o),
(247,484,o),
(315,555,c),
(362,605,o),
(431,633,o),
(502,633,c),
(555,633,o),
(596,620,o),
(637,586,c),
(644,580,o),
(648,576,o),
(642,566,c),
(255,115,l),
(248,107,o),
(243,105,o),
(238,115,c)
);
}
);
width = 806;
}
);
unicode = 216;
},
{
glyphname = Otilde;
lastChange = "2023-05-15 06:06:58 +0000";
layers = (
{
hints = (
{
place = (688, 94);
place = (688, 94);
type = Stem;
},
{
horizontal = 1;
place = (631, 31);
place = (631, 31);
type = Stem;
},
{
place = (88, 94);
place = (88, 94);
type = Stem;
},
{
horizontal = 1;
place = (-18, 31);
place = (-18, 31);
type = Stem;
},
{
horizontal = 1;
place = (854, -20);
target = down;
type = TopGhost;
},
{
horizontal = 1;
place = (719, 66);
place = (719, 66);
type = Stem;
},
{
horizontal = 1;
place = (789, 66);
place = (789, 66);
type = Stem;
}
);
layerId = m01;
shapes = (
{
closed = 1;
nodes = (
(606,-18,o),
(782,150,o),
(782,358,c),
(782,529,o),
(656,662,o),
(480,662,c),
(267,662,o),
(88,491,o),
(88,287,c),
(88,114,o),
(211,-18,o),
(387,-18,c)
);
},
{
closed = 1;
nodes = (
(256,14,o),
(182,109,o),
(182,262,c),
(182,369,o),
(226,482,o),
(295,555,c),
(342,605,o),
(406,631,o),
(481,631,c),
(609,632,o),
(688,532,o),
(688,389,c),
(688,176,o),
(556,12,o),
(387,13,c)
);
},
{
closed = 1;
nodes = (
(620,719,o),
(660,772,o),
(660,841,c),
(660,848,o),
(660,854,o),
(651,854,c),
(643,854,o),
(641,852,o),
(640,844,c),
(633,801,o),
(619,785,o),
(596,785,c),
(557,785,o),
(498,855,o),
(436,855,c),
(382,855,o),
(349,813,o),
(342,734,c),
(341,724,o),
(343,720,o),
(350,720,c),
(358,720,o),
(361,722,o),
(362,728,c),
(371,776,o),
(382,789,o),
(407,789,c),
(446,789,o),
(500,719,o),
(567,719,c)
);
}
);
width = 819;
}
);
unicode = 213;
},
{
glyphname = OE;
lastChange = "2023-05-15 06:06:58 +0000";
layers = (
{
hints = (
{
horizontal = 1;
place = (616, 31);
place = (616, 31);
type = Stem;
},
{
horizontal = 1;
place = (-6, 29);
place = (-6, 29);
type = Stem;
},
{
horizontal = 1;
place = (311, 30);
place = (311, 30);
type = Stem;
},
{
place = (93, 92);
place = (93, 92);
type = Stem;
},
{
horizontal = 1;
place = (651, -20);
target = down;
type = TopGhost;
},
{
horizontal = 1;
place = (-2, 21);
target = up;
type = BottomGhost;
}
);
layerId = m01;
shapes = (
{
closed = 1;
nodes = (
(413,-6,o),
(437,-5,o),
(464,-4,c),
(492,-3,o),
(512,-2,o),
(526,-2,c),
(927,-2,l),
(938,-2,o),
(946,-8,o),
(957,18,c),
(969,47,o),
(995,106,o),
(1004,138,c),
(1005,142,o),
(1000,144,o),
(996,144,c),
(992,143,o),
(986,142,o),
(983,139,c),
(963,108,o),
(946,92,o),
(916,72,c),
(847,24,o),
(791,28,o),
(711,28,c),
(658,28,o),
(607,29,o),
(620,95,c),
(660,295,l),
(661,300,o),
(671,310,o),
(676,311,c),
(819,311,l),
(899,311,o),
(919,295,o),
(919,238,c),
(919,235,o),
(919,232,o),
(918,229,c),
(920,222,o),
(938,222,o),
(941,228,c),
(950,273,o),
(971,358,o),
(977,409,c),
(970,412,o),
(962,414,o),
(955,409,c),
(940,362,o),
(907,342,o),
(858,341,c),
(813,340,o),
(730,341,o),
(688,341,c),
(683,341,o),
(669,343,o),
(670,349,c),
(721,601,l),
(728,613,o),
(736,616,o),
(752,616,c),
(899,616,l),
(977,616,o),
(1007,589,o),
(1007,517,c),
(1007,505,l),
(1010,502,o),
(1023,500,o),
(1026,505,c),
(1032,533,o),
(1049,591,o),
(1053,636,c),
(1054,643,o),
(1052,647,o),
(1043,647,c),
(654,647,l),
(569,650,l),
(554,651,o),
(539,651,o),
(524,651,c),
(458,651,o),
(406,645,o),
(355,631,c),
(201,589,o),
(93,445,o),
(93,285,c),
(93,109,o),
(212,-6,o),
(393,-6,c)
);
},
{
closed = 1;
nodes = (
(267,23,o),
(185,115,o),
(185,267,c),
(185,355,o),
(218,445,o),
(277,514,c),
(338,586,o),
(413,622,o),
(504,622,c),
(586,622,o),
(626,597,o),
(626,549,c),
(626,538,o),
(624,523,o),
(621,509,c),
(553,169,l),
(537,90,o),
(523,60,o),
(491,43,c),
(467,30,o),
(438,23,o),
(402,23,c)
);
}
);
width = 1049;
}
);
unicode = 338;
},
{
glyphname = P;
lastChange = "2023-05-15 06:06:58 +0000";
layers = (
{
hints = (
{
place = (495, 94);
place = (495, 94);
type = Stem;
},
{
horizontal = 1;
place = (619, 27);
place = (619, 27);
type = Stem;
},
{
horizontal = 1;
place = (-2, 26);
place = (-2, 26);
type = Stem;
},
{
horizontal = 1;
place = (647, -20);
target = down;
type = TopGhost;
}
);
layerId = m01;
shapes = (
{
closed = 1;
nodes = (
(53,2,o),
(184,1,o),
(252,-2,c),
(256,-2,o),
(260,3,o),
(262,8,c),
(269,26,o),
(257,24,o),
(243,24,c),
(171,24,o),
(163,53,o),
(175,112,c),
(277,598,l),
(280,611,o),
(288,614,o),
(297,614,c),
(339,614,o),
(381,617,o),
(421,604,c),
(466,589,o),
(495,542,o),
(495,481,c),
(495,436,o),
(481,392,o),
(456,355,c),
(415,294,o),
(340,267,o),
(266,276,c),
(256,277,o),
(249,260,o),
(262,254,c),
(304,245,o),
(373,253,o),
(413,262,c),
(515,286,o),
(589,371,o),
(589,467,c),
(589,524,o),
(565,572,o),
(520,604,c),
(474,637,o),
(429,646,o),
(332,646,c),
(278,646,o),
(171,645,o),
(111,647,c),
(103,647,o),
(97,645,o),
(95,633,c),
(94,627,o),
(94,621,o),
(104,619,c),
(193,619,o),
(183,575,o),
(173,527,c),
(88,125,l),
(71,45,o),
(51,26,o),
(-10,23,c),
(-13,23,o),
(-17,18,o),
(-19,10,c),
(-20,4,o),
(-17,-2,o),
(-12,-2,c)
);
}
);
width = 564;
}
);
unicode = 80;
},
{
glyphname = Thorn;
lastChange = "2023-05-15 06:06:58 +0000";
layers = (
{
hints = (
{
horizontal = 1;
place = (-4, 30);
place = (-4, 30);
type = Stem;
},
{
horizontal = 1;
place = (124, 25);
place = (124, 25);
type = Stem;
},
{
horizontal = 1;
place = (490, 30);
place = (490, 30);
type = Stem;
},
{
horizontal = 1;
place = (624, 25);
place = (624, 25);
type = Stem;
},
{
place = (510, 90);
place = (510, 90);
type = Stem;
}
);
layerId = m01;
shapes = (
{
closed = 1;
nodes = (
(115,-1,o),
(219,-2,o),
(282,-4,c),
(302,-5,o),
(300,1,o),
(303,13,c),
(305,23,o),
(306,26,o),
(289,26,c),
(218,26,o),
(213,55,o),
(224,112,c),
(297,475,l),
(302,485,o),
(309,490,o),
(328,490,c),
(365,490,o),
(405,492,o),
(441,479,c),
(483,464,o),
(510,416,o),
(510,355,c),
(510,311,o),
(497,265,o),
(474,230,c),
(439,175,o),
(388,149,o),
(314,149,c),
(292,149,o),
(284,160,o),
(280,141,c),
(275,119,o),
(315,124,o),
(333,124,c),
(465,124,o),
(600,187,o),
(600,341,c),
(600,399,o),
(577,446,o),
(534,479,c),
(491,511,o),
(450,520,o),
(357,520,c),
(323,520,o),
(304,517,o),
(310,544,c),
(323,597,o),
(345,620,o),
(397,624,c),
(403,626,o),
(405,628,o),
(406,634,c),
(409,642,o),
(407,652,o),
(395,649,c),
(293,646,o),
(220,649,o),
(175,649,c),
(166,650,o),
(157,648,o),
(155,638,c),
(154,630,o),
(155,623,o),
(167,623,c),
(207,623,o),
(229,606,o),
(229,577,c),
(229,568,o),
(227,555,o),
(223,533,c),
(142,125,l),
(128,57,o),
(113,34,o),
(72,27,c),
(49,23,o),
(51,31,o),
(47,13,c),
(45,4,o),
(43,-4,o),
(55,-4,c)
);
}
);
width = 573;
}
);
unicode = 222;
},
{
glyphname = Q;
lastChange = "2023-05-15 06:06:58 +0000";
layers = (
{
hints = (
{
horizontal = 1;
place = (633, 29);
place = (633, 29);
type = Stem;
},
{
horizontal = 1;
place = (-202, 21);
target = up;
type = BottomGhost;
},
{
place = (62, 99);
place = (62, 99);
type = Stem;
},
{
place = (679, 99);
place = (679, 99);
type = Stem;
}
);
layerId = m01;
shapes = (
{
closed = 1;
nodes = (
(719,-202,o),
(751,-184,o),
(784,-156,c),
(790,-151,o),
(778,-131,o),
(768,-139,c),
(739,-153,o),
(714,-156,o),
(670,-145,c),
(629,-134,o),
(527,-61,o),
(494,-38,c),
(481,-29,o),
(473,-24,o),
(468,-21,c),
(461,-15,o),
(469,-12,o),
(474,-11,c),
(661,25,o),
(778,182,o),
(778,358,c),
(778,531,o),
(648,662,o),
(458,662,c),
(239,662,o),
(62,488,o),
(62,287,c),
(62,147,o),
(165,19,o),
(305,-11,c),
(311,-12,o),
(332,-27,o),
(337,-31,c),
(426,-89,o),
(553,-202,o),
(663,-202,c)
);
},
{
closed = 1;
nodes = (
(248,11,o),
(161,109,o),
(161,261,c),
(161,369,o),
(206,482,o),
(278,555,c),
(329,606,o),
(388,633,o),
(467,633,c),
(599,633,o),
(679,532,o),
(679,388,c),
(679,176,o),
(565,11,o),
(387,11,c)
);
}
);
width = 798;
}
);
unicode = 81;
},
{
glyphname = R;
lastChange = "2023-05-15 06:06:58 +0000";
layers = (
{
hints = (
{
horizontal = 1;
place = (619, 27);
place = (619, 27);
type = Stem;
},
{
horizontal = 1;
place = (-12, 36);
place = (-12, 36);
type = Stem;
},
{
horizontal = 1;
place = (278, 30);
place = (278, 30);
type = Stem;
},
{
horizontal = 1;
place = (647, -20);
target = down;
type = TopGhost;
},
{
horizontal = 1;
place = (-2, 21);
target = up;
type = BottomGhost;
}
);
layerId = m01;
shapes = (
{
closed = 1;
nodes = (
(635,-12,o),
(649,-7,o),
(657,-4,c),
(662,-2,o),
(666,15,o),
(656,15,c),
(625,15,o),
(594,26,o),
(569,46,c),
(537,71,o),
(513,96,o),
(487,147,c),
(470,181,o),
(455,214,o),
(440,248,c),
(433,262,o),
(426,275,o),
(417,288,c),
(413,294,o),
(417,297,o),
(422,298,c),
(535,322,o),
(607,392,o),
(607,486,c),
(607,583,o),
(528,645,o),
(411,646,c),
(344,646,o),
(215,644,o),
(147,647,c),
(141,647,o),
(132,645,o),
(130,633,c),
(127,619,o),
(142,619,o),
(153,619,c),
(221,619,o),
(224,584,o),
(213,533,c),
(123,113,l),
(107,40,o),
(88,24,o),
(20,24,c),
(12,24,l),
(2,25,o),
(-7,-3,o),
(6,-2,c),
(59,1,o),
(207,1,o),
(285,-2,c),
(293,-2,o),
(299,1,o),
(300,5,c),
(305,22,o),
(299,23,o),
(282,23,c),
(207,23,o),
(202,53,o),
(214,112,c),
(245,263,l),
(247,271,o),
(253,278,o),
(261,278,c),
(284,278,o),
(302,279,o),
(327,281,c),
(341,253,o),
(344,247,o),
(366,195,c),
(381,159,o),
(392,120,o),
(413,86,c),
(467,2,o),
(527,-12,o),
(622,-12,c)
);
},
{
closed = 1;
nodes = (
(264,308,o),
(256,314,o),
(257,318,c),
(316,597,l),
(317,603,o),
(326,615,o),
(341,615,c),
(385,615,o),
(437,615,o),
(474,585,c),
(550,524,o),
(503,390,o),
(428,346,c),
(408,334,o),
(387,322,o),
(364,316,c),
(340,309,o),
(323,308,o),
(272,308,c)
);
}
);
width = 624;
}
);
unicode = 82;
},
{
glyphname = S;
lastChange = "2023-05-15 06:06:58 +0000";
layers = (
{
hints = (
{
horizontal = 1;
place = (-18, 30);
place = (-18, 30);
type = Stem;
},
{
horizontal = 1;
place = (623, 30);
place = (623, 30);
type = Stem;
},
{
place = (68, 60);
place = (68, 60);
type = Stem;
},
{
place = (200, 195);
place = (200, 195);
type = Stem;
},
{
place = (395, 76);
place = (395, 76);
type = Stem;
},
{
place = (128, 72);
place = (128, 72);
type = Stem;
}
);
layerId = m01;
shapes = (
{
closed = 1;
nodes = (
(380,-18,o),
(471,59,o),
(471,168,c),
(471,215,o),
(446,263,o),
(413,296,c),
(348,361,o),
(200,426,o),
(200,523,c),
(200,582,o),
(246,623,o),
(328,623,c),
(420,623,o),
(463,571,o),
(463,476,c),
(463,471,o),
(470,470,o),
(475,470,c),
(480,470,o),
(487,471,o),
(487,476,c),
(493,535,o),
(506,625,o),
(510,646,c),
(511,649,o),
(506,651,o),
(500,652,c),
(494,653,o),
(487,651,o),
(485,647,c),
(476,638,o),
(465,633,o),
(453,633,c),
(412,633,o),
(373,653,o),
(328,653,c),
(211,653,o),
(128,578,o),
(128,484,c),
(128,310,o),
(395,272,o),
(395,131,c),
(395,60,o),
(338,12,o),
(240,12,c),
(127,12,o),
(68,72,o),
(68,172,c),
(68,179,o),
(69,183,o),
(69,195,c),
(71,207,o),
(50,209,o),
(47,196,c),
(15,69,l),
(14,64,o),
(14,48,o),
(19,45,c),
(89,5,o),
(165,-18,o),
(236,-18,c)
);
}
);
width = 517;
}
);
unicode = 83;
},
{
glyphname = Scaron;
lastChange = "2023-05-15 06:06:58 +0000";
layers = (
{
hints = (
{
horizontal = 1;
place = (-18, 30);
place = (-18, 30);
type = Stem;
},
{
horizontal = 1;
place = (623, 30);
place = (623, 30);
type = Stem;
},
{
horizontal = 1;
place = (653, 37);
place = (653, 37);
type = Stem;
},
{
horizontal = 1;
place = (853, -20);
target = down;
type = TopGhost;
},
{
place = (68, 60);
place = (68, 60);
type = Stem;
},
{
place = (200, 195);
place = (200, 195);
type = Stem;
},
{
place = (395, 76);
place = (395, 76);
type = Stem;
},
{
place = (128, 72);
place = (128, 72);
type = Stem;
}
);
layerId = m01;
shapes = (
{
closed = 1;
nodes = (
(380,-18,o),
(471,59,o),
(471,168,c),
(471,215,o),
(446,263,o),
(413,296,c),
(348,361,o),
(200,426,o),
(200,523,c),
(200,582,o),
(246,623,o),
(328,623,c),
(420,623,o),
(463,571,o),
(463,476,c),
(463,471,o),
(470,470,o),
(475,470,c),
(480,470,o),
(487,471,o),
(487,476,c),
(493,535,o),
(506,625,o),
(510,646,c),
(511,649,o),
(506,651,o),
(500,652,c),
(494,653,o),
(487,651,o),
(485,647,c),
(476,637,o),
(465,633,o),
(453,633,c),
(412,633,o),
(373,653,o),
(328,653,c),
(211,653,o),
(128,578,o),
(128,484,c),
(128,310,o),
(395,272,o),
(395,131,c),
(395,60,o),
(338,12,o),
(240,12,c),
(127,12,o),
(68,72,o),
(68,172,c),
(68,179,o),
(69,183,o),
(69,194,c),
(71,207,o),
(50,209,o),
(47,196,c),
(15,69,l),
(14,64,o),
(14,48,o),
(19,45,c),
(89,5,o),
(165,-18,o),
(236,-18,c)
);
},
{
closed = 1;
nodes = (
(376,690,l),
(534,853,l),
(516,853,l),
(359,751,l),
(275,853,l),
(262,853,l),
(300,690,l)
);
}
);
width = 540;
}
);
unicode = 352;
},
{
glyphname = T;
lastChange = "2023-05-15 06:06:58 +0000";
layers = (
{
hints = (
{
horizontal = 1;
place = (680, -20);
target = down;
type = TopGhost;
},
{
horizontal = 1;
place = (612, 34);
place = (612, 34);
type = Stem;
},
{
horizontal = 1;
place = (-2, 29);
place = (-2, 29);
type = Stem;
},
{
horizontal = 1;
place = (679, -20);
target = down;
type = TopGhost;
}
);
layerId = m01;
shapes = (
{
closed = 1;
nodes = (
(214,0,o),
(361,0,o),
(434,-2,c),
(439,-2,o),
(445,5,o),
(446,13,c),
(447,19,o),
(444,26,o),
(439,26,c),
(424,26,o),
(409,26,o),
(398,27,c),
(346,31,o),
(336,49,o),
(349,112,c),
(451,596,l),
(453,604,o),
(460,611,o),
(468,612,c),
(597,612,l),
(637,612,o),
(656,602,o),
(665,583,c),
(670,573,o),
(672,561,o),
(674,548,c),
(675,535,o),
(675,520,o),
(675,504,c),
(676,494,o),
(696,495,o),
(699,504,c),
(706,551,o),
(723,638,o),
(734,674,c),
(735,677,o),
(729,680,o),
(724,680,c),
(720,680,o),
(714,678,o),
(712,675,c),
(686,650,o),
(672,646,o),
(599,646,c),
(200,646,l),
(160,646,o),
(148,651,o),
(130,674,c),
(129,679,o),
(123,679,o),
(120,679,c),
(114,679,o),
(109,677,o),
(108,674,c),
(103,634,o),
(83,549,o),
(72,507,c),
(70,503,o),
(74,497,o),
(80,495,c),
(86,494,o),
(93,499,o),
(94,502,c),
(114,547,o),
(125,569,o),
(150,589,c),
(174,608,o),
(204,612,o),
(254,612,c),
(349,612,l),
(353,612,o),
(366,611,o),
(362,591,c),
(258,113,l),
(244,48,o),
(231,30,o),
(178,27,c),
(168,26,o),
(160,26,o),
(146,26,c),
(133,26,o),
(125,-2,o),
(138,-2,c)
);
}
);
width = 630;
}
);
unicode = 84;
},
{
glyphname = U;
lastChange = "2023-05-15 06:06:58 +0000";
layers = (
{
hints = (
{
horizontal = 1;
place = (-18, 30);
place = (-18, 30);
type = Stem;
},
{
horizontal = 1;
place = (621, 26);
place = (621, 26);
type = Stem;
}
);
layerId = m01;
shapes = (
{
closed = 1;
nodes = (
(447,-18,o),
(539,17,o),
(595,109,c),
(618,147,o),
(629,175,o),
(640,236,c),
(691,510,l),
(708,602,o),
(732,614,o),
(790,621,c),
(796,620,o),
(802,625,o),
(804,633,c),
(804,639,o),
(803,649,o),
(795,648,c),
(721,642,o),
(621,646,o),
(573,647,c),
(569,648,o),
(565,643,o),
(563,635,c),
(562,628,o),
(562,621,o),
(568,621,c),
(651,621,o),
(670,593,o),
(656,517,c),
(605,246,l),
(579,110,o),
(518,12,o),
(355,12,c),
(235,12,o),
(166,74,o),
(166,167,c),
(166,194,o),
(170,228,o),
(178,266,c),
(235,532,l),
(251,609,o),
(265,623,o),
(333,620,c),
(344,619,o),
(351,621,o),
(351,634,c),
(352,640,o),
(347,647,o),
(339,647,c),
(268,644,o),
(136,644,o),
(73,647,c),
(68,648,o),
(61,643,o),
(59,636,c),
(58,630,o),
(63,621,o),
(68,621,c),
(85,621,l),
(157,621,o),
(154,580,o),
(143,528,c),
(88,270,l),
(74,202,o),
(66,146,o),
(107,83,c),
(152,15,o),
(220,-18,o),
(338,-18,c)
);
}
);
width = 740;
}
);
unicode = 85;
},
{
glyphname = Uacute;
lastChange = "2023-05-15 06:06:58 +0000";
layers = (
{
hints = (
{
horizontal = 1;
place = (-18, 30);
place = (-18, 30);
type = Stem;
},
{
horizontal = 1;
place = (621, 26);
place = (621, 26);
type = Stem;
}
);
layerId = m01;
shapes = (
{
closed = 1;
nodes = (
(447,-18,o),
(539,17,o),
(595,109,c),
(618,147,o),
(629,175,o),
(640,236,c),
(691,510,l),
(708,602,o),
(732,614,o),
(790,621,c),
(796,620,o),
(802,625,o),
(803,633,c),
(804,639,o),
(803,649,o),
(795,648,c),
(721,642,o),
(621,646,o),
(573,647,c),
(569,648,o),
(565,643,o),
(563,635,c),
(562,628,o),
(562,621,o),
(568,621,c),
(651,621,o),
(670,593,o),
(656,517,c),
(605,246,l),
(579,110,o),
(518,12,o),
(355,12,c),
(235,12,o),
(166,74,o),
(166,167,c),
(166,194,o),
(170,228,o),
(178,266,c),
(235,532,l),
(251,609,o),
(265,623,o),
(333,620,c),
(344,619,o),
(351,621,o),
(351,634,c),
(352,640,o),
(346,647,o),
(339,647,c),
(268,644,o),
(136,644,o),
(73,647,c),
(68,647,o),
(61,643,o),
(59,636,c),
(58,630,o),
(63,621,o),
(68,621,c),
(85,621,l),
(157,621,o),
(154,580,o),
(143,528,c),
(88,270,l),
(74,202,o),
(66,146,o),
(107,83,c),
(152,15,o),
(220,-18,o),
(338,-18,c)
);
},
{
closed = 1;
nodes = (
(514,753,o),
(577,822,o),
(606,863,c),
(614,874,o),
(603,878,o),
(595,877,c),
(578,879,o),
(548,878,o),
(530,877,c),
(520,877,o),
(514,875,o),
(511,867,c),
(507,842,o),
(480,757,o),
(469,722,c),
(466,713,o),
(478,712,o),
(484,718,c)
);
}
);
width = 740;
}
);
unicode = 218;
},
{
glyphname = Ucircumflex;
lastChange = "2023-05-15 06:06:58 +0000";
layers = (
{
hints = (
{
horizontal = 1;
place = (-18, 30);
place = (-18, 30);
type = Stem;
},
{
horizontal = 1;
place = (621, 26);
place = (621, 26);
type = Stem;
}
);
layerId = m01;
shapes = (
{
closed = 1;
nodes = (
(447,-18,o),
(539,17,o),
(595,109,c),
(618,147,o),
(629,175,o),
(640,236,c),
(691,510,l),
(708,602,o),
(732,614,o),
(790,621,c),
(796,620,o),
(802,625,o),
(803,633,c),
(804,639,o),
(803,649,o),
(795,648,c),
(721,642,o),
(621,646,o),
(573,647,c),
(569,648,o),
(565,643,o),
(563,635,c),
(562,628,o),
(562,621,o),
(568,621,c),
(651,621,o),
(670,593,o),
(656,517,c),
(605,246,l),
(579,110,o),
(518,12,o),
(355,12,c),
(235,12,o),
(166,74,o),
(166,167,c),
(166,194,o),
(170,228,o),
(178,266,c),
(235,532,l),
(251,609,o),
(265,623,o),
(333,620,c),
(344,619,o),
(351,621,o),
(351,634,c),
(352,640,o),
(346,647,o),
(339,647,c),
(268,644,o),
(136,644,o),
(73,647,c),
(68,647,o),
(61,643,o),
(59,636,c),
(58,630,o),
(63,621,o),
(68,621,c),
(85,621,l),
(157,621,o),
(154,580,o),
(143,528,c),
(88,270,l),
(74,202,o),
(66,146,o),
(107,83,c),
(152,15,o),
(220,-18,o),
(338,-18,c)
);
},
{
closed = 1;
nodes = (
(348,702,l),
(497,798,l),
(502,801,o),
(507,800,o),
(510,797,c),
(588,702,l),
(594,702,l),
(601,702,o),
(601,706,o),
(600,712,c),
(566,849,l),
(563,860,o),
(557,863,o),
(548,863,c),
(537,864,o),
(515,866,o),
(504,864,c),
(496,864,o),
(488,863,o),
(481,856,c),
(336,709,l),
(333,706,o),
(332,703,o),
(336,702,c)
);
}
);
width = 740;
}
);
unicode = 219;
},
{
glyphname = Udieresis;
lastChange = "2023-05-15 06:06:58 +0000";
layers = (
{
hints = (
{
place = (507, 104);
place = (507, 104);
type = Stem;
},
{
horizontal = 1;
place = (702, 107);
place = (702, 107);
type = Stem;
},
{
place = (340, 103);
place = (340, 103);
type = Stem;
},
{
horizontal = 1;
place = (-18, 30);
place = (-18, 30);
type = Stem;
},
{
horizontal = 1;
place = (621, 26);
place = (621, 26);
type = Stem;
},
{
horizontal = 1;
place = (808, -20);
target = down;
type = TopGhost;
}
);
layerId = m01;
shapes = (
{
closed = 1;
nodes = (
(447,-18,o),
(539,17,o),
(595,109,c),
(618,147,o),
(629,175,o),
(640,236,c),
(691,510,l),
(708,602,o),
(732,614,o),
(790,621,c),
(796,620,o),
(802,625,o),
(803,633,c),
(804,639,o),
(803,649,o),
(795,648,c),
(721,642,o),
(621,646,o),
(573,647,c),
(569,648,o),
(565,643,o),
(563,635,c),
(562,628,o),
(562,621,o),
(568,621,c),
(651,621,o),
(670,593,o),
(656,517,c),
(605,246,l),
(579,110,o),
(518,12,o),
(355,12,c),
(235,12,o),
(166,74,o),
(166,167,c),
(166,194,o),
(170,228,o),
(178,266,c),
(235,532,l),
(251,609,o),
(265,623,o),
(333,620,c),
(344,619,o),
(351,621,o),
(351,634,c),
(352,640,o),
(346,647,o),
(339,647,c),
(268,644,o),
(136,644,o),
(73,647,c),
(68,647,o),
(61,643,o),
(59,636,c),
(58,630,o),
(63,621,o),
(68,621,c),
(85,621,l),
(157,621,o),
(154,580,o),
(143,528,c),
(88,270,l),
(74,202,o),
(66,146,o),
(107,83,c),
(152,15,o),
(220,-18,o),
(338,-18,c)
);
},
{
closed = 1;
nodes = (
(419,702,o),
(443,727,o),
(443,755,c),
(443,785,o),
(419,808,o),
(392,808,c),
(363,808,o),
(340,785,o),
(340,755,c),
(340,727,o),
(363,702,o),
(392,702,c)
);
},
{
closed = 1;
nodes = (
(588,702,o),
(611,727,o),
(611,756,c),
(611,786,o),
(588,809,o),
(559,809,c),
(531,809,o),
(507,786,o),
(507,756,c),
(507,727,o),
(531,702,o),
(559,702,c)
);
}
);
width = 740;
}
);
unicode = 220;
},
{
glyphname = Ugrave;
lastChange = "2023-05-15 06:06:58 +0000";
layers = (
{
hints = (
{
horizontal = 1;
place = (-18, 30);
place = (-18, 30);
type = Stem;
},
{
horizontal = 1;
place = (621, 26);
place = (621, 26);
type = Stem;
},
{
horizontal = 1;
place = (876, -20);
target = down;
type = TopGhost;
}
);
layerId = m01;
shapes = (
{
closed = 1;
nodes = (
(447,-18,o),
(539,17,o),
(595,109,c),
(618,147,o),
(629,175,o),
(640,236,c),
(691,510,l),
(708,602,o),
(732,614,o),
(790,621,c),
(796,620,o),
(802,625,o),
(803,633,c),
(804,639,o),
(803,649,o),
(795,648,c),
(721,642,o),
(621,646,o),
(573,647,c),
(569,648,o),
(565,643,o),
(563,635,c),
(562,628,o),
(562,621,o),
(568,621,c),
(651,621,o),
(670,593,o),
(656,517,c),
(605,246,l),
(579,110,o),
(518,12,o),
(355,12,c),
(235,12,o),
(166,74,o),
(166,167,c),
(166,194,o),
(170,228,o),
(178,266,c),
(235,532,l),
(251,609,o),
(265,623,o),
(333,620,c),
(344,619,o),
(351,621,o),
(351,634,c),
(352,640,o),
(346,647,o),
(339,647,c),
(268,644,o),
(136,644,o),
(73,647,c),
(68,647,o),
(61,643,o),
(59,636,c),
(58,630,o),
(63,621,o),
(68,621,c),
(85,621,l),
(157,621,o),
(154,580,o),
(143,528,c),
(88,270,l),
(74,202,o),
(66,146,o),
(107,83,c),
(152,15,o),
(220,-18,o),
(338,-18,c)
);
},
{
closed = 1;
nodes = (
(504,713,o),
(506,715,o),
(505,718,c),
(457,870,l),
(457,871,o),
(456,872,o),
(456,873,c),
(453,877,o),
(448,876,o),
(444,876,c),
(370,876,l),
(364,876,o),
(357,872,o),
(364,863,c),
(487,717,l),
(490,714,o),
(494,713,o),
(498,713,c)
);
}
);
width = 740;
}
);
unicode = 217;
},
{
glyphname = V;
lastChange = "2023-05-15 06:06:58 +0000";
layers = (
{
hints = (
{
horizontal = 1;
place = (620, 27);
place = (620, 27);
type = Stem;
},
{
horizontal = 1;
place = (-22, 21);
target = up;
type = BottomGhost;
},
{
place = (119, 89);
place = (119, 89);
type = Stem;
}
);
layerId = m01;
shapes = (
{
closed = 1;
nodes = (
(135,-22,o),
(146,-19,o),
(148,-16,c),
(617,529,l),
(660,579,o),
(689,608,o),
(733,622,c),
(745,623,o),
(747,647,o),
(738,647,c),
(662,645,o),
(617,645,o),
(537,647,c),
(532,647,o),
(527,643,o),
(526,635,c),
(526,628,o),
(529,622,o),
(535,622,c),
(542,620,o),
(545,620,o),
(553,619,c),
(575,618,o),
(599,618,o),
(599,587,c),
(599,570,o),
(591,554,o),
(559,517,c),
(211,107,l),
(197,90,o),
(195,98,o),
(196,113,c),
(221,533,l),
(224,582,o),
(236,613,o),
(272,619,c),
(287,622,o),
(305,619,o),
(315,620,c),
(329,620,o),
(332,647,o),
(323,647,c),
(257,644,o),
(180,644,o),
(64,647,c),
(53,647,o),
(50,618,o),
(60,620,c),
(65,620,l),
(128,620,o),
(136,587,o),
(133,533,c),
(106,-5,l),
(106,-14,o),
(114,-22,o),
(123,-22,c)
);
}
);
width = 639;
}
);
unicode = 86;
},
{
glyphname = W;
lastChange = "2023-05-15 06:06:58 +0000";
layers = (
{
hints = (
{
place = (481, 92);
place = (481, 92);
type = Stem;
},
{
horizontal = 1;
place = (620, 27);
place = (620, 27);
type = Stem;
},
{
horizontal = 1;
place = (-15, 21);
target = up;
type = BottomGhost;
},
{
place = (498, 74);
place = (498, 74);
type = Stem;
},
{
place = (498, 90);
place = (498, 90);
type = Stem;
}
);
layerId = m01;
shapes = (
{
closed = 1;
nodes = (
(94,-17,o),
(108,-16,o),
(112,-15,c),
(119,-15,o),
(125,-7,o),
(127,-5,c),
(487,457,l),
(497,467,o),
(497,454,o),
(497,449,c),
(465,-5,l),
(465,-10,o),
(472,-12,o),
(477,-14,c),
(481,-16,o),
(491,-15,o),
(497,-15,c),
(509,-15,o),
(515,-7,o),
(518,-3,c),
(906,536,l),
(947,593,o),
(973,614,o),
(1006,622,c),
(1010,622,o),
(1014,628,o),
(1015,635,c),
(1017,640,o),
(1017,647,o),
(1011,647,c),
(944,643,o),
(856,646,o),
(815,647,c),
(811,647,o),
(805,643,o),
(803,634,c),
(802,628,o),
(806,620,o),
(812,620,c),
(826,620,o),
(841,620,o),
(855,616,c),
(902,601,o),
(868,544,o),
(851,520,c),
(572,124,l),
(561,108,o),
(558,116,o),
(559,130,c),
(588,538,l),
(593,607,o),
(595,612,o),
(670,620,c),
(677,620,o),
(686,647,o),
(675,647,c),
(610,645,o),
(485,645,o),
(425,647,c),
(417,647,o),
(412,619,o),
(423,620,c),
(486,618,o),
(498,610,o),
(498,563,c),
(498,526,l),
(183,122,l),
(169,104,o),
(168,115,o),
(170,130,c),
(211,525,l),
(219,600,o),
(227,612,o),
(295,620,c),
(299,620,o),
(305,627,o),
(306,633,c),
(307,640,o),
(304,648,o),
(297,647,c),
(232,645,o),
(114,645,o),
(58,647,c),
(52,647,o),
(47,641,o),
(46,636,c),
(44,627,o),
(48,621,o),
(55,621,c),
(64,619,o),
(80,618,o),
(89,618,c),
(109,617,o),
(126,611,o),
(126,561,c),
(126,555,o),
(126,549,o),
(125,542,c),
(79,-6,l),
(78,-12,o),
(84,-14,o),
(90,-16,c)
);
}
);
width = 892;
}
);
unicode = 87;
},
{
glyphname = X;
lastChange = "2023-05-15 06:06:58 +0000";
layers = (
{
hints = (
{
horizontal = 1;
place = (622, 24);
place = (622, 24);
type = Stem;
},
{
horizontal = 1;
place = (-1, 22);
place = (-1, 22);
type = Stem;
},
{
horizontal = 1;
place = (-2, 21);
target = up;
type = BottomGhost;
}
);
layerId = m01;
shapes = (
{
closed = 1;
nodes = (
(239,-3,o),
(243,19,o),
(237,21,c),
(160,26,o),
(132,47,o),
(199,114,c),
(377,293,l),
(385,302,o),
(392,294,o),
(398,285,c),
(507,80,l),
(535,27,o),
(502,23,o),
(446,21,c),
(442,22,o),
(438,16,o),
(437,12,c),
(436,7,o),
(436,-3,o),
(450,-2,c),
(511,0,o),
(635,0,o),
(702,-2,c),
(707,-2,o),
(715,18,o),
(706,19,c),
(643,28,o),
(628,37,o),
(591,105,c),
(454,358,l),
(452,362,o),
(453,371,o),
(457,374,c),
(619,541,l),
(673,597,o),
(717,616,o),
(778,624,c),
(782,624,o),
(787,630,o),
(788,637,c),
(788,643,o),
(789,646,o),
(778,646,c),
(703,643,o),
(605,644,o),
(538,646,c),
(529,646,o),
(523,621,o),
(535,622,c),
(592,620,o),
(608,612,o),
(608,591,c),
(608,578,o),
(600,566,o),
(582,548,c),
(444,405,l),
(436,399,o),
(433,395,o),
(428,404,c),
(351,557,l),
(345,568,o),
(337,580,o),
(337,593,c),
(337,615,o),
(352,621,o),
(410,622,c),
(414,622,o),
(417,628,o),
(418,634,c),
(419,640,o),
(415,646,o),
(409,646,c),
(354,645,o),
(228,644,o),
(133,646,c),
(131,646,o),
(124,643,o),
(122,636,c),
(122,630,o),
(123,622,o),
(127,622,c),
(196,620,o),
(221,610,o),
(244,568,c),
(367,342,l),
(369,333,o),
(367,328,o),
(363,322,c),
(130,89,l),
(75,34,o),
(78,33,o),
(-4,22,c),
(-8,22,o),
(-11,16,o),
(-12,9,c),
(-13,3,o),
(-13,-2,o),
(-2,-1,c),
(64,2,o),
(174,-1,o),
(232,-2,c)
);
}
);
width = 704;
}
);
unicode = 88;
},
{
glyphname = Y;
lastChange = "2023-05-15 06:06:58 +0000";
layers = (
{
hints = (
{
horizontal = 1;
place = (-2, 30);
place = (-2, 30);
type = Stem;
},
{
horizontal = 1;
place = (622, 24);
place = (622, 24);
type = Stem;
}
);
layerId = m01;
shapes = (
{
closed = 1;
nodes = (
(248,0,o),
(388,0,o),
(464,-2,c),
(469,-2,o),
(479,25,o),
(469,27,c),
(462,29,o),
(449,28,o),
(441,28,c),
(369,26,o),
(362,50,o),
(375,112,c),
(406,262,l),
(660,554,l),
(701,602,o),
(714,609,o),
(756,625,c),
(757,626,o),
(760,629,o),
(762,638,c),
(763,643,o),
(757,646,o),
(752,646,c),
(689,642,o),
(638,643,o),
(575,646,c),
(565,648,o),
(558,624,o),
(567,622,c),
(610,620,o),
(629,610,o),
(629,590,c),
(629,575,o),
(620,564,o),
(590,529,c),
(406,315,l),
(393,299,o),
(393,307,o),
(390,315,c),
(288,548,l),
(259,615,o),
(270,617,o),
(329,622,c),
(332,622,o),
(334,629,o),
(335,634,c),
(338,642,o),
(334,645,o),
(328,646,c),
(276,644,o),
(176,643,o),
(114,646,c),
(108,646,o),
(104,641,o),
(103,635,c),
(101,625,o),
(103,622,o),
(113,622,c),
(149,620,o),
(166,608,o),
(191,550,c),
(317,263,l),
(285,113,l),
(276,72,o),
(266,52,o),
(250,41,c),
(230,28,o),
(193,28,o),
(170,27,c),
(160,26,o),
(153,0,o),
(162,-2,c)
);
}
);
width = 639;
}
);
unicode = 89;
},
{
glyphname = Yacute;
lastChange = "2023-05-15 06:06:58 +0000";
layers = (
{
hints = (
{
horizontal = 1;
place = (-2, 30);
place = (-2, 30);
type = Stem;
},
{
horizontal = 1;
place = (622, 24);
place = (622, 24);
type = Stem;
}
);
layerId = m01;
shapes = (
{
closed = 1;
nodes = (
(248,0,o),
(388,0,o),
(464,-2,c),
(469,-2,o),
(479,25,o),
(469,27,c),
(462,29,o),
(449,28,o),
(441,28,c),
(369,26,o),
(362,50,o),
(375,112,c),
(406,262,l),
(660,554,l),
(701,602,o),
(714,609,o),
(756,625,c),
(757,626,o),
(760,629,o),
(762,638,c),
(763,643,o),
(757,646,o),
(752,646,c),
(688,642,o),
(638,643,o),
(575,646,c),
(565,648,o),
(558,624,o),
(567,622,c),
(610,620,o),
(629,610,o),
(629,590,c),
(629,575,o),
(620,564,o),
(590,529,c),
(406,315,l),
(393,299,o),
(393,307,o),
(390,315,c),
(288,548,l),
(259,615,o),
(270,617,o),
(329,622,c),
(332,622,o),
(334,629,o),
(335,634,c),
(338,642,o),
(334,644,o),
(328,646,c),
(276,644,o),
(176,643,o),
(114,646,c),
(108,646,o),
(104,641,o),
(103,635,c),
(101,625,o),
(103,622,o),
(112,622,c),
(149,620,o),
(166,608,o),
(191,550,c),
(317,263,l),
(285,113,l),
(276,72,o),
(266,52,o),
(250,41,c),
(230,28,o),
(193,28,o),
(170,27,c),
(160,26,o),
(153,0,o),
(162,-2,c)
);
},
{
closed = 1;
nodes = (
(471,753,o),
(534,822,o),
(563,863,c),
(571,874,o),
(560,878,o),
(552,877,c),
(535,879,o),
(505,878,o),
(487,877,c),
(477,877,o),
(471,875,o),
(468,867,c),
(464,842,o),
(437,757,o),
(426,722,c),
(423,713,o),
(435,712,o),
(441,718,c)
);
}
);
width = 639;
}
);
unicode = 221;
},
{
glyphname = Ydieresis;
lastChange = "2023-05-15 06:06:58 +0000";
layers = (
{
hints = (
{
place = (504, 104);
place = (504, 104);
type = Stem;
},
{
horizontal = 1;
place = (702, 107);
place = (702, 107);
type = Stem;
},
{
place = (337, 103);
place = (337, 103);
type = Stem;
},
{
horizontal = 1;
place = (-2, 30);
place = (-2, 30);
type = Stem;
},
{
horizontal = 1;
place = (622, 24);
place = (622, 24);
type = Stem;
},
{
horizontal = 1;
place = (808, -20);
target = down;
type = TopGhost;
}
);
layerId = m01;
shapes = (
{
closed = 1;
nodes = (
(248,0,o),
(388,0,o),
(464,-2,c),
(469,-2,o),
(479,25,o),
(469,27,c),
(462,29,o),
(449,28,o),
(441,28,c),
(369,26,o),
(362,50,o),
(375,112,c),
(406,262,l),
(660,554,l),
(701,602,o),
(714,609,o),
(756,625,c),
(757,626,o),
(760,629,o),
(762,638,c),
(763,643,o),
(757,646,o),
(752,646,c),
(688,642,o),
(638,643,o),
(575,646,c),
(565,648,o),
(558,624,o),
(567,622,c),
(610,620,o),
(629,610,o),
(629,590,c),
(629,575,o),
(620,564,o),
(590,529,c),
(406,315,l),
(393,299,o),
(393,307,o),
(390,315,c),
(288,548,l),
(259,615,o),
(270,617,o),
(329,622,c),
(332,622,o),
(334,629,o),
(335,634,c),
(338,642,o),
(334,644,o),
(328,646,c),
(276,644,o),
(176,643,o),
(114,646,c),
(108,646,o),
(104,641,o),
(103,635,c),
(101,625,o),
(103,622,o),
(112,622,c),
(149,620,o),
(166,608,o),
(191,550,c),
(317,263,l),
(285,113,l),
(276,72,o),
(266,52,o),
(250,41,c),
(230,28,o),
(193,28,o),
(170,27,c),
(160,26,o),
(153,0,o),
(162,-2,c)
);
},
{
closed = 1;
nodes = (
(416,702,o),
(440,727,o),
(440,755,c),
(440,785,o),
(416,808,o),
(389,808,c),
(360,808,o),
(337,785,o),
(337,755,c),
(337,727,o),
(360,702,o),
(389,702,c)
);
},
{
closed = 1;
nodes = (
(585,702,o),
(608,727,o),
(608,756,c),
(608,786,o),
(585,809,o),
(557,809,c),
(528,809,o),
(504,786,o),
(504,756,c),
(504,727,o),
(528,702,o),
(557,702,c)
);
}
);
width = 639;
}
);
unicode = 376;
},
{
glyphname = Z;
lastChange = "2023-05-15 06:06:58 +0000";
layers = (
{
hints = (
{
horizontal = 1;
place = (-2, 34);
place = (-2, 34);
type = Stem;
},
{
horizontal = 1;
place = (613, 33);
place = (613, 33);
type = Stem;
}
);
layerId = m01;
shapes = (
{
closed = 1;
nodes = (
(163,0,o),
(433,0,o),
(584,-2,c),
(593,-2,o),
(604,4,o),
(607,17,c),
(618,58,o),
(640,141,o),
(651,174,c),
(653,181,o),
(652,184,o),
(646,186,c),
(642,187,o),
(634,184,o),
(630,181,c),
(600,131,o),
(578,101,o),
(549,75,c),
(514,44,o),
(478,32,o),
(411,32,c),
(148,32,l),
(135,34,o),
(133,35,o),
(142,44,c),
(299,201,o),
(578,479,o),
(727,622,c),
(731,638,o),
(730,648,o),
(710,646,c),
(582,645,o),
(352,644,o),
(226,646,c),
(220,646,o),
(208,643,o),
(206,634,c),
(202,597,o),
(175,510,o),
(165,472,c),
(165,467,o),
(172,466,o),
(177,466,c),
(182,467,o),
(189,468,o),
(190,471,c),
(229,574,o),
(284,613,o),
(386,613,c),
(580,613,l),
(590,613,o),
(600,613,o),
(586,600,c),
(416,431,o),
(150,165,o),
(2,21,c),
(0,19,o),
(-3,0,o),
(3,-2,c)
);
}
);
width = 687;
}
);
unicode = 90;
},
{
glyphname = Zcaron;
lastChange = "2023-05-15 06:06:58 +0000";
layers = (
{
hints = (
{
horizontal = 1;
place = (-2, 34);
place = (-2, 34);
type = Stem;
},
{
horizontal = 1;
place = (613, 33);
place = (613, 33);
type = Stem;
},
{
horizontal = 1;
place = (853, -20);
target = down;
type = TopGhost;
}
);
layerId = m01;
shapes = (
{
closed = 1;
nodes = (
(163,0,o),
(433,0,o),
(584,-2,c),
(593,-2,o),
(603,4,o),
(607,16,c),
(617,58,o),
(640,141,o),
(651,174,c),
(653,181,o),
(652,184,o),
(646,186,c),
(642,187,o),
(634,184,o),
(630,181,c),
(600,131,o),
(578,101,o),
(549,75,c),
(514,44,o),
(478,32,o),
(411,32,c),
(148,32,l),
(135,34,o),
(133,35,o),
(142,44,c),
(299,201,o),
(578,479,o),
(727,622,c),
(731,638,o),
(730,648,o),
(710,646,c),
(582,645,o),
(352,644,o),
(226,646,c),
(220,646,o),
(208,643,o),
(206,634,c),
(202,597,o),
(175,510,o),
(165,472,c),
(165,467,o),
(172,466,o),
(177,466,c),
(182,467,o),
(189,468,o),
(190,471,c),
(229,574,o),
(284,613,o),
(386,613,c),
(580,613,l),
(590,613,o),
(600,613,o),
(586,600,c),
(416,431,o),
(150,165,o),
(2,21,c),
(0,19,o),
(-3,0,o),
(3,-2,c)
);
},
{
closed = 1;
nodes = (
(496,690,l),
(654,853,l),
(636,853,l),
(479,751,l),
(395,853,l),
(382,853,l),
(420,690,l)
);
}
);
width = 700;
}
);
unicode = 381;
},
{
glyphname = a;
lastChange = "2023-05-15 06:06:58 +0000";
layers = (
{
hints = (
{
horizontal = 1;
place = (428, -20);
target = down;
type = TopGhost;
},
{
horizontal = 1;
place = (-12, 21);
target = up;
type = BottomGhost;
},
{
place = (37, 67);
place = (37, 67);
type = Stem;
}
);
layerId = m01;
shapes = (
{
closed = 1;
nodes = (
(135,-12,o),
(230,89,o),
(253,113,c),
(259,120,o),
(267,125,o),
(264,110,c),
(259,88,o),
(255,66,o),
(254,43,c),
(253,13,o),
(260,-12,o),
(284,-12,c),
(300,-12,o),
(323,7,o),
(345,28,c),
(366,49,o),
(386,72,o),
(396,83,c),
(404,96,o),
(395,112,o),
(386,103,c),
(384,101,o),
(379,96,o),
(373,89,c),
(365,80,o),
(343,57,o),
(332,55,c),
(314,51,o),
(332,114,o),
(333,120,c),
(392,419,l),
(391,427,o),
(389,428,o),
(386,428,c),
(327,427,o),
(277,416,o),
(224,385,c),
(116,322,o),
(37,200,o),
(37,97,c),
(37,41,o),
(65,-12,o),
(99,-12,c)
);
},
{
closed = 1;
nodes = (
(119,46,o),
(104,75,o),
(104,118,c),
(104,207,o),
(141,293,o),
(199,332,c),
(228,352,o),
(261,366,o),
(307,371,c),
(318,372,o),
(315,363,o),
(313,357,c),
(274,164,l),
(256,147,o),
(149,46,o),
(135,46,c)
);
}
);
width = 416;
}
);
unicode = 97;
},
{
glyphname = aacute;
lastChange = "2023-05-15 06:06:58 +0000";
layers = (
{
hints = (
{
horizontal = 1;
place = (658, -20);
target = down;
type = TopGhost;
},
{
horizontal = 1;
place = (428, -20);
target = down;
type = TopGhost;
},
{
horizontal = 1;
place = (-12, 21);
target = up;
type = BottomGhost;
},
{
place = (37, 67);
place = (37, 67);
type = Stem;
}
);
layerId = m01;
shapes = (
{
closed = 1;
nodes = (
(135,-12,o),
(230,89,o),
(253,113,c),
(259,120,o),
(267,125,o),
(264,110,c),
(259,88,o),
(255,66,o),
(254,43,c),
(253,13,o),
(260,-12,o),
(284,-12,c),
(300,-12,o),
(323,7,o),
(345,28,c),
(366,49,o),
(386,72,o),
(396,83,c),
(404,96,o),
(395,112,o),
(386,103,c),
(384,101,o),
(379,96,o),
(373,89,c),
(365,80,o),
(343,57,o),
(332,55,c),
(314,51,o),
(332,114,o),
(333,120,c),
(392,419,l),
(391,427,o),
(389,428,o),
(386,428,c),
(327,427,o),
(277,416,o),
(224,385,c),
(116,322,o),
(37,200,o),
(37,97,c),
(37,41,o),
(65,-12,o),
(99,-12,c)
);
},
{
closed = 1;
nodes = (
(119,46,o),
(104,75,o),
(104,118,c),
(104,207,o),
(141,293,o),
(199,332,c),
(228,352,o),
(261,366,o),
(307,371,c),
(318,372,o),
(315,363,o),
(313,357,c),
(274,164,l),
(256,147,o),
(149,46,o),
(135,46,c)
);
},
{
closed = 1;
nodes = (
(282,534,o),
(345,604,o),
(374,644,c),
(382,655,o),
(371,659,o),
(363,658,c),
(346,660,o),
(315,659,o),
(298,658,c),
(288,658,o),
(282,656,o),
(279,648,c),
(275,623,o),
(248,538,o),
(237,503,c),
(234,494,o),
(246,493,o),
(252,499,c)
);
}
);
width = 416;
}
);
unicode = 225;
},
{
glyphname = acircumflex;
lastChange = "2023-05-15 06:06:58 +0000";
layers = (
{
hints = (
{
horizontal = 1;
place = (428, -20);
target = down;
type = TopGhost;
},
{
horizontal = 1;
place = (-12, 21);
target = up;
type = BottomGhost;
},
{
horizontal = 1;
place = (641, -20);
target = down;
type = TopGhost;
},
{
place = (37, 67);
place = (37, 67);
type = Stem;
}
);
layerId = m01;
shapes = (
{
closed = 1;
nodes = (
(135,-12,o),
(230,89,o),
(253,113,c),
(259,120,o),
(267,125,o),
(264,110,c),
(259,88,o),
(255,66,o),
(254,43,c),
(253,13,o),
(260,-12,o),
(284,-12,c),
(300,-12,o),
(323,7,o),
(345,28,c),
(366,49,o),
(386,72,o),
(396,83,c),
(404,96,o),
(395,112,o),
(386,103,c),
(384,101,o),
(379,96,o),
(373,89,c),
(365,80,o),
(343,57,o),
(332,55,c),
(314,51,o),
(332,114,o),
(333,120,c),
(392,419,l),
(391,427,o),
(389,428,o),
(386,428,c),
(327,427,o),
(277,416,o),
(224,385,c),
(116,322,o),
(37,200,o),
(37,97,c),
(37,41,o),
(65,-12,o),
(99,-12,c)
);
},
{
closed = 1;
nodes = (
(119,46,o),
(104,75,o),
(104,118,c),
(104,207,o),
(141,293,o),
(199,332,c),
(228,352,o),
(261,366,o),
(307,371,c),
(318,372,o),
(315,363,o),
(313,357,c),
(274,164,l),
(256,147,o),
(149,46,o),
(135,46,c)
);
},
{
closed = 1;
nodes = (
(194,478,l),
(343,574,l),
(348,577,o),
(353,577,o),
(356,573,c),
(435,478,l),
(441,478,l),
(447,478,o),
(447,482,o),
(446,488,c),
(412,625,l),
(409,637,o),
(404,639,o),
(394,640,c),
(383,640,o),
(361,642,o),
(350,641,c),
(342,641,o),
(334,639,o),
(328,632,c),
(182,485,l),
(179,482,o),
(178,479,o),
(182,478,c)
);
}
);
width = 416;
}
);
unicode = 226;
},
{
glyphname = adieresis;
lastChange = "2023-05-15 06:06:58 +0000";
layers = (
{
hints = (
{
place = (314, 105);
place = (314, 105);
type = Stem;
},
{
horizontal = 1;
place = (483, 107);
place = (483, 107);
type = Stem;
},
{
place = (148, 104);
place = (148, 104);
type = Stem;
},
{
horizontal = 1;
place = (-12, 65);
place = (-12, 65);
type = Stem;
},
{
place = (37, 65);
place = (37, 65);
type = Stem;
},
{
horizontal = 1;
place = (589, -20);
target = down;
type = TopGhost;
}
);
layerId = m01;
shapes = (
{
closed = 1;
nodes = (
(134,-12,o),
(237,98,o),
(259,122,c),
(260,123,o),
(260,123,o),
(260,123,c),
(260,124,o),
(260,123,o),
(261,123,c),
(260,124,l),
(261,124,o),
(262,125,o),
(264,124,c),
(265,123,o),
(265,121,o),
(262,122,c),
(262,122,o),
(264,121,o),
(265,121,c),
(263,114,o),
(261,102,o),
(258,88,c),
(256,75,o),
(252,59,o),
(252,43,c),
(251,12,o),
(259,-12,o),
(283,-12,c),
(313,-12,o),
(373,60,o),
(394,83,c),
(399,85,o),
(399,92,o),
(394,99,c),
(390,106,o),
(386,106,o),
(383,100,c),
(381,97,o),
(377,92,o),
(371,86,c),
(364,78,o),
(341,53,o),
(330,53,c),
(325,53,o),
(322,57,o),
(322,66,c),
(322,73,o),
(325,90,o),
(331,119,c),
(390,417,l),
(389,426,o),
(387,426,o),
(384,426,c),
(325,425,o),
(276,415,o),
(223,384,c),
(115,321,o),
(37,199,o),
(37,97,c),
(37,41,o),
(64,-12,o),
(98,-12,c)
);
},
{
closed = 1;
nodes = (
(117,43,o),
(102,75,o),
(102,118,c),
(102,206,o),
(139,292,o),
(198,332,c),
(228,352,o),
(261,366,o),
(310,371,c),
(312,371,o),
(314,370,o),
(315,368,c),
(313,358,o),
(275,172,o),
(273,163,c),
(264,154,o),
(233,124,o),
(203,97,c),
(173,70,o),
(142,43,o),
(134,43,c)
);
},
{
closed = 1;
nodes = (
(228,483,o),
(252,507,o),
(252,536,c),
(252,566,o),
(228,589,o),
(200,589,c),
(171,589,o),
(148,566,o),
(148,536,c),
(148,507,o),
(171,483,o),
(200,483,c)
);
},
{
closed = 1;
nodes = (
(396,483,o),
(419,507,o),
(419,537,c),
(419,567,o),
(396,590,o),
(367,590,c),
(338,590,o),
(314,567,o),
(314,537,c),
(314,507,o),
(338,483,o),
(367,483,c)
);
}
);
width = 416;
}
);
unicode = 228;
},
{
glyphname = agrave;
lastChange = "2023-05-15 06:06:58 +0000";
layers = (
{
hints = (
{
horizontal = 1;
place = (657, -20);
target = down;
type = TopGhost;
},
{
horizontal = 1;
place = (428, -20);
target = down;
type = TopGhost;
},
{
horizontal = 1;
place = (-12, 21);
target = up;
type = BottomGhost;
},
{
place = (37, 67);
place = (37, 67);
type = Stem;
}
);
layerId = m01;
shapes = (
{
closed = 1;
nodes = (
(135,-12,o),
(230,89,o),
(253,113,c),
(259,120,o),
(267,125,o),
(264,110,c),
(259,88,o),
(255,66,o),
(254,43,c),
(253,13,o),
(260,-12,o),
(284,-12,c),
(300,-12,o),
(323,7,o),
(345,28,c),
(366,49,o),
(386,72,o),
(396,83,c),
(404,96,o),
(395,112,o),
(386,103,c),
(384,101,o),
(379,96,o),
(373,89,c),
(365,80,o),
(343,57,o),
(332,55,c),
(314,51,o),
(332,114,o),
(333,120,c),
(392,419,l),
(391,427,o),
(389,428,o),
(386,428,c),
(327,427,o),
(277,416,o),
(224,385,c),
(116,322,o),
(37,200,o),
(37,97,c),
(37,41,o),
(65,-12,o),
(99,-12,c)
);
},
{
closed = 1;
nodes = (
(119,46,o),
(104,75,o),
(104,118,c),
(104,207,o),
(141,293,o),
(199,332,c),
(228,352,o),
(261,366,o),
(307,371,c),
(318,372,o),
(315,363,o),
(313,357,c),
(274,164,l),
(256,147,o),
(149,46,o),
(135,46,c)
);
},
{
closed = 1;
nodes = (
(349,494,o),
(352,496,o),
(351,499,c),
(303,651,l),
(302,652,o),
(302,653,o),
(301,654,c),
(299,658,o),
(294,657,o),
(290,657,c),
(216,657,l),
(210,657,o),
(201,652,o),
(210,644,c),
(333,498,l),
(335,495,o),
(340,494,o),
(344,494,c)
);
}
);
width = 416;
}
);
unicode = 224;
},
{
glyphname = aring;
lastChange = "2023-05-15 06:06:58 +0000";
layers = (
{
hints = (
{
horizontal = 1;
place = (462, 37);
place = (462, 37);
type = Stem;
},
{
horizontal = 1;
place = (620, 37);
place = (620, 37);
type = Stem;
},
{
horizontal = 1;
place = (428, -20);
target = down;
type = TopGhost;
},
{
horizontal = 1;
place = (-12, 21);
target = up;
type = BottomGhost;
},
{
place = (37, 67);
place = (37, 67);
type = Stem;
},
{
place = (205, 37);
place = (205, 37);
type = Stem;
},
{
place = (361, 35);
place = (361, 35);
type = Stem;
}
);
layerId = m01;
shapes = (
{
closed = 1;
nodes = (
(135,-12,o),
(230,89,o),
(253,113,c),
(259,120,o),
(267,125,o),
(264,110,c),
(259,88,o),
(255,66,o),
(254,43,c),
(253,13,o),
(260,-12,o),
(284,-12,c),
(300,-12,o),
(323,7,o),
(345,28,c),
(366,49,o),
(386,72,o),
(396,83,c),
(404,96,o),
(395,112,o),
(386,103,c),
(384,101,o),
(379,96,o),
(373,89,c),
(365,80,o),
(343,57,o),
(332,55,c),
(314,51,o),
(332,114,o),
(333,120,c),
(392,419,l),
(391,427,o),
(389,428,o),
(386,428,c),
(327,427,o),
(277,416,o),
(224,385,c),
(116,322,o),
(37,200,o),
(37,97,c),
(37,41,o),
(65,-12,o),
(99,-12,c)
);
},
{
closed = 1;
nodes = (
(119,46,o),
(104,75,o),
(104,118,c),
(104,207,o),
(141,293,o),
(199,332,c),
(228,352,o),
(261,366,o),
(307,371,c),
(318,372,o),
(315,363,o),
(313,357,c),
(274,164,l),
(256,147,o),
(149,46,o),
(135,46,c)
);
},
{
closed = 1;
nodes = (
(354,462,o),
(396,505,o),
(396,559,c),
(396,613,o),
(354,657,o),
(301,657,c),
(249,657,o),
(205,613,o),
(205,559,c),
(205,505,o),
(249,462,o),
(301,462,c)
);
},
{
closed = 1;
nodes = (
(268,499,o),
(242,526,o),
(242,559,c),
(242,593,o),
(268,620,o),
(301,620,c),
(334,620,o),
(361,593,o),
(361,559,c),
(361,526,o),
(334,499,o),
(301,499,c)
);
}
);
width = 416;
}
);
unicode = 229;
},
{
glyphname = atilde;
lastChange = "2023-05-15 06:06:58 +0000";
layers = (
{
hints = (
{
horizontal = 1;
place = (428, -20);
target = down;
type = TopGhost;
},
{
place = (37, 67);
place = (37, 67);
type = Stem;
},
{
horizontal = 1;
place = (-12, 21);
target = up;
type = BottomGhost;
},
{
horizontal = 1;
place = (625, -20);
target = down;
type = TopGhost;
},
{
horizontal = 1;
place = (490, 66);
place = (490, 66);
type = Stem;
},
{
horizontal = 1;
place = (560, 66);
place = (560, 66);
type = Stem;
}
);
layerId = m01;
shapes = (
{
closed = 1;
nodes = (
(135,-12,o),
(230,89,o),
(253,113,c),
(259,120,o),
(267,125,o),
(264,110,c),
(259,88,o),
(255,66,o),
(254,43,c),
(253,13,o),
(260,-12,o),
(284,-12,c),
(300,-12,o),
(323,7,o),
(345,28,c),
(366,49,o),
(386,72,o),
(396,83,c),
(404,96,o),
(395,112,o),
(386,103,c),
(384,101,o),
(379,96,o),
(373,89,c),
(365,80,o),
(343,57,o),
(332,55,c),
(314,51,o),
(332,114,o),
(333,120,c),
(392,419,l),
(391,427,o),
(389,428,o),
(386,428,c),
(327,427,o),
(277,416,o),
(224,385,c),
(116,322,o),
(37,200,o),
(37,97,c),
(37,41,o),
(65,-12,o),
(99,-12,c)
);
},
{
closed = 1;
nodes = (
(119,46,o),
(104,75,o),
(104,118,c),
(104,207,o),
(141,293,o),
(199,332,c),
(228,352,o),
(261,366,o),
(307,371,c),
(318,372,o),
(315,363,o),
(313,357,c),
(274,164,l),
(256,147,o),
(149,46,o),
(135,46,c)
);
},
{
closed = 1;
nodes = (
(419,490,o),
(459,543,o),
(459,612,c),
(459,619,o),
(459,625,o),
(450,625,c),
(442,625,o),
(440,623,o),
(439,615,c),
(432,572,o),
(418,556,o),
(395,556,c),
(356,556,o),
(297,626,o),
(235,626,c),
(181,626,o),
(148,584,o),
(141,505,c),
(140,495,o),
(142,491,o),
(149,491,c),
(157,491,o),
(160,493,o),
(161,499,c),
(170,547,o),
(181,560,o),
(206,560,c),
(245,560,o),
(299,490,o),
(366,490,c)
);
}
);
width = 416;
}
);
unicode = 227;
},
{
glyphname = ae;
lastChange = "2023-05-15 06:06:58 +0000";
layers = (
{
hints = (
{
place = (538, 59);
place = (538, 59);
type = Stem;
},
{
horizontal = 1;
place = (425, -20);
target = down;
type = TopGhost;
},
{
horizontal = 1;
place = (-14, 41);
place = (-14, 41);
type = Stem;
},
{
place = (37, 67);
place = (37, 67);
type = Stem;
},
{
place = (280, 70);
place = (280, 70);
type = Stem;
},
{
horizontal = 1;
place = (399, 25);
place = (399, 25);
type = Stem;
},
{
horizontal = 1;
place = (-13, 21);
target = up;
type = BottomGhost;
},
{
horizontal = 1;
place = (-14, 56);
place = (-14, 56);
type = Stem;
}
);
layerId = m01;
shapes = (
{
closed = 1;
nodes = (
(417,-14,o),
(477,12,o),
(549,62,c),
(551,67,o),
(551,69,o),
(548,74,c),
(545,77,o),
(543,78,o),
(537,78,c),
(477,39,o),
(451,27,o),
(422,27,c),
(381,27,o),
(350,66,o),
(350,122,c),
(350,143,o),
(351,152,o),
(356,178,c),
(357,184,o),
(360,189,o),
(367,190,c),
(405,200,o),
(453,217,o),
(497,237,c),
(560,265,o),
(597,307,o),
(597,352,c),
(597,394,o),
(561,425,o),
(512,425,c),
(472,425,o),
(440,411,o),
(398,373,c),
(394,369,o),
(387,364,o),
(390,376,c),
(397,408,l),
(399,415,o),
(398,424,o),
(388,424,c),
(208,424,o),
(37,267,o),
(37,102,c),
(37,57,o),
(51,21,o),
(79,-1,c),
(88,-9,o),
(97,-13,o),
(105,-13,c),
(121,-13,o),
(156,12,o),
(192,42,c),
(221,66,o),
(249,93,o),
(268,111,c),
(277,119,o),
(280,114,o),
(280,110,c),
(280,42,o),
(322,-14,o),
(375,-14,c)
);
},
{
closed = 1;
nodes = (
(120,42,o),
(104,75,o),
(104,129,c),
(104,218,o),
(147,299,o),
(216,340,c),
(248,359,o),
(268,366,o),
(315,373,c),
(328,375,o),
(327,370,o),
(325,359,c),
(284,156,l),
(201,72,o),
(163,42,o),
(140,42,c)
);
},
{
closed = 1;
nodes = (
(371,214,o),
(363,214,o),
(366,227,c),
(395,341,o),
(439,399,o),
(493,399,c),
(519,399,o),
(538,379,o),
(538,350,c),
(538,321,o),
(520,287,o),
(493,268,c),
(473,254,o),
(446,240,o),
(413,228,c),
(397,222,o),
(388,219,o),
(379,216,c)
);
}
);
width = 583;
}
);
unicode = 230;
},
{
glyphname = b;
lastChange = "2023-05-15 06:06:58 +0000";
layers = (
{
hints = (
{
horizontal = 1;
place = (-12, 26);
place = (-12, 26);
type = Stem;
},
{
horizontal = 1;
place = (369, 61);
place = (369, 61);
type = Stem;
}
);
layerId = m01;
shapes = (
{
closed = 1;
nodes = (
(315,-12,o),
(444,255,o),
(357,405,c),
(349,419,o),
(339,430,o),
(330,430,c),
(292,430,o),
(201,322,o),
(174,292,c),
(168,286,o),
(162,286,o),
(165,300,c),
(251,727,l),
(258,762,o),
(247,767,o),
(211,746,c),
(124,695,l),
(115,690,o),
(113,668,o),
(133,677,c),
(149,686,o),
(166,694,o),
(171,694,c),
(177,694,o),
(177,687,o),
(176,683,c),
(133,501,o),
(105,326,o),
(68,143,c),
(53,68,o),
(62,-12,o),
(161,-12,c)
);
},
{
closed = 1;
nodes = (
(112,14,o),
(127,101,o),
(135,142,c),
(154,236,l),
(157,251,o),
(153,245,o),
(162,255,c),
(174,269,o),
(195,294,o),
(216,317,c),
(241,344,o),
(269,369,o),
(284,369,c),
(302,369,o),
(317,328,o),
(317,264,c),
(317,195,o),
(264,14,o),
(175,14,c)
);
}
);
width = 415;
}
);
unicode = 98;
},
{
glyphname = c;
lastChange = "2023-05-15 06:06:58 +0000";
layers = (
{
hints = (
{
horizontal = 1;
place = (-12, 49);
place = (-12, 49);
type = Stem;
},
{
horizontal = 1;
place = (354, 75);
place = (354, 75);
type = Stem;
}
);
layerId = m01;
shapes = (
{
closed = 1;
nodes = (
(169,-12,o),
(230,22,o),
(280,81,c),
(282,86,o),
(280,92,o),
(273,97,c),
(270,101,o),
(260,103,o),
(259,99,c),
(226,60,o),
(189,37,o),
(159,37,c),
(53,37,o),
(128,258,o),
(148,309,c),
(168,358,o),
(189,380,o),
(211,380,c),
(219,380,o),
(226,378,o),
(238,372,c),
(255,362,o),
(267,354,o),
(287,354,c),
(304,354,o),
(316,369,o),
(316,389,c),
(316,414,o),
(294,429,o),
(262,429,c),
(127,429,o),
(35,212,o),
(35,98,c),
(35,32,o),
(71,-12,o),
(124,-12,c)
);
}
);
width = 300;
}
);
unicode = 99;
},
{
glyphname = ccedilla;
lastChange = "2023-05-15 06:06:58 +0000";
layers = (
{
hints = (
{
horizontal = 1;
place = (352, 77);
place = (352, 77);
type = Stem;
},
{
place = (36, 137);
place = (36, 137);
type = Stem;
},
{
horizontal = 1;
place = (-10, 21);
target = up;
type = BottomGhost;
},
{
place = (131, 42);
place = (131, 42);
type = Stem;
}
);
layerId = m01;
shapes = (
{
closed = 1;
nodes = (
(133,-193,o),
(173,-138,o),
(173,-94,c),
(173,-60,o),
(147,-37,o),
(127,-33,c),
(122,-33,o),
(114,-28,o),
(118,-21,c),
(121,-16,l),
(124,-12,o),
(125,-11,o),
(127,-10,c),
(129,-10,o),
(132,-10,o),
(135,-10,c),
(178,-6,o),
(235,28,o),
(281,82,c),
(286,93,o),
(265,114,o),
(258,101,c),
(226,62,o),
(190,39,o),
(160,39,c),
(61,39,o),
(129,253,o),
(151,309,c),
(170,357,o),
(191,380,o),
(212,380,c),
(220,380,o),
(226,377,o),
(239,370,c),
(255,361,o),
(268,352,o),
(287,352,c),
(305,352,o),
(317,368,o),
(317,389,c),
(317,414,o),
(294,429,o),
(263,429,c),
(127,429,o),
(36,213,o),
(36,100,c),
(36,43,o),
(62,3,o),
(103,-8,c),
(108,-9,o),
(110,-17,o),
(106,-24,c),
(86,-65,l),
(83,-70,o),
(87,-75,o),
(88,-76,c),
(116,-79,o),
(131,-88,o),
(131,-113,c),
(131,-153,o),
(96,-180,o),
(27,-177,c),
(23,-177,o),
(21,-179,o),
(21,-181,c),
(19,-188,o),
(17,-189,o),
(26,-190,c)
);
}
);
width = 300;
}
);
unicode = 231;
},
{
glyphname = d;
lastChange = "2023-05-15 06:40:52 +0000";
layers = (
{
hints = (
{
horizontal = 1;
place = (-12, 54);
place = (-12, 54);
type = Stem;
},
{
place = (49, 68);
place = (49, 68);
type = Stem;
},
{
place = (117, 144);
place = (117, 144);
type = Stem;
}
);
layerId = m01;
shapes = (
{
closed = 1;
nodes = (
(140,-12,o),
(203,41,o),
(269,125,c),
(272,130,o),
(281,148,o),
(279,127,c),
(275,92,o),
(261,60,o),
(261,21,c),
(261,1,o),
(269,-12,o),
(284,-12,c),
(313,-12,o),
(371,37,o),
(410,97,c),
(415,105,o),
(410,110,o),
(406,114,c),
(402,117,o),
(398,117,o),
(396,114,c),
(367,73,o),
(346,53,o),
(338,53,c),
(330,53,o),
(334,71,o),
(335,76,c),
(458,724,l),
(466,764,o),
(439,754,o),
(421,744,c),
(314,685,l),
(308,683,o),
(306,675,o),
(307,667,c),
(309,659,o),
(313,656,o),
(319,660,c),
(336,669,o),
(353,680,o),
(370,689,c),
(384,696,o),
(390,700,o),
(386,678,c),
(337,426,l),
(335,415,o),
(329,401,o),
(323,408,c),
(289,444,o),
(240,430,o),
(203,402,c),
(110,334,o),
(49,221,o),
(49,114,c),
(49,42,o),
(73,-12,o),
(109,-12,c)
);
},
{
closed = 1;
nodes = (
(130,42,o),
(117,71,o),
(117,120,c),
(117,187,o),
(138,259,o),
(176,325,c),
(204,373,o),
(230,397,o),
(256,397,c),
(282,397,o),
(305,375,o),
(319,337,c),
(290,187,l),
(228,100,o),
(171,42,o),
(149,42,c)
);
}
);
width = 450;
}
);
unicode = 100;
},
{
glyphname = eth;
lastChange = "2023-05-15 06:06:58 +0000";
layers = (
{
hints = (
{
horizontal = 1;
place = (-13, 41);
place = (-13, 41);
type = Stem;
},
{
horizontal = 1;
place = (384, 42);
place = (384, 42);
type = Stem;
},
{
place = (46, 70);
place = (46, 70);
type = Stem;
},
{
place = (116, 197);
place = (116, 197);
type = Stem;
}
);
layerId = m01;
shapes = (
{
closed = 1;
nodes = (
(368,-13,o),
(446,373,o),
(350,542,c),
(346,549,o),
(348,555,o),
(355,557,c),
(423,580,l),
(420,592,l),
(419,596,o),
(416,600,o),
(408,597,c),
(344,576,l),
(329,573,o),
(326,580,o),
(324,583,c),
(296,619,o),
(265,644,o),
(227,660,c),
(219,663,o),
(214,663,o),
(209,656,c),
(205,649,l),
(203,641,o),
(207,637,o),
(211,635,c),
(250,606,o),
(258,599,o),
(275,570,c),
(280,560,o),
(275,555,o),
(269,552,c),
(182,526,l),
(179,524,o),
(176,522,o),
(176,517,c),
(178,510,l),
(178,510,o),
(180,503,o),
(189,505,c),
(282,535,l),
(287,537,o),
(296,531,o),
(298,528,c),
(311,497,o),
(316,475,o),
(320,433,c),
(320,430,o),
(317,418,o),
(312,420,c),
(303,425,o),
(297,426,o),
(289,426,c),
(262,426,o),
(225,412,o),
(184,384,c),
(95,324,o),
(46,242,o),
(46,149,c),
(46,60,o),
(89,-13,o),
(142,-13,c)
);
},
{
closed = 1;
nodes = (
(146,28,o),
(116,79,o),
(116,153,c),
(116,274,o),
(176,384,o),
(238,384,c),
(278,384,o),
(313,330,o),
(313,263,c),
(313,137,o),
(251,28,o),
(184,28,c)
);
}
);
width = 424;
}
);
unicode = 240;
},
{
glyphname = e;
lastChange = "2023-05-15 06:06:58 +0000";
layers = (
{
hints = (
{
horizontal = 1;
place = (-12, 44);
place = (-12, 44);
type = Stem;
},
{
horizontal = 1;
place = (399, 32);
place = (399, 32);
type = Stem;
},
{
place = (38, 70);
place = (38, 70);
type = Stem;
},
{
place = (296, 53);
place = (296, 53);
type = Stem;
}
);
layerId = m01;
shapes = (
{
closed = 1;
nodes = (
(185,-12,o),
(252,12,o),
(313,64,c),
(317,70,o),
(317,79,o),
(314,85,c),
(312,91,o),
(307,93,o),
(301,88,c),
(252,50,o),
(217,33,o),
(187,32,c),
(141,31,o),
(108,67,o),
(108,128,c),
(108,145,o),
(109,162,o),
(113,181,c),
(113,184,o),
(115,189,o),
(124,193,c),
(144,199,o),
(159,202,o),
(184,210,c),
(210,218,o),
(237,227,o),
(261,240,c),
(310,265,o),
(349,301,o),
(349,358,c),
(349,404,o),
(317,431,o),
(265,431,c),
(148,431,o),
(38,283,o),
(38,132,c),
(38,51,o),
(83,-12,o),
(141,-12,c)
);
},
{
closed = 1;
nodes = (
(131,228,o),
(124,229,o),
(126,237,c),
(133,269,o),
(139,287,o),
(146,303,c),
(153,320,o),
(161,332,o),
(170,349,c),
(187,380,o),
(215,398,o),
(250,399,c),
(282,400,o),
(298,376,o),
(296,346,c),
(294,317,o),
(275,283,o),
(236,263,c),
(204,247,o),
(177,239,o),
(142,231,c)
);
}
);
width = 364;
}
);
unicode = 101;
},
{
glyphname = eacute;
lastChange = "2023-05-15 06:06:58 +0000";
layers = (
{
hints = (
{
horizontal = 1;
place = (-12, 44);
place = (-12, 44);
type = Stem;
},
{
horizontal = 1;
place = (399, 32);
place = (399, 32);
type = Stem;
},
{
horizontal = 1;
place = (658, -20);
target = down;
type = TopGhost;
},
{
place = (38, 70);
place = (38, 70);
type = Stem;
},
{
place = (296, 53);
place = (296, 53);
type = Stem;
}
);
layerId = m01;
shapes = (
{
closed = 1;
nodes = (
(185,-12,o),
(252,12,o),
(312,64,c),
(317,70,o),
(317,79,o),
(314,85,c),
(312,91,o),
(307,93,o),
(301,88,c),
(252,50,o),
(217,33,o),
(187,32,c),
(141,31,o),
(108,67,o),
(108,128,c),
(108,145,o),
(109,162,o),
(113,181,c),
(113,184,o),
(114,189,o),
(123,193,c),
(144,199,o),
(159,202,o),
(184,210,c),
(210,218,o),
(237,227,o),
(261,240,c),
(310,265,o),
(349,301,o),
(349,358,c),
(349,404,o),
(317,431,o),
(265,431,c),
(148,431,o),
(38,283,o),
(38,132,c),
(38,51,o),
(83,-12,o),
(141,-12,c)
);
},
{
closed = 1;
nodes = (
(131,228,o),
(124,229,o),
(126,237,c),
(133,269,o),
(139,287,o),
(146,303,c),
(153,320,o),
(161,332,o),
(170,349,c),
(187,380,o),
(215,398,o),
(250,399,c),
(282,400,o),
(298,376,o),
(296,346,c),
(294,317,o),
(275,283,o),
(236,263,c),
(204,247,o),
(177,239,o),
(142,231,c)
);
},
{
closed = 1;
nodes = (
(251,534,o),
(313,604,o),
(342,644,c),
(350,655,o),
(340,659,o),
(332,658,c),
(314,660,o),
(284,659,o),
(266,658,c),
(256,658,o),
(251,656,o),
(248,648,c),
(243,623,o),
(215,538,o),
(205,503,c),
(202,494,o),
(214,493,o),
(220,499,c)
);
}
);
width = 364;
}
);
unicode = 233;
},
{
glyphname = ecircumflex;
lastChange = "2023-05-15 06:06:58 +0000";
layers = (
{
hints = (
{
horizontal = 1;
place = (-12, 44);
place = (-12, 44);
type = Stem;
},
{
horizontal = 1;
place = (399, 32);
place = (399, 32);
type = Stem;
},
{
horizontal = 1;
place = (641, -20);
target = down;
type = TopGhost;
},
{
place = (38, 70);
place = (38, 70);
type = Stem;
},
{
place = (296, 53);
place = (296, 53);
type = Stem;
}
);
layerId = m01;
shapes = (
{
closed = 1;
nodes = (
(185,-12,o),
(252,12,o),
(312,64,c),
(317,70,o),
(317,79,o),
(314,85,c),
(312,91,o),
(307,93,o),
(301,88,c),
(252,50,o),
(217,33,o),
(187,32,c),
(141,31,o),
(108,67,o),
(108,128,c),
(108,145,o),
(109,162,o),
(113,181,c),
(113,184,o),
(114,189,o),
(123,193,c),
(144,199,o),
(159,202,o),
(184,210,c),
(210,218,o),
(237,227,o),
(261,240,c),
(310,265,o),
(349,301,o),
(349,358,c),
(349,404,o),
(317,431,o),
(265,431,c),
(148,431,o),
(38,283,o),
(38,132,c),
(38,51,o),
(83,-12,o),
(141,-12,c)
);
},
{
closed = 1;
nodes = (
(131,228,o),
(124,229,o),
(126,237,c),
(133,269,o),
(139,287,o),
(146,303,c),
(153,320,o),
(161,332,o),
(170,349,c),
(187,380,o),
(215,398,o),
(250,399,c),
(282,400,o),
(298,376,o),
(296,346,c),
(294,317,o),
(275,283,o),
(236,263,c),
(204,247,o),
(177,239,o),
(142,231,c)
);
},
{
closed = 1;
nodes = (
(137,478,l),
(286,574,l),
(291,577,o),
(296,577,o),
(299,573,c),
(378,478,l),
(384,478,l),
(390,478,o),
(390,482,o),
(389,488,c),
(355,625,l),
(352,637,o),
(347,639,o),
(337,640,c),
(326,640,o),
(304,642,o),
(293,641,c),
(285,641,o),
(277,639,o),
(271,632,c),
(125,485,l),
(122,482,o),
(121,479,o),
(125,478,c)
);
}
);
width = 364;
}
);
unicode = 234;
},
{
glyphname = edieresis;
lastChange = "2023-05-15 06:06:58 +0000";
layers = (
{
hints = (
{
place = (282, 98);
place = (282, 98);
type = Stem;
},
{
horizontal = 1;
place = (486, 101);
place = (486, 101);
type = Stem;
},
{
place = (123, 98);
place = (123, 98);
type = Stem;
},
{
horizontal = 1;
place = (-12, 44);
place = (-12, 44);
type = Stem;
},
{
horizontal = 1;
place = (399, 32);
place = (399, 32);
type = Stem;
},
{
place = (38, 70);
place = (38, 70);
type = Stem;
},
{
horizontal = 1;
place = (586, -20);
target = down;
type = TopGhost;
},
{
place = (296, 53);
place = (296, 53);
type = Stem;
}
);
layerId = m01;
shapes = (
{
closed = 1;
nodes = (
(185,-12,o),
(252,12,o),
(312,64,c),
(317,70,o),
(317,79,o),
(314,85,c),
(312,91,o),
(307,93,o),
(301,88,c),
(252,50,o),
(217,33,o),
(187,32,c),
(141,31,o),
(108,67,o),
(108,128,c),
(108,145,o),
(109,162,o),
(113,181,c),
(113,184,o),
(114,189,o),
(123,193,c),
(144,199,o),
(159,202,o),
(184,210,c),
(210,218,o),
(237,227,o),
(261,240,c),
(310,265,o),
(349,301,o),
(349,358,c),
(349,404,o),
(317,431,o),
(265,431,c),
(148,431,o),
(38,283,o),
(38,132,c),
(38,51,o),
(83,-12,o),
(141,-12,c)
);
},
{
closed = 1;
nodes = (
(131,228,o),
(124,229,o),
(126,237,c),
(133,269,o),
(139,287,o),
(146,303,c),
(153,320,o),
(161,332,o),
(170,349,c),
(187,380,o),
(215,398,o),
(250,399,c),
(282,400,o),
(298,376,o),
(296,346,c),
(294,317,o),
(275,283,o),
(236,263,c),
(204,247,o),
(177,239,o),
(142,231,c)
);
},
{
closed = 1;
nodes = (
(198,486,o),
(221,509,o),
(221,536,c),
(221,564,o),
(198,586,o),
(172,586,c),
(145,586,o),
(123,564,o),
(123,536,c),
(123,509,o),
(145,486,o),
(172,486,c)
);
},
{
closed = 1;
nodes = (
(359,486,o),
(380,509,o),
(380,537,c),
(380,565,o),
(359,587,o),
(332,587,c),
(304,587,o),
(282,565,o),
(282,537,c),
(282,509,o),
(304,486,o),
(332,486,c)
);
}
);
width = 364;
}
);
unicode = 235;
},
{
glyphname = egrave;
lastChange = "2023-05-15 06:06:58 +0000";
layers = (
{
hints = (
{
horizontal = 1;
place = (-12, 44);
place = (-12, 44);
type = Stem;
},
{
horizontal = 1;
place = (399, 32);
place = (399, 32);
type = Stem;
},
{
horizontal = 1;
place = (657, -20);
target = down;
type = TopGhost;
},
{
place = (38, 70);
place = (38, 70);
type = Stem;
},
{
place = (296, 53);
place = (296, 53);
type = Stem;
}
);
layerId = m01;
shapes = (
{
closed = 1;
nodes = (
(185,-12,o),
(252,12,o),
(312,64,c),
(317,70,o),
(317,79,o),
(314,85,c),
(312,91,o),
(307,93,o),
(301,88,c),
(252,50,o),
(217,33,o),
(187,32,c),
(141,31,o),
(108,67,o),
(108,128,c),
(108,145,o),
(109,162,o),
(113,181,c),
(113,184,o),
(114,189,o),
(123,193,c),
(144,199,o),
(159,202,o),
(184,210,c),
(210,218,o),
(237,227,o),
(261,240,c),
(310,265,o),
(349,301,o),
(349,358,c),
(349,404,o),
(317,431,o),
(265,431,c),
(148,431,o),
(38,283,o),
(38,132,c),
(38,51,o),
(83,-12,o),
(141,-12,c)
);
},
{
closed = 1;
nodes = (
(131,228,o),
(124,229,o),
(126,237,c),
(133,269,o),
(139,287,o),
(146,303,c),
(153,320,o),
(161,332,o),
(170,349,c),
(187,380,o),
(215,398,o),
(250,399,c),
(282,400,o),
(298,376,o),
(296,346,c),
(294,317,o),
(275,283,o),
(236,263,c),
(204,247,o),
(177,239,o),
(142,231,c)
);
},
{
closed = 1;
nodes = (
(298,494,o),
(300,496,o),
(299,499,c),
(252,651,l),
(251,652,o),
(250,653,o),
(250,654,c),
(247,658,o),
(243,657,o),
(238,657,c),
(164,657,l),
(159,657,o),
(151,653,o),
(158,644,c),
(282,498,l),
(284,495,o),
(289,494,o),
(293,494,c)
);
}
);
width = 364;
}
);
unicode = 232;
},
{
glyphname = f;
lastChange = "2023-05-15 06:06:58 +0000";
layers = (
{
hints = (
{
horizontal = 1;
place = (-274, 37);
place = (-274, 37);
type = Stem;
},
{
horizontal = 1;
place = (378, 39);
place = (378, 39);
type = Stem;
},
{
horizontal = 1;
place = (717, 41);
place = (717, 41);
type = Stem;
}
);
layerId = m01;
shapes = (
{
closed = 1;
nodes = (
(-66,-274,o),
(-33,-260,o),
(-3,-238,c),
(102,-162,o),
(128,-7,o),
(148,111,c),
(193,371,l),
(196,376,o),
(196,377,o),
(201,378,c),
(262,378,l),
(266,378,o),
(272,387,o),
(276,398,c),
(278,408,o),
(279,417,o),
(273,417,c),
(210,417,l),
(205,418,o),
(203,421,o),
(203,425,c),
(220,521,l),
(235,604,o),
(249,654,o),
(266,680,c),
(280,702,o),
(303,717,o),
(322,717,c),
(362,717,o),
(369,679,o),
(401,675,c),
(421,673,o),
(443,679,o),
(444,703,c),
(445,732,o),
(409,758,o),
(369,758,c),
(322,758,o),
(270,731,o),
(233,685,c),
(206,653,o),
(188,617,o),
(168,557,c),
(154,516,o),
(141,454,o),
(134,416,c),
(123,413,o),
(115,410,o),
(107,408,c),
(97,405,o),
(87,404,o),
(72,402,c),
(68,402,o),
(64,396,o),
(63,388,c),
(62,383,o),
(62,377,o),
(67,378,c),
(120,378,l),
(126,378,o),
(126,370,o),
(125,365,c),
(106,252,o),
(88,133,o),
(65,16,c),
(57,-28,o),
(49,-68,o),
(41,-102,c),
(34,-135,o),
(27,-162,o),
(18,-179,c),
(1,-212,o),
(-31,-237,o),
(-61,-237,c),
(-84,-237,o),
(-97,-221,o),
(-111,-206,c),
(-118,-200,o),
(-126,-192,o),
(-137,-191,c),
(-155,-189,o),
(-173,-189,o),
(-178,-219,c),
(-183,-245,o),
(-145,-274,o),
(-102,-274,c)
);
}
);
width = 283;
}
);
unicode = 102;
},
{
glyphname = g;
lastChange = "2023-05-15 06:06:58 +0000";
layers = (
{
hints = (
{
horizontal = 1;
place = (-275, 21);
place = (-275, 21);
type = Stem;
},
{
horizontal = 1;
place = (397, 33);
place = (397, 33);
type = Stem;
},
{
place = (-83, 63);
place = (-83, 63);
type = Stem;
},
{
place = (52, 70);
place = (52, 70);
type = Stem;
},
{
place = (291, 72);
place = (291, 72);
type = Stem;
}
);
layerId = m01;
shapes = (
{
closed = 1;
nodes = (
(236,-275,o),
(331,-233,o),
(331,-173,c),
(331,-142,o),
(300,-110,o),
(208,-48,c),
(154,-12,o),
(138,4,o),
(138,19,c),
(138,29,o),
(146,39,o),
(175,52,c),
(212,69,o),
(267,103,o),
(295,127,c),
(336,163,o),
(363,221,o),
(363,278,c),
(363,306,o),
(358,330,o),
(345,365,c),
(344,368,o),
(346,372,o),
(352,371,c),
(394,366,l),
(403,363,o),
(405,377,o),
(405,391,c),
(404,405,o),
(401,421,o),
(393,421,c),
(376,421,o),
(316,428,o),
(278,430,c),
(233,432,o),
(199,415,o),
(165,387,c),
(101,334,o),
(52,258,o),
(52,195,c),
(52,136,o),
(80,83,o),
(127,55,c),
(132,52,o),
(129,48,o),
(127,47,c),
(96,25,o),
(74,0,o),
(99,-40,c),
(56,-63,o),
(15,-86,o),
(-23,-112,c),
(-62,-138,o),
(-83,-163,o),
(-83,-187,c),
(-83,-240,o),
(-1,-275,o),
(110,-275,c)
);
},
{
closed = 1;
nodes = (
(33,-254,o),
(-20,-221,o),
(-20,-177,c),
(-20,-141,o),
(20,-109,o),
(106,-60,c),
(108,-59,o),
(114,-58,o),
(117,-60,c),
(153,-92,o),
(196,-126,o),
(237,-156,c),
(261,-173,o),
(270,-186,o),
(270,-196,c),
(270,-228,o),
(207,-254,o),
(111,-254,c)
);
},
{
closed = 1;
nodes = (
(151,85,o),
(122,130,o),
(122,186,c),
(122,244,o),
(163,397,o),
(232,397,c),
(267,397,o),
(291,355,o),
(291,291,c),
(291,232,o),
(275,172,o),
(246,130,c),
(227,102,o),
(204,85,o),
(184,85,c)
);
}
);
width = 398;
}
);
unicode = 103;
},
{
glyphname = h;
lastChange = "2023-05-15 06:06:58 +0000";
layers = (
{
hints = (
{
horizontal = 1;
place = (379, 49);
place = (379, 49);
type = Stem;
},
{
horizontal = 1;
place = (755, -20);
target = down;
type = TopGhost;
},
{
horizontal = 1;
place = (-7, 21);
target = up;
type = BottomGhost;
},
{
horizontal = 1;
place = (-12, 21);
target = up;
type = BottomGhost;
}
);
layerId = m01;
shapes = (
{
closed = 1;
nodes = (
(333,-12,o),
(392,37,o),
(440,101,c),
(444,107,o),
(435,126,o),
(427,119,c),
(384,71,o),
(359,47,o),
(348,47,c),
(336,47,o),
(343,66,o),
(345,72,c),
(404,302,l),
(411,331,o),
(431,428,o),
(373,428,c),
(329,428,o),
(265,370,o),
(173,241,c),
(168,233,o),
(162,227,o),
(166,246,c),
(263,732,l),
(263,743,o),
(268,755,o),
(250,755,c),
(243,755,o),
(233,751,o),
(220,744,c),
(119,686,l),
(117,685,o),
(115,677,o),
(117,670,c),
(119,663,o),
(122,661,o),
(127,665,c),
(156,681,o),
(175,690,o),
(179,690,c),
(188,690,o),
(183,676,o),
(182,672,c),
(52,14,l),
(50,8,o),
(48,-8,o),
(58,-7,c),
(75,-8,o),
(85,-7,o),
(96,-7,c),
(120,-7,o),
(118,14,o),
(122,33,c),
(126,49,o),
(132,81,o),
(150,169,c),
(177,208,o),
(301,379,o),
(331,379,c),
(357,379,o),
(340,315,o),
(336,301,c),
(283,93,l),
(278,74,o),
(258,-12,o),
(303,-12,c)
);
}
);
width = 457;
}
);
unicode = 104;
},
{
glyphname = i;
lastChange = "2023-05-15 06:06:58 +0000";
layers = (
{
hints = (
{
horizontal = 1;
place = (429, 97);
place = (429, 97);
type = Stem;
},
{
horizontal = 1;
place = (644, -20);
target = down;
type = TopGhost;
},
{
horizontal = 1;
place = (-11, 21);
target = up;
type = BottomGhost;
}
);
layerId = m01;
shapes = (
{
closed = 1;
nodes = (
(133,-11,o),
(200,59,o),
(222,88,c),
(225,91,o),
(224,99,o),
(220,107,c),
(216,114,o),
(211,115,o),
(207,109,c),
(196,96,o),
(156,51,o),
(146,51,c),
(131,50,o),
(136,62,o),
(139,78,c),
(198,368,l),
(202,386,o),
(212,429,o),
(181,429,c),
(157,429,o),
(109,392,o),
(56,329,c),
(48,319,o),
(61,299,o),
(67,307,c),
(71,310,o),
(82,323,o),
(93,335,c),
(105,348,o),
(118,358,o),
(123,357,c),
(132,355,o),
(123,327,o),
(122,321,c),
(69,67,l),
(65,47,o),
(53,-10,o),
(94,-11,c)
);
},
{
closed = 1;
nodes = (
(215,526,o),
(234,553,o),
(239,588,c),
(242,609,o),
(245,643,o),
(216,644,c),
(195,644,o),
(177,620,o),
(170,589,c),
(165,568,o),
(160,526,o),
(192,526,c)
);
}
);
width = 255;
}
);
unicode = 105;
},
{
glyphname = idotless;
lastChange = "2023-05-15 06:06:58 +0000";
layers = (
{
hints = (
{
horizontal = 1;
place = (425, -20);
target = down;
type = TopGhost;
},
{
horizontal = 1;
place = (-14, 21);
target = up;
type = BottomGhost;
}
);
layerId = m01;
shapes = (
{
closed = 1;
nodes = (
(110,-14,o),
(131,-1,o),
(160,26,c),
(184,48,o),
(205,71,o),
(223,94,c),
(230,103,o),
(214,117,o),
(207,108,c),
(198,96,o),
(155,44,o),
(143,44,c),
(132,44,o),
(138,70,o),
(139,75,c),
(197,364,l),
(201,382,o),
(207,425,o),
(178,425,c),
(155,425,o),
(115,392,o),
(54,324,c),
(49,319,o),
(56,299,o),
(66,307,c),
(82,319,o),
(107,359,o),
(122,359,c),
(132,359,o),
(122,328,o),
(121,323,c),
(70,64,l),
(65,40,o),
(57,-14,o),
(95,-14,c)
);
}
);
width = 255;
}
);
unicode = 305;
},
{
glyphname = iacute;
lastChange = "2023-05-15 06:06:58 +0000";
layers = (
{
hints = (
{
horizontal = 1;
place = (-14, 21);
target = up;
type = BottomGhost;
},
{
horizontal = 1;
place = (658, -20);
target = down;
type = TopGhost;
}
);
layerId = m01;
shapes = (
{
closed = 1;
nodes = (
(110,-14,o),
(131,-1,o),
(160,26,c),
(184,48,o),
(205,71,o),
(223,94,c),
(230,103,o),
(214,117,o),
(207,108,c),
(198,96,o),
(155,44,o),
(143,44,c),
(132,44,o),
(138,70,o),
(139,75,c),
(197,364,l),
(201,382,o),
(207,425,o),
(178,425,c),
(155,425,o),
(115,392,o),
(54,324,c),
(49,319,o),
(56,299,o),
(66,307,c),
(82,319,o),
(107,359,o),
(122,359,c),
(132,359,o),
(122,328,o),
(121,323,c),
(70,64,l),
(65,40,o),
(57,-14,o),
(95,-14,c)
);
},
{
closed = 1;
nodes = (
(199,534,o),
(261,604,o),
(290,644,c),
(298,655,o),
(288,660,o),
(279,658,c),
(262,660,o),
(232,659,o),
(214,658,c),
(204,658,o),
(198,656,o),
(195,648,c),
(191,624,o),
(164,538,o),
(153,503,c),
(150,494,o),
(162,493,o),
(168,499,c)
);
}
);
width = 255;
}
);
unicode = 237;
},
{
glyphname = icircumflex;
lastChange = "2023-05-15 06:06:58 +0000";
layers = (
{
hints = (
{
horizontal = 1;
place = (-14, 21);
target = up;
type = BottomGhost;
},
{
horizontal = 1;
place = (641, -20);
target = down;
type = TopGhost;
}
);
layerId = m01;
shapes = (
{
closed = 1;
nodes = (
(110,-14,o),
(131,-1,o),
(160,26,c),
(184,48,o),
(205,71,o),
(223,94,c),
(230,103,o),
(214,117,o),
(207,108,c),
(198,96,o),
(155,44,o),
(143,44,c),
(132,44,o),
(138,70,o),
(139,75,c),
(197,364,l),
(201,382,o),
(207,425,o),
(178,425,c),
(155,425,o),
(115,392,o),
(54,324,c),
(49,319,o),
(56,299,o),
(66,307,c),
(82,319,o),
(107,359,o),
(122,359,c),
(132,359,o),
(122,328,o),
(121,323,c),
(70,64,l),
(65,40,o),
(57,-14,o),
(95,-14,c)
);
},
{
closed = 1;
nodes = (
(51,478,l),
(200,574,l),
(205,577,o),
(210,577,o),
(213,573,c),
(292,478,l),
(298,478,l),
(304,478,o),
(304,482,o),
(303,488,c),
(269,625,l),
(266,637,o),
(261,639,o),
(251,640,c),
(240,640,o),
(218,642,o),
(207,641,c),
(199,641,o),
(191,639,o),
(185,632,c),
(39,485,l),
(36,482,o),
(35,479,o),
(39,478,c)
);
}
);
width = 255;
}
);
unicode = 238;
},
{
glyphname = idieresis;
lastChange = "2023-05-15 06:06:58 +0000";
layers = (
{
hints = (
{
place = (54, 103);
place = (54, 103);
type = Stem;
},
{
horizontal = 1;
place = (-14, 21);
target = up;
type = BottomGhost;
},
{
place = (221, 104);
place = (221, 104);
type = Stem;
},
{
horizontal = 1;
place = (484, 106);
place = (484, 106);
type = Stem;
},
{
horizontal = 1;
place = (589, -20);
target = down;
type = TopGhost;
}
);
layerId = m01;
shapes = (
{
closed = 1;
nodes = (
(110,-14,o),
(131,-1,o),
(160,26,c),
(184,48,o),
(205,71,o),
(223,94,c),
(230,103,o),
(214,117,o),
(207,108,c),
(198,96,o),
(155,44,o),
(143,44,c),
(132,44,o),
(138,70,o),
(139,75,c),
(197,364,l),
(201,382,o),
(207,425,o),
(178,425,c),
(155,425,o),
(115,392,o),
(54,324,c),
(49,319,o),
(56,299,o),
(66,307,c),
(82,319,o),
(107,359,o),
(122,359,c),
(132,359,o),
(122,328,o),
(121,323,c),
(70,64,l),
(65,40,o),
(57,-14,o),
(95,-14,c)
);
},
{
closed = 1;
nodes = (
(133,484,o),
(157,508,o),
(157,536,c),
(157,566,o),
(133,589,o),
(106,589,c),
(77,589,o),
(54,566,o),
(54,536,c),
(54,508,o),
(77,484,o),
(106,484,c)
);
},
{
closed = 1;
nodes = (
(302,484,o),
(325,508,o),
(325,537,c),
(325,567,o),
(302,590,o),
(274,590,c),
(245,590,o),
(221,567,o),
(221,537,c),
(221,508,o),
(245,484,o),
(274,484,c)
);
}
);
width = 255;
}
);
unicode = 239;
},
{
glyphname = igrave;
lastChange = "2023-05-15 06:06:58 +0000";
layers = (
{
hints = (
{
horizontal = 1;
place = (-14, 21);
target = up;
type = BottomGhost;
},
{
horizontal = 1;
place = (657, -20);
target = down;
type = TopGhost;
}
);
layerId = m01;
shapes = (
{
closed = 1;
nodes = (
(110,-14,o),
(131,-1,o),
(160,26,c),
(184,48,o),
(205,71,o),
(223,94,c),
(230,103,o),
(214,117,o),
(207,108,c),
(198,96,o),
(155,44,o),
(143,44,c),
(132,44,o),
(138,70,o),
(139,75,c),
(197,364,l),
(201,382,o),
(207,425,o),
(178,425,c),
(155,425,o),
(115,392,o),
(54,324,c),
(49,319,o),
(56,299,o),
(66,307,c),
(82,319,o),
(107,359,o),
(122,359,c),
(132,359,o),
(122,328,o),
(121,323,c),
(70,64,l),
(65,40,o),
(57,-14,o),
(95,-14,c)
);
},
{
closed = 1;
nodes = (
(201,494,o),
(203,496,o),
(202,499,c),
(154,651,l),
(154,652,o),
(153,653,o),
(153,654,c),
(150,658,o),
(146,657,o),
(141,657,c),
(67,657,l),
(61,657,o),
(54,653,o),
(61,644,c),
(184,498,l),
(187,495,o),
(192,494,o),
(196,494,c)
);
}
);
width = 255;
}
);
unicode = 236;
},
{
glyphname = j;
lastChange = "2023-05-15 06:06:58 +0000";
layers = (
{
hints = (
{
horizontal = 1;
place = (528, 119);
place = (528, 119);
type = Stem;
},
{
horizontal = 1;
place = (-272, 21);
target = up;
type = BottomGhost;
}
);
layerId = m01;
shapes = (
{
closed = 1;
nodes = (
(-27,-272,o),
(13,-234,o),
(45,-189,c),
(87,-132,o),
(108,-74,o),
(126,3,c),
(207,341,l),
(212,361,o),
(227,421,o),
(191,421,c),
(166,421,o),
(119,387,o),
(68,322,c),
(61,317,o),
(72,299,o),
(82,307,c),
(86,311,o),
(96,322,o),
(106,332,c),
(118,343,o),
(130,352,o),
(134,350,c),
(142,347,o),
(140,337,o),
(138,330,c),
(46,-60,l),
(40,-85,o),
(38,-104,o),
(29,-136,c),
(11,-204,o),
(-16,-265,o),
(-63,-232,c),
(-70,-227,o),
(-76,-217,o),
(-82,-210,c),
(-89,-201,o),
(-98,-193,o),
(-111,-191,c),
(-131,-188,o),
(-143,-200,o),
(-145,-220,c),
(-147,-242,o),
(-125,-272,o),
(-84,-272,c)
);
},
{
closed = 1;
nodes = (
(240,528,o),
(253,552,o),
(259,585,c),
(263,606,o),
(272,648,o),
(233,647,c),
(208,646,o),
(193,624,o),
(187,590,c),
(183,568,o),
(182,529,o),
(213,528,c)
);
}
);
width = 245;
}
);
unicode = 106;
},
{
glyphname = k;
lastChange = "2023-05-15 06:06:58 +0000";
layers = (
{
hints = (
{
place = (396, 56);
place = (396, 56);
type = Stem;
},
{
horizontal = 1;
place = (379, 50);
place = (379, 50);
type = Stem;
},
{
horizontal = 1;
place = (-10, 21);
target = up;
type = BottomGhost;
},
{
horizontal = 1;
place = (-9, 21);
target = up;
type = BottomGhost;
}
);
layerId = m01;
shapes = (
{
closed = 1;
nodes = (
(114,-10,o),
(118,-11,o),
(122,10,c),
(156,186,l),
(159,204,o),
(162,203,o),
(168,197,c),
(186,178,o),
(205,152,o),
(234,107,c),
(262,62,o),
(284,31,o),
(327,2,c),
(339,-7,o),
(351,-10,o),
(367,-10,c),
(391,9,o),
(426,46,o),
(450,77,c),
(454,82,o),
(441,105,o),
(432,94,c),
(421,82,o),
(405,64,o),
(390,50,c),
(368,46,o),
(335,75,o),
(310,112,c),
(287,146,l),
(275,164,o),
(260,180,o),
(235,206,c),
(395,201,o),
(459,255,o),
(452,343,c),
(449,387,o),
(423,429,o),
(390,429,c),
(340,429,o),
(228,325,o),
(186,286,c),
(170,270,o),
(173,277,o),
(176,291,c),
(267,732,l),
(275,769,o),
(253,761,o),
(233,749,c),
(132,690,l),
(126,688,o),
(125,681,o),
(129,674,c),
(131,669,o),
(136,663,o),
(140,667,c),
(151,673,o),
(162,680,o),
(173,686,c),
(190,695,o),
(193,698,o),
(189,679,c),
(55,11,l),
(54,4,o),
(49,-9,o),
(61,-9,c),
(74,-10,o),
(88,-10,o),
(102,-10,c)
);
},
{
closed = 1;
nodes = (
(168,227,o),
(162,230,o),
(164,233,c),
(243,315,o),
(328,379,o),
(355,379,c),
(379,379,o),
(396,356,o),
(396,334,c),
(397,270,o),
(363,244,o),
(316,233,c),
(293,227,o),
(267,224,o),
(241,225,c),
(215,226,o),
(193,224,o),
(169,225,c)
);
}
);
width = 459;
}
);
unicode = 107;
},
{
glyphname = l;
lastChange = "2023-05-15 06:06:58 +0000";
layers = (
{
hints = (
{
horizontal = 1;
place = (-13, 21);
target = up;
type = BottomGhost;
}
);
layerId = m01;
shapes = (
{
closed = 1;
nodes = (
(129,-13,o),
(173,21,o),
(223,80,c),
(225,85,o),
(227,92,o),
(222,96,c),
(218,100,o),
(210,99,o),
(209,96,c),
(170,52,o),
(147,35,o),
(137,35,c),
(128,35,o),
(128,43,o),
(132,61,c),
(264,724,l),
(274,776,o),
(238,756,o),
(212,741,c),
(115,684,l),
(110,683,o),
(107,676,o),
(109,669,c),
(111,661,o),
(119,661,o),
(126,663,c),
(158,681,o),
(177,691,o),
(181,691,c),
(186,691,o),
(191,691,o),
(187,672,c),
(68,74,l),
(60,34,o),
(56,-13,o),
(99,-13,c)
);
}
);
width = 256;
}
);
unicode = 108;
},
{
glyphname = lslash;
lastChange = "2023-05-15 06:06:58 +0000";
layers = (
{
hints = (
{
horizontal = 1;
place = (-15, 21);
target = up;
type = BottomGhost;
}
);
layerId = m01;
shapes = (
{
closed = 1;
nodes = (
(125,-15,o),
(167,11,o),
(212,62,c),
(223,74,o),
(226,78,o),
(214,89,c),
(209,94,o),
(205,91,o),
(200,85,c),
(165,47,o),
(147,37,o),
(137,37,c),
(126,37,o),
(130,52,o),
(131,58,c),
(188,338,l),
(263,398,l),
(283,414,o),
(285,411,o),
(291,437,c),
(302,484,l),
(306,496,o),
(299,499,o),
(287,489,c),
(264,469,o),
(242,450,o),
(220,431,c),
(216,428,o),
(202,413,o),
(209,449,c),
(253,666,l),
(264,718,o),
(226,698,o),
(200,683,c),
(111,632,l),
(101,626,o),
(105,620,o),
(105,620,c),
(108,614,l),
(108,614,o),
(111,607,o),
(122,613,c),
(137,621,o),
(184,657,o),
(174,608,c),
(122,342,l),
(52,291,l),
(40,283,o),
(35,281,o),
(30,261,c),
(18,216,l),
(18,216,o),
(10,189,o),
(38,213,c),
(67,238,o),
(65,233,o),
(91,256,c),
(99,263,o),
(105,262,o),
(100,235,c),
(68,71,l),
(63,43,o),
(56,-15,o),
(99,-15,c)
);
}
);
width = 233;
}
);
unicode = 322;
},
{
glyphname = m;
lastChange = "2023-05-15 06:06:58 +0000";
layers = (
{
hints = (
{
horizontal = 1;
place = (375, 51);
place = (375, 51);
type = Stem;
},
{
horizontal = 1;
place = (-11, 21);
target = up;
type = BottomGhost;
},
{
horizontal = 1;
place = (428, -20);
target = down;
type = TopGhost;
},
{
horizontal = 1;
place = (-12, 21);
target = up;
type = BottomGhost;
},
{
horizontal = 1;
place = (-10, 21);
target = up;
type = BottomGhost;
}
);
layerId = m01;
shapes = (
{
closed = 1;
nodes = (
(537,-12,o),
(593,33,o),
(641,100,c),
(643,103,o),
(645,113,o),
(642,119,c),
(638,124,o),
(631,123,o),
(626,117,c),
(622,112,o),
(609,96,o),
(596,81,c),
(593,77,o),
(551,31,o),
(558,66,c),
(614,340,l),
(618,362,o),
(631,426,o),
(589,426,c),
(505,426,o),
(419,272,o),
(394,235,c),
(388,226,o),
(388,234,o),
(391,250,c),
(400,297,o),
(411,333,o),
(411,382,c),
(411,410,o),
(399,428,o),
(381,428,c),
(307,428,o),
(203,272,o),
(176,233,c),
(173,227,o),
(170,227,o),
(172,238,c),
(202,388,l),
(204,399,o),
(208,428,o),
(185,428,c),
(162,428,o),
(91,371,o),
(47,303,c),
(42,286,o),
(59,288,o),
(64,293,c),
(69,300,o),
(71,302,o),
(75,307,c),
(82,317,o),
(113,352,o),
(121,352,c),
(128,352,o),
(124,336,o),
(123,332,c),
(59,9,l),
(56,-6,o),
(61,-11,o),
(75,-11,c),
(85,-11,o),
(98,-10,o),
(108,-10,c),
(122,-10,o),
(124,-5,o),
(127,7,c),
(133,32,o),
(136,59,o),
(141,84,c),
(150,126,o),
(157,160,o),
(172,186,c),
(192,219,o),
(294,375,o),
(336,375,c),
(345,375,o),
(343,356,o),
(341,348,c),
(274,9,l),
(272,-2,o),
(269,-11,o),
(286,-11,c),
(298,-11,o),
(308,-11,o),
(325,-11,c),
(333,-11,o),
(338,-3,o),
(341,10,c),
(362,115,l),
(367,138,o),
(375,163,o),
(391,190,c),
(410,223,o),
(508,376,o),
(538,376,c),
(550,376,o),
(552,372,o),
(547,349,c),
(527,244,o),
(510,157,o),
(488,48,c),
(484,28,o),
(476,-12,o),
(511,-12,c)
);
}
);
width = 674;
}
);
unicode = 109;
},
{
glyphname = n;
lastChange = "2023-05-15 06:06:58 +0000";
layers = (
{
hints = (
{
horizontal = 1;
place = (374, 55);
place = (374, 55);
type = Stem;
},
{
horizontal = 1;
place = (-12, 21);
target = up;
type = BottomGhost;
},
{
horizontal = 1;
place = (-11, 21);
target = up;
type = BottomGhost;
}
);
layerId = m01;
shapes = (
{
closed = 1;
nodes = (
(341,-12,o),
(395,27,o),
(444,94,c),
(452,105,o),
(459,111,o),
(449,123,c),
(446,126,o),
(441,125,o),
(435,118,c),
(428,109,o),
(412,90,o),
(397,73,c),
(378,52,o),
(357,32,o),
(351,34,c),
(340,37,o),
(351,68,o),
(353,75,c),
(413,306,l),
(418,326,o),
(421,349,o),
(421,367,c),
(421,405,o),
(406,429,o),
(379,429,c),
(310,429,o),
(206,272,o),
(166,221,c),
(158,211,o),
(158,211,o),
(161,224,c),
(172,275,o),
(182,326,o),
(192,378,c),
(197,405,o),
(195,428,o),
(177,429,c),
(146,431,o),
(69,331,o),
(49,304,c),
(45,299,o),
(46,290,o),
(49,284,c),
(50,281,o),
(57,280,o),
(60,283,c),
(66,292,o),
(100,337,o),
(108,342,c),
(118,348,o),
(115,333,o),
(115,330,c),
(51,9,l),
(46,-6,o),
(56,-11,o),
(67,-11,c),
(95,-11,l),
(111,-11,o),
(114,-9,o),
(117,8,c),
(148,160,l),
(176,199,o),
(296,374,o),
(338,374,c),
(361,374,o),
(351,338,o),
(348,326,c),
(283,66,l),
(275,33,o),
(273,-12,o),
(310,-12,c)
);
}
);
width = 469;
}
);
unicode = 110;
},
{
glyphname = ntilde;
lastChange = "2023-05-15 06:06:58 +0000";
layers = (
{
hints = (
{
horizontal = 1;
place = (611, -20);
target = down;
type = TopGhost;
},
{
horizontal = 1;
place = (480, 56);
place = (480, 56);
type = Stem;
},
{
horizontal = 1;
place = (374, 55);
place = (374, 55);
type = Stem;
},
{
horizontal = 1;
place = (-11, 21);
target = up;
type = BottomGhost;
},
{
horizontal = 1;
place = (551, 55);
place = (551, 55);
type = Stem;
},
{
horizontal = 1;
place = (-12, 21);
target = up;
type = BottomGhost;
}
);
layerId = m01;
shapes = (
{
closed = 1;
nodes = (
(341,-12,o),
(395,26,o),
(444,94,c),
(452,105,o),
(459,111,o),
(449,123,c),
(446,126,o),
(441,125,o),
(435,118,c),
(428,109,o),
(412,90,o),
(397,73,c),
(378,52,o),
(357,32,o),
(351,34,c),
(340,37,o),
(351,68,o),
(353,75,c),
(413,306,l),
(418,326,o),
(421,349,o),
(421,367,c),
(421,405,o),
(406,429,o),
(378,429,c),
(310,429,o),
(213,281,o),
(172,228,c),
(165,220,o),
(158,211,o),
(161,224,c),
(172,275,o),
(182,326,o),
(192,378,c),
(197,404,o),
(195,428,o),
(177,429,c),
(146,431,o),
(69,331,o),
(49,304,c),
(45,299,o),
(46,290,o),
(49,284,c),
(50,281,o),
(57,280,o),
(60,283,c),
(66,292,o),
(100,337,o),
(108,342,c),
(118,348,o),
(115,333,o),
(115,330,c),
(51,9,l),
(46,-6,o),
(56,-11,o),
(67,-11,c),
(95,-11,l),
(111,-11,o),
(114,-9,o),
(117,8,c),
(148,160,l),
(176,199,o),
(296,374,o),
(338,374,c),
(361,374,o),
(351,338,o),
(348,326,c),
(283,66,l),
(275,33,o),
(273,-12,o),
(310,-12,c)
);
},
{
closed = 1;
nodes = (
(140,472,o),
(146,475,o),
(149,478,c),
(150,483,o),
(152,486,o),
(153,489,c),
(154,493,l),
(155,494,o),
(155,495,o),
(155,496,c),
(172,534,o),
(188,551,o),
(209,551,c),
(224,551,o),
(233,547,o),
(265,520,c),
(297,493,o),
(327,480,o),
(353,480,c),
(410,480,o),
(460,522,o),
(475,595,c),
(475,596,o),
(475,598,o),
(476,600,c),
(476,602,o),
(476,605,o),
(475,608,c),
(476,609,o),
(475,612,o),
(468,611,c),
(463,611,o),
(457,610,o),
(456,607,c),
(436,551,o),
(422,536,o),
(398,536,c),
(385,536,o),
(369,542,o),
(342,565,c),
(303,597,o),
(282,606,o),
(253,606,c),
(193,606,o),
(149,565,o),
(127,476,c),
(127,472,o),
(129,471,o),
(135,471,c)
);
}
);
width = 469;
}
);
unicode = 241;
},
{
glyphname = o;
lastChange = "2023-05-15 06:06:58 +0000";
layers = (
{
hints = (
{
horizontal = 1;
place = (-12, 42);
place = (-12, 42);
type = Stem;
},
{
horizontal = 1;
place = (385, 44);
place = (385, 44);
type = Stem;
},
{
place = (38, 71);
place = (38, 71);
type = Stem;
},
{
place = (305, 69);
place = (305, 69);
type = Stem;
}
);
layerId = m01;
shapes = (
{
closed = 1;
nodes = (
(145,-12,o),
(165,-6,o),
(187,4,c),
(236,25,o),
(289,68,o),
(319,107,c),
(355,154,o),
(374,212,o),
(374,274,c),
(374,356,o),
(324,429,o),
(279,429,c),
(254,429,o),
(213,411,o),
(175,385,c),
(89,326,o),
(38,241,o),
(38,155,c),
(38,68,o),
(86,-12,o),
(131,-12,c)
);
},
{
closed = 1;
nodes = (
(140,30,o),
(109,83,o),
(109,151,c),
(109,275,o),
(166,385,o),
(228,385,c),
(270,385,o),
(305,332,o),
(305,261,c),
(305,139,o),
(242,30,o),
(176,30,c)
);
}
);
width = 398;
}
);
unicode = 111;
},
{
glyphname = oacute;
lastChange = "2023-05-15 06:06:58 +0000";
layers = (
{
hints = (
{
horizontal = 1;
place = (-12, 42);
place = (-12, 42);
type = Stem;
},
{
horizontal = 1;
place = (385, 44);
place = (385, 44);
type = Stem;
},
{
horizontal = 1;
place = (658, -20);
target = down;
type = TopGhost;
},
{
place = (38, 71);
place = (38, 71);
type = Stem;
},
{
place = (305, 69);
place = (305, 69);
type = Stem;
}
);
layerId = m01;
shapes = (
{
closed = 1;
nodes = (
(145,-12,o),
(165,-6,o),
(187,4,c),
(236,25,o),
(289,68,o),
(319,107,c),
(355,154,o),
(374,212,o),
(374,274,c),
(374,356,o),
(324,429,o),
(279,429,c),
(254,429,o),
(213,411,o),
(175,385,c),
(89,326,o),
(38,241,o),
(38,155,c),
(38,68,o),
(86,-12,o),
(131,-12,c)
);
},
{
closed = 1;
nodes = (
(140,30,o),
(109,83,o),
(109,151,c),
(109,275,o),
(166,385,o),
(228,385,c),
(270,385,o),
(305,332,o),
(305,261,c),
(305,139,o),
(242,30,o),
(176,30,c)
);
},
{
closed = 1;
nodes = (
(277,534,o),
(340,604,o),
(369,644,c),
(377,655,o),
(366,659,o),
(358,658,c),
(340,660,o),
(310,659,o),
(293,658,c),
(283,658,o),
(277,656,o),
(274,648,c),
(270,623,o),
(243,538,o),
(232,503,c),
(229,494,o),
(241,493,o),
(246,499,c)
);
}
);
width = 398;
}
);
unicode = 243;
},
{
glyphname = ocircumflex;
lastChange = "2023-05-15 06:06:58 +0000";
layers = (
{
hints = (
{
horizontal = 1;
place = (-12, 42);
place = (-12, 42);
type = Stem;
},
{
horizontal = 1;
place = (385, 44);
place = (385, 44);
type = Stem;
},
{
horizontal = 1;
place = (641, -20);
target = down;
type = TopGhost;
},
{
place = (38, 71);
place = (38, 71);
type = Stem;
},
{
place = (305, 69);
place = (305, 69);
type = Stem;
}
);
layerId = m01;
shapes = (
{
closed = 1;
nodes = (
(145,-12,o),
(165,-6,o),
(187,4,c),
(236,25,o),
(289,68,o),
(319,107,c),
(355,154,o),
(374,212,o),
(374,274,c),
(374,356,o),
(324,429,o),
(279,429,c),
(254,429,o),
(213,411,o),
(175,385,c),
(89,326,o),
(38,241,o),
(38,155,c),
(38,68,o),
(86,-12,o),
(131,-12,c)
);
},
{
closed = 1;
nodes = (
(140,30,o),
(109,83,o),
(109,151,c),
(109,275,o),
(166,385,o),
(228,385,c),
(270,385,o),
(305,332,o),
(305,261,c),
(305,139,o),
(242,30,o),
(176,30,c)
);
},
{
closed = 1;
nodes = (
(152,478,l),
(301,574,l),
(306,577,o),
(311,577,o),
(314,573,c),
(393,478,l),
(399,478,l),
(405,478,o),
(405,482,o),
(404,488,c),
(370,625,l),
(367,637,o),
(362,639,o),
(352,640,c),
(341,640,o),
(319,642,o),
(308,641,c),
(300,641,o),
(292,639,o),
(286,632,c),
(140,485,l),
(137,482,o),
(136,479,o),
(140,478,c)
);
}
);
width = 398;
}
);
unicode = 244;
},
{
glyphname = odieresis;
lastChange = "2023-05-15 06:06:58 +0000";
layers = (
{
hints = (
{
place = (305, 109);
place = (305, 109);
type = Stem;
},
{
horizontal = 1;
place = (484, 106);
place = (484, 106);
type = Stem;
},
{
place = (143, 103);
place = (143, 103);
type = Stem;
},
{
horizontal = 1;
place = (-12, 42);
place = (-12, 42);
type = Stem;
},
{
horizontal = 1;
place = (385, 44);
place = (385, 44);
type = Stem;
},
{
place = (38, 71);
place = (38, 71);
type = Stem;
},
{
horizontal = 1;
place = (589, -20);
target = down;
type = TopGhost;
},
{
place = (305, 69);
place = (305, 69);
type = Stem;
}
);
layerId = m01;
shapes = (
{
closed = 1;
nodes = (
(145,-12,o),
(165,-6,o),
(187,4,c),
(236,25,o),
(289,68,o),
(319,107,c),
(355,154,o),
(374,212,o),
(374,274,c),
(374,356,o),
(324,429,o),
(279,429,c),
(254,429,o),
(213,411,o),
(175,385,c),
(89,326,o),
(38,241,o),
(38,155,c),
(38,68,o),
(86,-12,o),
(131,-12,c)
);
},
{
closed = 1;
nodes = (
(140,30,o),
(109,83,o),
(109,151,c),
(109,275,o),
(166,385,o),
(228,385,c),
(270,385,o),
(305,332,o),
(305,261,c),
(305,139,o),
(242,30,o),
(176,30,c)
);
},
{
closed = 1;
nodes = (
(222,484,o),
(246,508,o),
(246,536,c),
(246,566,o),
(222,589,o),
(194,589,c),
(166,589,o),
(143,566,o),
(143,536,c),
(143,508,o),
(166,484,o),
(194,484,c)
);
},
{
closed = 1;
nodes = (
(391,484,o),
(414,508,o),
(414,537,c),
(414,567,o),
(391,590,o),
(362,590,c),
(334,590,o),
(310,567,o),
(310,537,c),
(310,508,o),
(334,484,o),
(362,484,c)
);
}
);
width = 398;
}
);
unicode = 246;
},
{
glyphname = ograve;
lastChange = "2023-05-15 06:06:58 +0000";
layers = (
{
hints = (
{
horizontal = 1;
place = (-12, 42);
place = (-12, 42);
type = Stem;
},
{
horizontal = 1;
place = (385, 44);
place = (385, 44);
type = Stem;
},
{
horizontal = 1;
place = (657, -20);
target = down;
type = TopGhost;
},
{
place = (38, 71);
place = (38, 71);
type = Stem;
},
{
place = (305, 69);
place = (305, 69);
type = Stem;
}
);
layerId = m01;
shapes = (
{
closed = 1;
nodes = (
(145,-12,o),
(165,-6,o),
(187,4,c),
(236,25,o),
(289,68,o),
(319,107,c),
(355,154,o),
(374,212,o),
(374,274,c),
(374,356,o),
(324,429,o),
(279,429,c),
(254,429,o),
(213,411,o),
(175,385,c),
(89,326,o),
(38,241,o),
(38,155,c),
(38,68,o),
(86,-12,o),
(131,-12,c)
);
},
{
closed = 1;
nodes = (
(140,30,o),
(109,83,o),
(109,151,c),
(109,275,o),
(166,385,o),
(228,385,c),
(270,385,o),
(305,332,o),
(305,261,c),
(305,139,o),
(242,30,o),
(176,30,c)
);
},
{
closed = 1;
nodes = (
(324,494,o),
(327,496,o),
(326,499,c),
(278,651,l),
(277,652,o),
(277,653,o),
(276,654,c),
(274,658,o),
(269,657,o),
(265,657,c),
(191,657,l),
(185,657,o),
(176,652,o),
(185,644,c),
(308,498,l),
(310,495,o),
(315,494,o),
(319,494,c)
);
}
);
width = 398;
}
);
unicode = 242;
},
{
glyphname = oslash;
lastChange = "2023-05-15 06:06:58 +0000";
layers = (
{
hints = (
{
horizontal = 1;
place = (-14, 41);
place = (-14, 41);
type = Stem;
},
{
horizontal = 1;
place = (381, 44);
place = (381, 44);
type = Stem;
},
{
place = (46, 70);
place = (46, 70);
type = Stem;
},
{
place = (311, 69);
place = (311, 69);
type = Stem;
}
);
layerId = m01;
shapes = (
{
closed = 1;
nodes = (
(152,-14,o),
(172,-8,o),
(194,2,c),
(243,23,o),
(296,66,o),
(326,105,c),
(361,151,o),
(380,209,o),
(380,271,c),
(380,302,o),
(376,328,o),
(365,352,c),
(360,363,o),
(365,368,o),
(370,373,c),
(396,404,l),
(402,411,o),
(399,415,o),
(397,418,c),
(394,422,l),
(391,425,o),
(388,426,o),
(384,422,c),
(360,393,l),
(354,387,o),
(350,381,o),
(345,388,c),
(326,411,o),
(304,425,o),
(286,425,c),
(245,425,o),
(172,383,o),
(125,333,c),
(75,281,o),
(46,214,o),
(46,150,c),
(46,120,o),
(51,91,o),
(61,64,c),
(63,58,o),
(65,49,o),
(59,42,c),
(30,7,l),
(24,0,o),
(28,-4,o),
(32,-9,c),
(36,-15,o),
(40,-12,o),
(44,-8,c),
(69,21,l),
(75,28,o),
(78,29,o),
(84,22,c),
(101,-3,o),
(119,-14,o),
(139,-14,c)
);
},
{
closed = 1;
nodes = (
(163,27,o),
(144,44,o),
(130,76,c),
(126,85,o),
(128,90,o),
(134,97,c),
(293,284,l),
(304,297,o),
(307,296,o),
(309,285,c),
(311,274,o),
(311,267,o),
(311,257,c),
(311,136,o),
(249,27,o),
(183,27,c)
);
},
{
closed = 1;
nodes = (
(123,116,o),
(119,111,o),
(117,129,c),
(116,136,o),
(116,143,o),
(116,152,c),
(116,272,o),
(174,381,o),
(235,381,c),
(259,381,o),
(281,364,o),
(295,333,c),
(298,328,o),
(298,321,o),
(292,314,c),
(131,125,l)
);
}
);
width = 403;
}
);
unicode = 248;
},
{
glyphname = otilde;
lastChange = "2023-05-15 06:06:58 +0000";
layers = (
{
hints = (
{
place = (305, 69);
place = (305, 69);
type = Stem;
},
{
horizontal = 1;
place = (385, 44);
place = (385, 44);
type = Stem;
},
{
place = (38, 71);
place = (38, 71);
type = Stem;
},
{
horizontal = 1;
place = (-12, 42);
place = (-12, 42);
type = Stem;
},
{
horizontal = 1;
place = (625, -20);
target = down;
type = TopGhost;
},
{
horizontal = 1;
place = (490, 66);
place = (490, 66);
type = Stem;
},
{
horizontal = 1;
place = (560, 66);
place = (560, 66);
type = Stem;
}
);
layerId = m01;
shapes = (
{
closed = 1;
nodes = (
(145,-12,o),
(165,-6,o),
(187,4,c),
(236,25,o),
(289,68,o),
(319,107,c),
(355,154,o),
(374,212,o),
(374,274,c),
(374,356,o),
(324,429,o),
(279,429,c),
(254,429,o),
(213,411,o),
(175,385,c),
(89,326,o),
(38,241,o),
(38,155,c),
(38,68,o),
(86,-12,o),
(131,-12,c)
);
},
{
closed = 1;
nodes = (
(140,30,o),
(109,83,o),
(109,151,c),
(109,275,o),
(166,385,o),
(228,385,c),
(270,385,o),
(305,332,o),
(305,261,c),
(305,139,o),
(242,30,o),
(176,30,c)
);
},
{
closed = 1;
nodes = (
(395,490,o),
(435,543,o),
(435,612,c),
(435,619,o),
(435,625,o),
(426,625,c),
(418,625,o),
(416,623,o),
(415,615,c),
(408,572,o),
(394,556,o),
(371,556,c),
(332,556,o),
(273,626,o),
(211,626,c),
(157,626,o),
(124,584,o),
(117,505,c),
(116,495,o),
(118,491,o),
(125,491,c),
(133,491,o),
(136,493,o),
(137,499,c),
(146,547,o),
(157,560,o),
(182,560,c),
(221,560,o),
(275,490,o),
(342,490,c)
);
}
);
width = 398;
}
);
unicode = 245;
},
{
glyphname = oe;
lastChange = "2023-05-15 06:06:58 +0000";
layers = (
{
hints = (
{
place = (535, 57);
place = (535, 57);
type = Stem;
},
{
horizontal = 1;
place = (385, 39);
place = (385, 39);
type = Stem;
},
{
place = (33, 68);
place = (33, 68);
type = Stem;
},
{
horizontal = 1;
place = (-15, 40);
place = (-15, 40);
type = Stem;
},
{
place = (290, 53);
place = (290, 53);
type = Stem;
},
{
horizontal = 1;
place = (-14, 21);
target = up;
type = BottomGhost;
},
{
horizontal = 1;
place = (399, 25);
place = (399, 25);
type = Stem;
}
);
layerId = m01;
shapes = (
{
closed = 1;
nodes = (
(146,-15,o),
(184,1,o),
(214,20,c),
(235,34,o),
(248,44,o),
(271,68,c),
(278,76,o),
(284,73,o),
(288,62,c),
(307,11,o),
(337,-14,o),
(378,-14,c),
(424,-14,o),
(485,11,o),
(548,60,c),
(552,64,o),
(551,71,o),
(549,76,c),
(546,82,o),
(542,82,o),
(539,79,c),
(491,42,o),
(453,25,o),
(420,25,c),
(370,25,o),
(343,60,o),
(343,127,c),
(343,143,o),
(343,153,o),
(345,168,c),
(347,187,o),
(352,187,o),
(359,188,c),
(404,200,o),
(457,219,o),
(504,242,c),
(560,270,o),
(592,308,o),
(592,349,c),
(592,395,o),
(558,424,o),
(505,424,c),
(448,424,o),
(400,398,o),
(360,342,c),
(354,334,o),
(349,329,o),
(346,340,c),
(329,398,o),
(303,424,o),
(264,424,c),
(237,424,o),
(206,412,o),
(171,388,c),
(82,326,o),
(33,237,o),
(33,137,c),
(33,56,o),
(75,-15,o),
(124,-15,c)
);
},
{
closed = 1;
nodes = (
(109,29,o),
(101,120,o),
(101,167,c),
(101,289,o),
(162,385,o),
(226,385,c),
(261,385,o),
(290,336,o),
(290,266,c),
(290,144,o),
(233,29,o),
(176,29,c)
);
},
{
closed = 1;
nodes = (
(354,210,o),
(353,216,o),
(356,229,c),
(383,347,o),
(424,399,o),
(484,399,c),
(514,399,o),
(535,377,o),
(535,347,c),
(535,292,o),
(476,243,o),
(367,213,c)
);
}
);
width = 581;
}
);
unicode = 339;
},
{
glyphname = p;
lastChange = "2023-05-15 06:06:58 +0000";
layers = (
{
hints = (
{
place = (346, 68);
place = (346, 68);
type = Stem;
},
{
horizontal = 1;
place = (373, 55);
place = (373, 55);
type = Stem;
},
{
place = (206, 140);
place = (206, 140);
type = Stem;
},
{
horizontal = 1;
place = (-274, 23);
place = (-274, 23);
type = Stem;
},
{
horizontal = 1;
place = (429, -20);
target = down;
type = TopGhost;
}
);
layerId = m01;
shapes = (
{
closed = 1;
nodes = (
(-14,-272,o),
(94,-271,o),
(162,-274,c),
(177,-275,o),
(179,-251,o),
(171,-251,c),
(98,-248,o),
(80,-245,o),
(93,-177,c),
(104,-123,o),
(117,-67,o),
(129,-14,c),
(129,-11,o),
(131,-3,o),
(135,-5,c),
(284,-50,o),
(414,142,o),
(414,276,c),
(414,335,o),
(394,428,o),
(344,428,c),
(285,428,o),
(230,334,o),
(200,292,c),
(193,281,o),
(187,269,o),
(193,302,c),
(199,333,o),
(206,366,o),
(206,398,c),
(206,418,o),
(201,429,o),
(187,429,c),
(160,429,o),
(92,375,o),
(40,298,c),
(30,283,o),
(48,271,o),
(53,278,c),
(59,285,o),
(73,303,o),
(88,320,c),
(102,336,o),
(119,352,o),
(129,352,c),
(137,352,o),
(128,314,o),
(127,309,c),
(93,146,o),
(59,-13,o),
(27,-175,c),
(19,-216,o),
(15,-242,o),
(-40,-249,c),
(-48,-250,o),
(-59,-249,o),
(-63,-255,c),
(-66,-260,o),
(-69,-274,o),
(-62,-274,c)
);
},
{
closed = 1;
nodes = (
(173,17,o),
(158,25,o),
(149,31,c),
(143,35,o),
(143,41,o),
(143,50,c),
(176,213,l),
(196,244,o),
(222,282,o),
(246,314,c),
(271,347,o),
(293,373,o),
(307,373,c),
(330,373,o),
(346,331,o),
(346,272,c),
(346,140,o),
(267,17,o),
(185,17,c)
);
}
);
width = 445;
}
);
unicode = 112;
},
{
glyphname = thorn;
lastChange = "2023-05-15 06:06:58 +0000";
layers = (
{
hints = (
{
horizontal = 1;
place = (-245, 26);
place = (-245, 26);
type = Stem;
},
{
horizontal = 1;
place = (-14, 29);
place = (-14, 29);
type = Stem;
},
{
horizontal = 1;
place = (367, 57);
place = (367, 57);
type = Stem;
},
{
horizontal = 1;
place = (700, -20);
target = down;
type = TopGhost;
},
{
place = (362, 68);
place = (362, 68);
type = Stem;
}
);
layerId = m01;
shapes = (
{
closed = 1;
nodes = (
(5,-242,o),
(101,-243,o),
(157,-245,c),
(171,-246,o),
(175,-243,o),
(177,-231,c),
(179,-224,o),
(174,-219,o),
(167,-219,c),
(77,-215,o),
(96,-187,o),
(109,-119,c),
(127,-25,l),
(130,-10,o),
(140,-8,o),
(146,-10,c),
(160,-13,o),
(172,-14,o),
(185,-14,c),
(310,-14,o),
(430,127,o),
(430,273,c),
(430,307,o),
(410,424,o),
(360,424,c),
(314,424,o),
(227,323,o),
(202,291,c),
(195,282,o),
(190,291,o),
(192,302,c),
(253,607,l),
(256,624,o),
(273,700,o),
(241,700,c),
(217,700,o),
(158,653,o),
(105,587,c),
(100,581,o),
(91,572,o),
(101,562,c),
(107,556,o),
(113,558,o),
(120,566,c),
(122,568,o),
(161,615,o),
(180,615,c),
(187,615,o),
(186,606,o),
(182,585,c),
(16,-250,o),
(43,-115,o),
(38,-139,c),
(27,-197,o),
(4,-215,o),
(-46,-218,c),
(-60,-219,o),
(-63,-220,o),
(-68,-230,c),
(-71,-242,o),
(-64,-246,o),
(-58,-245,c)
);
},
{
closed = 1;
nodes = (
(183,15,o),
(169,19,o),
(153,30,c),
(144,36,o),
(143,50,o),
(146,66,c),
(175,213,l),
(236,302,o),
(298,367,o),
(320,367,c),
(343,367,o),
(362,327,o),
(362,269,c),
(362,137,o),
(284,15,o),
(202,15,c)
);
}
);
width = 446;
}
);
unicode = 254;
},
{
glyphname = q;
lastChange = "2023-05-15 06:06:58 +0000";
layers = (
{
hints = (
{
horizontal = 1;
place = (-12, 57);
place = (-12, 57);
type = Stem;
},
{
horizontal = 1;
place = (370, 59);
place = (370, 59);
type = Stem;
},
{
place = (52, 69);
place = (52, 69);
type = Stem;
}
);
layerId = m01;
shapes = (
{
closed = 1;
nodes = (
(202,-272,o),
(255,-272,o),
(346,-274,c),
(353,-276,o),
(359,-270,o),
(360,-262,c),
(362,-254,o),
(358,-249,o),
(352,-250,c),
(322,-250,o),
(282,-256,o),
(282,-215,c),
(282,-193,o),
(289,-171,o),
(293,-150,c),
(407,405,l),
(411,423,o),
(403,429,o),
(388,429,c),
(286,429,o),
(200,377,o),
(135,299,c),
(81,236,o),
(52,169,o),
(52,106,c),
(52,45,o),
(80,-12,o),
(114,-12,c),
(155,-12,o),
(248,83,o),
(276,117,c),
(284,127,o),
(279,100,o),
(277,93,c),
(231,-125,o),
(222,-170,o),
(218,-190,c),
(209,-236,o),
(199,-243,o),
(131,-250,c),
(120,-247,o),
(111,-272,o),
(123,-274,c)
);
},
{
closed = 1;
nodes = (
(133,45,o),
(121,70,o),
(121,122,c),
(121,203,o),
(156,288,o),
(209,331,c),
(237,354,o),
(269,367,o),
(323,370,c),
(327,370,o),
(332,368,o),
(330,356,c),
(294,170,l),
(213,82,o),
(175,45,o),
(155,45,c)
);
}
);
width = 426;
}
);
unicode = 113;
},
{
glyphname = r;
lastChange = "2023-05-15 06:06:58 +0000";
layers = (
{
hints = (
{
horizontal = 1;
place = (428, -20);
target = down;
type = TopGhost;
},
{
horizontal = 1;
place = (-12, 21);
target = up;
type = BottomGhost;
}
);
layerId = m01;
shapes = (
{
closed = 1;
nodes = (
(81,-12,o),
(87,-12,o),
(97,-12,c),
(111,-12,o),
(117,-4,o),
(119,6,c),
(131,56,o),
(136,95,o),
(155,144,c),
(165,170,o),
(182,221,o),
(204,266,c),
(225,307,o),
(249,342,o),
(282,347,c),
(288,345,o),
(294,343,o),
(300,341,c),
(330,331,o),
(344,355,o),
(341,395,c),
(339,420,o),
(320,428,o),
(304,428,c),
(239,428,o),
(178,271,o),
(155,208,c),
(143,174,o),
(143,185,o),
(151,218,c),
(155,233,o),
(158,248,o),
(161,264,c),
(166,288,o),
(172,319,o),
(177,354,c),
(179,369,o),
(182,384,o),
(181,399,c),
(180,416,o),
(175,428,o),
(160,428,c),
(138,428,o),
(103,392,o),
(40,314,c),
(34,308,o),
(36,300,o),
(39,296,c),
(42,292,o),
(49,294,o),
(55,300,c),
(59,306,o),
(95,352,o),
(104,352,c),
(111,352,o),
(113,338,o),
(111,325,c),
(58,11,l),
(56,0,o),
(56,-12,o),
(70,-12,c)
);
}
);
width = 323;
}
);
unicode = 114;
},
{
glyphname = s;
lastChange = "2023-05-15 06:06:58 +0000";
layers = (
{
hints = (
{
horizontal = 1;
place = (-12, 37);
place = (-12, 37);
type = Stem;
},
{
horizontal = 1;
place = (394, 35);
place = (394, 35);
type = Stem;
}
);
layerId = m01;
shapes = (
{
closed = 1;
nodes = (
(193,-12,o),
(257,40,o),
(257,120,c),
(257,153,o),
(243,183,o),
(213,218,c),
(191,244,o),
(143,291,o),
(143,326,c),
(143,354,o),
(176,394,o),
(204,394,c),
(226,394,o),
(245,362,o),
(255,345,c),
(262,332,o),
(272,324,o),
(283,324,c),
(300,324,o),
(313,340,o),
(313,359,c),
(313,391,o),
(272,429,o),
(238,429,c),
(205,429,o),
(169,410,o),
(138,379,c),
(80,319,o),
(80,270,o),
(132,207,c),
(160,174,o),
(212,123,o),
(212,77,c),
(212,48,o),
(188,25,o),
(158,25,c),
(129,25,o),
(105,44,o),
(82,58,c),
(58,73,o),
(19,82,o),
(14,37,c),
(10,6,o),
(44,-12,o),
(94,-12,c)
);
}
);
width = 320;
}
);
unicode = 115;
},
{
glyphname = scaron;
lastChange = "2023-05-15 06:06:58 +0000";
layers = (
{
hints = (
{
horizontal = 1;
place = (-12, 37);
place = (-12, 37);
type = Stem;
},
{
horizontal = 1;
place = (394, 35);
place = (394, 35);
type = Stem;
},
{
horizontal = 1;
place = (429, 49);
place = (429, 49);
type = Stem;
},
{
horizontal = 1;
place = (641, -20);
target = down;
type = TopGhost;
}
);
layerId = m01;
shapes = (
{
closed = 1;
nodes = (
(193,-12,o),
(257,40,o),
(257,120,c),
(257,153,o),
(243,183,o),
(213,218,c),
(191,244,o),
(143,291,o),
(143,326,c),
(143,354,o),
(176,394,o),
(204,394,c),
(226,394,o),
(245,362,o),
(255,345,c),
(262,332,o),
(272,324,o),
(283,324,c),
(300,324,o),
(313,340,o),
(313,359,c),
(313,391,o),
(272,429,o),
(238,429,c),
(205,429,o),
(169,410,o),
(138,379,c),
(80,319,o),
(80,270,o),
(132,207,c),
(160,174,o),
(212,123,o),
(212,77,c),
(212,48,o),
(188,25,o),
(158,25,c),
(129,25,o),
(105,44,o),
(82,58,c),
(58,73,o),
(19,82,o),
(14,37,c),
(10,6,o),
(44,-12,o),
(94,-12,c)
);
},
{
closed = 1;
nodes = (
(284,478,l),
(442,641,l),
(424,641,l),
(267,539,l),
(183,641,l),
(170,641,l),
(208,478,l)
);
}
);
width = 320;
}
);
unicode = 353;
},
{
glyphname = germandbls;
lastChange = "2023-05-15 06:06:58 +0000";
layers = (
{
hints = (
{
place = (408, 67);
place = (408, 67);
type = Stem;
},
{
horizontal = 1;
place = (674, 25);
place = (674, 25);
type = Stem;
},
{
horizontal = 1;
place = (-243, 37);
place = (-243, 37);
type = Stem;
},
{
horizontal = 1;
place = (-14, 32);
place = (-14, 32);
type = Stem;
},
{
horizontal = 1;
place = (-243, 86);
place = (-243, 86);
type = Stem;
},
{
place = (350, 72);
place = (350, 72);
type = Stem;
},
{
horizontal = 1;
place = (-14, 71);
place = (-14, 71);
type = Stem;
}
);
layerId = m01;
shapes = (
{
closed = 1;
nodes = (
(-61,-243,o),
(-26,-227,o),
(5,-196,c),
(30,-170,o),
(52,-138,o),
(69,-103,c),
(103,-33,o),
(120,27,o),
(141,149,c),
(180,374,l),
(199,484,o),
(216,551,o),
(236,594,c),
(257,640,o),
(300,674,o),
(339,674,c),
(379,674,o),
(408,638,o),
(408,586,c),
(408,530,o),
(383,476,o),
(343,444,c),
(322,427,o),
(307,420,o),
(271,413,c),
(263,412,o),
(260,409,o),
(259,403,c),
(258,394,o),
(262,392,o),
(269,387,c),
(287,377,o),
(294,371,o),
(304,361,c),
(333,332,o),
(350,281,o),
(350,225,c),
(350,109,o),
(310,18,o),
(261,18,c),
(255,18,o),
(247,22,o),
(240,29,c),
(229,41,o),
(215,57,o),
(196,57,c),
(181,57,o),
(168,44,o),
(168,27,c),
(168,2,o),
(192,-14,o),
(225,-14,c),
(263,-14,o),
(302,6,o),
(338,43,c),
(391,98,o),
(422,173,o),
(422,245,c),
(422,316,o),
(395,365,o),
(333,397,c),
(323,401,o),
(324,408,o),
(335,411,c),
(356,417,o),
(366,422,o),
(383,431,c),
(439,460,o),
(475,516,o),
(475,573,c),
(475,644,o),
(424,699,o),
(359,699,c),
(306,699,o),
(244,664,o),
(206,614,c),
(183,584,o),
(164,548,o),
(151,510,c),
(132,456,o),
(126,429,o),
(104,303,c),
(51,-1,l),
(39,-70,o),
(27,-113,o),
(12,-148,c),
(-4,-183,o),
(-32,-206,o),
(-57,-206,c),
(-72,-206,o),
(-85,-200,o),
(-109,-180,c),
(-131,-163,o),
(-142,-157,o),
(-158,-157,c),
(-175,-157,o),
(-190,-170,o),
(-190,-187,c),
(-190,-219,o),
(-148,-243,o),
(-99,-243,c)
);
}
);
width = 446;
}
);
unicode = 223;
},
{
glyphname = t;
lastChange = "2023-05-15 06:06:58 +0000";
layers = (
{
hints = (
{
horizontal = 1;
place = (-12, 47);
place = (-12, 47);
type = Stem;
},
{
horizontal = 1;
place = (378, 41);
place = (378, 41);
type = Stem;
}
);
layerId = m01;
shapes = (
{
closed = 1;
nodes = (
(133,-12,o),
(187,28,o),
(245,91,c),
(253,98,o),
(240,121,o),
(231,111,c),
(214,93,o),
(159,35,o),
(136,35,c),
(122,35,o),
(128,58,o),
(130,66,c),
(199,369,l),
(202,378,o),
(200,375,o),
(210,378,c),
(276,378,l),
(283,377,o),
(287,388,o),
(289,398,c),
(291,408,o),
(291,419,o),
(285,419,c),
(221,419,l),
(215,418,o),
(209,421,o),
(210,426,c),
(212,436,o),
(222,464,o),
(258,552,c),
(257,566,o),
(243,561,o),
(238,553,c),
(198,489,o),
(159,434,o),
(81,395,c),
(72,391,o),
(74,378,o),
(86,378,c),
(124,378,l),
(138,378,o),
(132,364,o),
(130,355,c),
(108,266,o),
(112,284,o),
(80,152,c),
(65,90,o),
(59,47,o),
(59,30,c),
(59,3,o),
(74,-12,o),
(96,-12,c)
);
}
);
width = 282;
}
);
unicode = 116;
},
{
glyphname = u;
lastChange = "2023-05-15 06:06:58 +0000";
layers = (
{
hints = (
{
horizontal = 1;
place = (430, -20);
target = down;
type = TopGhost;
},
{
horizontal = 1;
place = (-12, 21);
target = up;
type = BottomGhost;
},
{
horizontal = 1;
place = (427, -20);
target = down;
type = TopGhost;
}
);
layerId = m01;
shapes = (
{
closed = 1;
nodes = (
(155,-12,o),
(240,83,o),
(318,204,c),
(324,214,o),
(334,223,o),
(329,205,c),
(316,156,o),
(297,69,o),
(297,19,c),
(297,1,o),
(305,-12,o),
(318,-12,c),
(339,-12,o),
(402,44,o),
(453,109,c),
(456,119,o),
(444,135,o),
(438,125,c),
(427,111,o),
(413,96,o),
(401,83,c),
(391,72,o),
(364,44,o),
(372,83,c),
(435,405,l),
(437,416,o),
(438,430,o),
(420,430,c),
(400,429,o),
(404,429,o),
(389,430,c),
(375,430,o),
(369,425,o),
(367,414,c),
(361,378,o),
(356,341,o),
(345,306,c),
(326,243,o),
(237,117,o),
(192,76,c),
(145,34,o),
(150,76,o),
(157,110,c),
(206,356,l),
(210,374,o),
(220,427,o),
(189,427,c),
(154,427,o),
(77,328,o),
(64,309,c),
(58,301,o),
(69,284,o),
(79,298,c),
(89,310,o),
(118,355,o),
(134,355,c),
(139,355,o),
(135,341,o),
(134,337,c),
(89,111,l),
(85,90,o),
(63,-12,o),
(111,-12,c)
);
}
);
width = 487;
}
);
unicode = 117;
},
{
glyphname = uacute;
lastChange = "2023-05-15 06:06:58 +0000";
layers = (
{
hints = (
{
horizontal = 1;
place = (658, -20);
target = down;
type = TopGhost;
},
{
horizontal = 1;
place = (430, -20);
target = down;
type = TopGhost;
},
{
horizontal = 1;
place = (-12, 21);
target = up;
type = BottomGhost;
},
{
horizontal = 1;
place = (427, -20);
target = down;
type = TopGhost;
}
);
layerId = m01;
shapes = (
{
closed = 1;
nodes = (
(155,-12,o),
(240,83,o),
(317,204,c),
(324,214,o),
(334,223,o),
(329,205,c),
(316,156,o),
(297,69,o),
(297,19,c),
(297,1,o),
(305,-12,o),
(318,-12,c),
(339,-12,o),
(402,44,o),
(453,109,c),
(456,119,o),
(444,135,o),
(438,125,c),
(427,111,o),
(413,96,o),
(401,83,c),
(391,72,o),
(364,44,o),
(372,83,c),
(435,405,l),
(437,416,o),
(438,430,o),
(420,430,c),
(400,429,o),
(404,429,o),
(389,430,c),
(375,430,o),
(369,425,o),
(367,414,c),
(361,378,o),
(356,341,o),
(345,306,c),
(326,243,o),
(237,117,o),
(192,76,c),
(145,34,o),
(150,76,o),
(157,110,c),
(206,356,l),
(210,374,o),
(220,427,o),
(189,427,c),
(154,427,o),
(77,328,o),
(64,309,c),
(58,301,o),
(69,284,o),
(79,298,c),
(89,310,o),
(118,355,o),
(134,355,c),
(139,355,o),
(135,341,o),
(134,337,c),
(89,111,l),
(85,90,o),
(63,-12,o),
(111,-12,c)
);
},
{
closed = 1;
nodes = (
(314,534,o),
(376,604,o),
(405,644,c),
(413,655,o),
(403,659,o),
(395,658,c),
(377,660,o),
(347,659,o),
(329,658,c),
(319,658,o),
(314,656,o),
(311,648,c),
(306,623,o),
(278,538,o),
(268,503,c),
(265,494,o),
(277,493,o),
(283,499,c)
);
}
);
width = 487;
}
);
unicode = 250;
},
{
glyphname = ucircumflex;
lastChange = "2023-05-15 06:06:58 +0000";
layers = (
{
hints = (
{
horizontal = 1;
place = (430, -20);
target = down;
type = TopGhost;
},
{
horizontal = 1;
place = (-12, 21);
target = up;
type = BottomGhost;
},
{
horizontal = 1;
place = (641, -20);
target = down;
type = TopGhost;
},
{
horizontal = 1;
place = (427, -20);
target = down;
type = TopGhost;
}
);
layerId = m01;
shapes = (
{
closed = 1;
nodes = (
(155,-12,o),
(240,83,o),
(317,204,c),
(324,214,o),
(334,223,o),
(329,205,c),
(316,156,o),
(297,69,o),
(297,19,c),
(297,1,o),
(305,-12,o),
(318,-12,c),
(339,-12,o),
(402,44,o),
(453,109,c),
(456,119,o),
(444,135,o),
(438,125,c),
(427,111,o),
(413,96,o),
(401,83,c),
(391,72,o),
(364,44,o),
(372,83,c),
(435,405,l),
(437,416,o),
(438,430,o),
(420,430,c),
(400,429,o),
(404,429,o),
(389,430,c),
(375,430,o),
(369,425,o),
(367,414,c),
(361,378,o),
(356,341,o),
(345,306,c),
(326,243,o),
(237,117,o),
(192,76,c),
(145,34,o),
(150,76,o),
(157,110,c),
(206,356,l),
(210,374,o),
(220,427,o),
(189,427,c),
(154,427,o),
(77,328,o),
(64,309,c),
(58,301,o),
(69,284,o),
(79,298,c),
(89,310,o),
(118,355,o),
(134,355,c),
(139,355,o),
(135,341,o),
(134,337,c),
(89,111,l),
(85,90,o),
(63,-12,o),
(111,-12,c)
);
},
{
closed = 1;
nodes = (
(178,478,l),
(327,574,l),
(332,577,o),
(337,577,o),
(340,573,c),
(419,478,l),
(425,478,l),
(431,478,o),
(431,482,o),
(430,488,c),
(396,625,l),
(393,637,o),
(388,639,o),
(378,640,c),
(367,640,o),
(345,642,o),
(334,641,c),
(326,641,o),
(318,639,o),
(312,632,c),
(166,485,l),
(163,482,o),
(162,479,o),
(166,478,c)
);
}
);
width = 487;
}
);
unicode = 251;
},
{
glyphname = udieresis;
lastChange = "2023-05-15 06:06:58 +0000";
layers = (
{
hints = (
{
place = (346, 104);
place = (346, 104);
type = Stem;
},
{
horizontal = 1;
place = (484, 106);
place = (484, 106);
type = Stem;
},
{
place = (180, 102);
place = (180, 102);
type = Stem;
},
{
horizontal = 1;
place = (430, -20);
target = down;
type = TopGhost;
},
{
horizontal = 1;
place = (-12, 21);
target = up;
type = BottomGhost;
},
{
horizontal = 1;
place = (589, -20);
target = down;
type = TopGhost;
},
{
horizontal = 1;
place = (427, -20);
target = down;
type = TopGhost;
}
);
layerId = m01;
shapes = (
{
closed = 1;
nodes = (
(155,-12,o),
(240,83,o),
(317,204,c),
(324,214,o),
(334,223,o),
(329,205,c),
(316,156,o),
(297,69,o),
(297,19,c),
(297,1,o),
(305,-12,o),
(318,-12,c),
(339,-12,o),
(402,44,o),
(453,109,c),
(456,119,o),
(444,135,o),
(438,125,c),
(427,111,o),
(413,96,o),
(401,83,c),
(391,72,o),
(364,44,o),
(372,83,c),
(435,405,l),
(437,416,o),
(438,430,o),
(420,430,c),
(400,429,o),
(404,429,o),
(389,430,c),
(375,430,o),
(369,425,o),
(367,414,c),
(361,378,o),
(356,341,o),
(345,306,c),
(326,243,o),
(237,117,o),
(192,76,c),
(145,34,o),
(150,76,o),
(157,110,c),
(206,356,l),
(210,374,o),
(220,427,o),
(189,427,c),
(154,427,o),
(77,328,o),
(64,309,c),
(58,301,o),
(69,284,o),
(79,298,c),
(89,310,o),
(118,355,o),
(134,355,c),
(139,355,o),
(135,341,o),
(134,337,c),
(89,111,l),
(85,90,o),
(63,-12,o),
(111,-12,c)
);
},
{
closed = 1;
nodes = (
(259,484,o),
(282,508,o),
(282,536,c),
(282,566,o),
(259,589,o),
(231,589,c),
(202,589,o),
(180,566,o),
(180,536,c),
(180,508,o),
(202,484,o),
(231,484,c)
);
},
{
closed = 1;
nodes = (
(428,484,o),
(450,508,o),
(450,537,c),
(450,567,o),
(428,590,o),
(399,590,c),
(370,590,o),
(346,567,o),
(346,537,c),
(346,508,o),
(370,484,o),
(399,484,c)
);
}
);
width = 487;
}
);
unicode = 252;
},
{
glyphname = ugrave;
lastChange = "2023-05-15 06:06:58 +0000";
layers = (
{
hints = (
{
horizontal = 1;
place = (657, -20);
target = down;
type = TopGhost;
},
{
horizontal = 1;
place = (430, -20);
target = down;
type = TopGhost;
},
{
horizontal = 1;
place = (-12, 21);
target = up;
type = BottomGhost;
},
{
horizontal = 1;
place = (427, -20);
target = down;
type = TopGhost;
}
);
layerId = m01;
shapes = (
{
closed = 1;
nodes = (
(155,-12,o),
(240,83,o),
(317,204,c),
(324,214,o),
(334,223,o),
(329,205,c),
(316,156,o),
(297,69,o),
(297,19,c),
(297,1,o),
(305,-12,o),
(318,-12,c),
(339,-12,o),
(402,44,o),
(453,109,c),
(456,119,o),
(444,135,o),
(438,125,c),
(427,111,o),
(413,96,o),
(401,83,c),
(391,72,o),
(364,44,o),
(372,83,c),
(435,405,l),
(437,416,o),
(438,430,o),
(420,430,c),
(400,429,o),
(404,429,o),
(389,430,c),
(375,430,o),
(369,425,o),
(367,414,c),
(361,378,o),
(356,341,o),
(345,306,c),
(326,243,o),
(237,117,o),
(192,76,c),
(145,34,o),
(150,76,o),
(157,110,c),
(206,356,l),
(210,374,o),
(220,427,o),
(189,427,c),
(154,427,o),
(77,328,o),
(64,309,c),
(58,301,o),
(69,284,o),
(79,298,c),
(89,310,o),
(118,355,o),
(134,355,c),
(139,355,o),
(135,341,o),
(134,337,c),
(89,111,l),
(85,90,o),
(63,-12,o),
(111,-12,c)
);
},
{
closed = 1;
nodes = (
(341,494,o),
(343,496,o),
(342,499,c),
(295,651,l),
(294,652,o),
(294,653,o),
(293,654,c),
(291,658,o),
(286,657,o),
(281,657,c),
(207,657,l),
(202,657,o),
(194,653,o),
(201,644,c),
(325,498,l),
(327,495,o),
(332,494,o),
(336,494,c)
);
}
);
width = 487;
}
);
unicode = 249;
},
{
glyphname = v;
lastChange = "2023-05-15 06:06:58 +0000";
layers = (
{
hints = (
{
place = (344, 73);
place = (344, 73);
type = Stem;
},
{
horizontal = 1;
place = (429, -20);
target = down;
type = TopGhost;
},
{
horizontal = 1;
place = (-12, 51);
place = (-12, 51);
type = Stem;
},
{
horizontal = 1;
place = (428, -20);
target = down;
type = TopGhost;
}
);
layerId = m01;
shapes = (
{
closed = 1;
nodes = (
(193,-12,o),
(417,257,o),
(417,365,c),
(417,402,o),
(398,429,o),
(371,429,c),
(351,429,o),
(319,403,o),
(319,381,c),
(319,373,o),
(323,367,o),
(332,362,c),
(342,356,o),
(344,354,o),
(344,342,c),
(344,272,o),
(219,39,o),
(150,39,c),
(135,39,o),
(144,80,o),
(145,89,c),
(184,330,l),
(188,354,o),
(191,383,o),
(191,392,c),
(191,414,o),
(184,428,o),
(168,428,c),
(137,428,o),
(88,375,o),
(40,308,c),
(33,298,o),
(47,283,o),
(55,293,c),
(80,326,o),
(106,360,o),
(118,360,c),
(126,360,o),
(119,324,o),
(118,317,c),
(88,132,l),
(84,107,o),
(65,-12,o),
(108,-12,c)
);
}
);
width = 406;
}
);
unicode = 118;
},
{
glyphname = w;
lastChange = "2023-05-15 06:06:58 +0000";
layers = (
{
hints = (
{
place = (560, 70);
place = (560, 70);
type = Stem;
},
{
horizontal = 1;
place = (428, -20);
target = down;
type = TopGhost;
},
{
horizontal = 1;
place = (-11, 51);
place = (-11, 51);
type = Stem;
},
{
horizontal = 1;
place = (427, -20);
target = down;
type = TopGhost;
},
{
horizontal = 1;
place = (429, -20);
target = down;
type = TopGhost;
}
);
layerId = m01;
shapes = (
{
closed = 1;
nodes = (
(171,-11,o),
(269,102,o),
(305,161,c),
(317,181,o),
(321,186,o),
(317,168,c),
(315,149,o),
(312,137,o),
(308,111,c),
(303,84,o),
(300,56,o),
(300,31,c),
(300,-50,o),
(382,5,o),
(407,25,c),
(484,87,o),
(630,268,o),
(630,369,c),
(630,402,o),
(611,428,o),
(586,428,c),
(560,428,o),
(537,410,o),
(537,382,c),
(537,372,o),
(542,368,o),
(549,363,c),
(554,358,o),
(560,352,o),
(560,338,c),
(560,243,o),
(427,40,o),
(374,40,c),
(359,40,o),
(368,81,o),
(369,90,c),
(418,408,l),
(420,418,o),
(415,428,o),
(400,428,c),
(390,428,o),
(387,428,o),
(376,427,c),
(358,427,o),
(356,417,o),
(355,409,c),
(330,246,l),
(302,197,o),
(189,41,o),
(153,41,c),
(137,41,o),
(145,86,o),
(146,95,c),
(182,339,l),
(185,357,o),
(199,429,o),
(166,429,c),
(127,429,o),
(54,331,o),
(35,304,c),
(23,293,o),
(44,277,o),
(51,286,c),
(68,308,o),
(84,332,o),
(106,350,c),
(117,360,o),
(119,358,o),
(117,343,c),
(108,272,o),
(94,179,o),
(84,113,c),
(81,95,o),
(79,76,o),
(78,57,c),
(76,28,o),
(79,-11,o),
(111,-11,c)
);
}
);
width = 610;
}
);
unicode = 119;
},
{
glyphname = x;
lastChange = "2023-05-15 06:06:58 +0000";
layers = (
{
hints = (
{
horizontal = 1;
place = (373, 56);
place = (373, 56);
type = Stem;
},
{
horizontal = 1;
place = (-12, 21);
target = up;
type = BottomGhost;
}
);
layerId = m01;
shapes = (
{
closed = 1;
nodes = (
(105,-12,o),
(180,77,o),
(208,111,c),
(244,155,l),
(248,160,o),
(252,165,o),
(256,156,c),
(293,63,l),
(318,0,o),
(324,-12,o),
(353,-12,c),
(385,-12,o),
(414,3,o),
(460,107,c),
(460,116,o),
(458,124,o),
(454,127,c),
(450,131,o),
(444,130,o),
(440,121,c),
(421,81,o),
(404,53,o),
(382,52,c),
(369,52,o),
(359,65,o),
(340,116,c),
(302,218,l),
(301,220,o),
(299,227,o),
(305,234,c),
(355,304,l),
(386,347,o),
(411,367,o),
(437,367,c),
(459,367,o),
(474,352,o),
(479,326,c),
(482,313,o),
(490,303,o),
(496,326,c),
(503,351,o),
(505,358,o),
(505,374,c),
(505,443,o),
(440,438,o),
(402,400,c),
(361,358,o),
(334,317,o),
(299,269,c),
(294,262,o),
(286,253,o),
(283,262,c),
(250,349,l),
(227,409,o),
(212,429,o),
(182,429,c),
(148,429,o),
(122,399,o),
(68,307,c),
(65,302,o),
(66,293,o),
(71,289,c),
(75,286,o),
(81,284,o),
(87,295,c),
(124,357,o),
(137,373,o),
(155,373,c),
(168,373,o),
(176,362,o),
(190,326,c),
(239,203,l),
(242,195,o),
(240,194,o),
(238,189,c),
(195,135,l),
(180,117,o),
(101,22,o),
(76,80,c),
(71,92,o),
(70,106,o),
(68,119,c),
(64,149,o),
(51,126,o),
(45,111,c),
(37,89,o),
(-4,-12,o),
(56,-12,c)
);
}
);
width = 504;
}
);
unicode = 120;
},
{
glyphname = y;
lastChange = "2023-05-15 06:06:58 +0000";
layers = (
{
hints = (
{
place = (356, 85);
place = (356, 85);
type = Stem;
},
{
horizontal = 1;
place = (429, -20);
target = down;
type = TopGhost;
},
{
place = (181, 52);
place = (181, 52);
type = Stem;
},
{
horizontal = 1;
place = (-275, 24);
place = (-275, 24);
type = Stem;
},
{
horizontal = 1;
place = (371, 57);
place = (371, 57);
type = Stem;
},
{
horizontal = 1;
place = (-276, 21);
target = up;
type = BottomGhost;
}
);
layerId = m01;
shapes = (
{
closed = 1;
nodes = (
(198,-276,o),
(203,-270,o),
(205,-263,c),
(208,-251,o),
(196,-251,o),
(188,-251,c),
(130,-251,o),
(132,-242,o),
(151,-200,c),
(184,-126,o),
(212,-50,o),
(245,23,c),
(259,54,o),
(287,97,o),
(319,143,c),
(350,188,o),
(384,235,o),
(406,275,c),
(432,323,o),
(441,347,o),
(441,375,c),
(441,407,o),
(424,429,o),
(398,429,c),
(376,429,o),
(356,409,o),
(356,385,c),
(356,378,o),
(359,373,o),
(362,367,c),
(365,361,o),
(369,355,o),
(370,348,c),
(377,290,o),
(280,127,o),
(245,68,c),
(236,54,o),
(231,48,o),
(233,70,c),
(239,148,o),
(232,428,o),
(164,428,c),
(140,428,o),
(100,391,o),
(52,320,c),
(44,307,o),
(60,291,o),
(67,300,c),
(73,308,o),
(79,317,o),
(85,325,c),
(95,339,o),
(118,371,o),
(135,371,c),
(173,371,o),
(190,188,o),
(181,68,c),
(178,30,o),
(162,-6,o),
(149,-42,c),
(134,-84,o),
(100,-158,o),
(71,-216,c),
(54,-249,o),
(50,-249,o),
(-8,-251,c),
(-23,-251,o),
(-24,-275,o),
(-15,-275,c),
(37,-273,o),
(133,-273,o),
(191,-276,c)
);
}
);
width = 437;
}
);
unicode = 121;
},
{
glyphname = yacute;
lastChange = "2023-05-15 06:06:58 +0000";
layers = (
{
hints = (
{
horizontal = 1;
place = (658, -20);
target = down;
type = TopGhost;
},
{
place = (356, 85);
place = (356, 85);
type = Stem;
},
{
horizontal = 1;
place = (429, -20);
target = down;
type = TopGhost;
},
{
place = (181, 52);
place = (181, 52);
type = Stem;
},
{
horizontal = 1;
place = (-275, 24);
place = (-275, 24);
type = Stem;
},
{
horizontal = 1;
place = (371, 57);
place = (371, 57);
type = Stem;
},
{
horizontal = 1;
place = (-276, 21);
target = up;
type = BottomGhost;
}
);
layerId = m01;
shapes = (
{
closed = 1;
nodes = (
(198,-276,o),
(203,-270,o),
(205,-263,c),
(208,-251,o),
(196,-251,o),
(188,-251,c),
(130,-251,o),
(132,-242,o),
(151,-200,c),
(184,-126,o),
(212,-50,o),
(245,23,c),
(259,54,o),
(287,97,o),
(319,143,c),
(350,188,o),
(384,235,o),
(406,275,c),
(432,323,o),
(441,347,o),
(441,375,c),
(441,407,o),
(424,429,o),
(398,429,c),
(376,429,o),
(356,409,o),
(356,385,c),
(356,378,o),
(359,373,o),
(362,367,c),
(365,361,o),
(369,355,o),
(370,348,c),
(377,290,o),
(280,127,o),
(245,68,c),
(236,54,o),
(231,48,o),
(233,70,c),
(239,148,o),
(232,428,o),
(164,428,c),
(140,428,o),
(100,391,o),
(52,320,c),
(44,307,o),
(60,291,o),
(67,300,c),
(73,308,o),
(79,317,o),
(85,325,c),
(95,339,o),
(118,371,o),
(135,371,c),
(173,371,o),
(190,188,o),
(181,68,c),
(178,30,o),
(162,-6,o),
(149,-42,c),
(134,-84,o),
(100,-158,o),
(71,-216,c),
(54,-249,o),
(50,-249,o),
(-8,-251,c),
(-23,-251,o),
(-24,-275,o),
(-15,-275,c),
(37,-273,o),
(133,-273,o),
(191,-276,c)
);
},
{
closed = 1;
nodes = (
(298,534,o),
(361,604,o),
(390,644,c),
(398,655,o),
(387,659,o),
(379,658,c),
(362,660,o),
(332,659,o),
(314,658,c),
(304,658,o),
(298,656,o),
(295,648,c),
(291,623,o),
(264,538,o),
(253,503,c),
(250,494,o),
(262,493,o),
(268,499,c)
);
}
);
width = 437;
}
);
unicode = 253;
},
{
glyphname = ydieresis;
lastChange = "2023-05-15 06:06:58 +0000";
layers = (
{
hints = (
{
place = (330, 98);
place = (330, 98);
type = Stem;
},
{
horizontal = 1;
place = (486, 101);
place = (486, 101);
type = Stem;
},
{
place = (181, 88);
place = (181, 88);
type = Stem;
},
{
horizontal = 1;
place = (-275, 24);
place = (-275, 24);
type = Stem;
},
{
horizontal = 1;
place = (371, 57);
place = (371, 57);
type = Stem;
},
{
horizontal = 1;
place = (586, -20);
target = down;
type = TopGhost;
},
{
place = (181, 52);
place = (181, 52);
type = Stem;
},
{
place = (356, 85);
place = (356, 85);
type = Stem;
},
{
horizontal = 1;
place = (429, -20);
target = down;
type = TopGhost;
},
{
horizontal = 1;
place = (-276, 21);
target = up;
type = BottomGhost;
}
);
layerId = m01;
shapes = (
{
closed = 1;
nodes = (
(198,-276,o),
(203,-270,o),
(205,-263,c),
(208,-251,o),
(196,-251,o),
(188,-251,c),
(130,-251,o),
(132,-242,o),
(151,-200,c),
(184,-126,o),
(212,-50,o),
(245,23,c),
(259,54,o),
(287,97,o),
(319,143,c),
(350,188,o),
(384,235,o),
(406,275,c),
(432,323,o),
(441,347,o),
(441,375,c),
(441,407,o),
(424,429,o),
(398,429,c),
(376,429,o),
(356,409,o),
(356,385,c),
(356,378,o),
(359,373,o),
(362,367,c),
(365,361,o),
(369,355,o),
(370,348,c),
(377,290,o),
(280,127,o),
(245,68,c),
(236,54,o),
(231,48,o),
(233,70,c),
(239,148,o),
(232,428,o),
(164,428,c),
(140,428,o),
(100,391,o),
(52,320,c),
(44,307,o),
(60,291,o),
(67,300,c),
(73,308,o),
(79,317,o),
(85,325,c),
(95,339,o),
(118,371,o),
(135,371,c),
(173,371,o),
(190,188,o),
(181,68,c),
(178,30,o),
(162,-6,o),
(149,-42,c),
(134,-84,o),
(100,-158,o),
(71,-216,c),
(54,-249,o),
(50,-249,o),
(-8,-251,c),
(-23,-251,o),
(-24,-275,o),
(-15,-275,c),
(37,-273,o),
(133,-273,o),
(191,-276,c)
);
},
{
closed = 1;
nodes = (
(246,486,o),
(269,509,o),
(269,536,c),
(269,564,o),
(246,586,o),
(220,586,c),
(193,586,o),
(171,564,o),
(171,536,c),
(171,509,o),
(193,486,o),
(220,486,c)
);
},
{
closed = 1;
nodes = (
(407,486,o),
(428,509,o),
(428,537,c),
(428,565,o),
(407,587,o),
(379,587,c),
(352,587,o),
(330,565,o),
(330,537,c),
(330,509,o),
(352,486,o),
(379,486,c)
);
}
);
width = 437;
}
);
unicode = 255;
},
{
glyphname = z;
lastChange = "2023-05-15 06:06:58 +0000";
layers = (
{
hints = (
{
horizontal = 1;
place = (377, 50);
place = (377, 50);
type = Stem;
},
{
horizontal = 1;
place = (-12, 21);
target = up;
type = BottomGhost;
},
{
horizontal = 1;
place = (66, 39);
place = (66, 39);
type = Stem;
},
{
horizontal = 1;
place = (-11, 54);
place = (-11, 54);
type = Stem;
}
);
layerId = m01;
shapes = (
{
closed = 1;
nodes = (
(49,-12,o),
(56,-7,o),
(59,1,c),
(62,9,o),
(61,20,o),
(61,28,c),
(61,47,o),
(65,66,o),
(111,66,c),
(152,66,o),
(186,47,o),
(218,28,c),
(244,12,o),
(276,-11,o),
(308,-11,c),
(347,-11,o),
(397,25,o),
(436,83,c),
(441,90,o),
(430,106,o),
(421,95,c),
(396,57,o),
(371,43,o),
(343,43,c),
(315,43,o),
(289,60,o),
(265,74,c),
(239,89,o),
(209,105,o),
(170,105,c),
(141,105,o),
(124,100,o),
(96,86,c),
(80,78,o),
(89,89,o),
(92,92,c),
(118,116,o),
(154,138,o),
(192,158,c),
(233,180,o),
(276,199,o),
(310,217,c),
(362,244,o),
(489,336,o),
(489,406,c),
(489,418,o),
(483,425,o),
(472,425,c),
(462,425,o),
(457,422,o),
(454,417,c),
(452,412,o),
(452,408,o),
(451,403,c),
(445,377,o),
(426,362,o),
(393,362,c),
(361,362,o),
(336,379,o),
(309,394,c),
(280,411,o),
(249,427,o),
(213,427,c),
(164,427,o),
(125,398,o),
(79,337,c),
(70,325,o),
(91,317,o),
(96,325,c),
(125,363,o),
(138,377,o),
(166,377,c),
(207,377,o),
(240,349,o),
(277,335,c),
(314,320,o),
(356,314,o),
(427,348,c),
(438,355,o),
(446,355,o),
(432,341,c),
(421,330,o),
(408,321,o),
(389,309,c),
(369,296,o),
(344,282,o),
(304,261,c),
(219,216,o),
(110,156,o),
(50,77,c),
(32,53,o),
(17,21,o),
(17,7,c),
(17,-4,o),
(24,-12,o),
(34,-12,c)
);
}
);
width = 488;
}
);
unicode = 122;
},
{
glyphname = zcaron;
lastChange = "2023-05-15 06:06:58 +0000";
layers = (
{
hints = (
{
horizontal = 1;
place = (377, 50);
place = (377, 50);
type = Stem;
},
{
horizontal = 1;
place = (427, 51);
place = (427, 51);
type = Stem;
},
{
horizontal = 1;
place = (-12, 21);
target = up;
type = BottomGhost;
},
{
horizontal = 1;
place = (66, 39);
place = (66, 39);
type = Stem;
},
{
horizontal = 1;
place = (641, -20);
target = down;
type = TopGhost;
},
{
horizontal = 1;
place = (-11, 54);
place = (-11, 54);
type = Stem;
}
);
layerId = m01;
shapes = (
{
closed = 1;
nodes = (
(49,-12,o),
(56,-7,o),
(59,1,c),
(62,9,o),
(61,20,o),
(61,28,c),
(61,47,o),
(65,66,o),
(111,66,c),
(152,66,o),
(186,47,o),
(217,28,c),
(244,12,o),
(276,-11,o),
(308,-11,c),
(347,-11,o),
(397,25,o),
(436,83,c),
(441,90,o),
(430,106,o),
(420,95,c),
(396,57,o),
(370,43,o),
(343,43,c),
(315,43,o),
(289,60,o),
(265,74,c),
(239,89,o),
(209,105,o),
(170,105,c),
(141,105,o),
(124,100,o),
(96,86,c),
(80,78,o),
(89,89,o),
(92,92,c),
(118,116,o),
(154,138,o),
(192,158,c),
(233,180,o),
(276,199,o),
(310,217,c),
(362,244,o),
(489,336,o),
(489,406,c),
(489,418,o),
(483,425,o),
(472,425,c),
(462,425,o),
(457,422,o),
(454,417,c),
(452,412,o),
(452,408,o),
(451,403,c),
(445,377,o),
(426,362,o),
(393,362,c),
(361,362,o),
(336,379,o),
(309,394,c),
(280,411,o),
(249,427,o),
(213,427,c),
(164,427,o),
(125,398,o),
(79,337,c),
(70,325,o),
(91,317,o),
(96,324,c),
(125,363,o),
(138,377,o),
(166,377,c),
(207,377,o),
(240,349,o),
(277,335,c),
(314,320,o),
(356,314,o),
(427,348,c),
(438,355,o),
(446,355,o),
(432,341,c),
(421,330,o),
(408,321,o),
(389,309,c),
(369,296,o),
(344,282,o),
(304,261,c),
(219,216,o),
(110,156,o),
(50,77,c),
(32,53,o),
(17,21,o),
(17,7,c),
(17,-4,o),
(24,-12,o),
(34,-12,c)
);
},
{
closed = 1;
nodes = (
(341,478,l),
(499,641,l),
(481,641,l),
(324,539,l),
(240,641,l),
(227,641,l),
(265,478,l)
);
}
);
width = 488;
}
);
unicode = 382;
},
{
glyphname = f_f;
lastChange = "2023-05-15 06:06:58 +0000";
layers = (
{
hints = (
{
horizontal = 1;
place = (371, 44);
place = (371, 44);
type = Stem;
},
{
horizontal = 1;
place = (705, 45);
place = (705, 45);
type = Stem;
},
{
horizontal = 1;
place = (-275, 41);
place = (-275, 41);
type = Stem;
},
{
horizontal = 1;
place = (754, -20);
target = down;
type = TopGhost;
}
);
layerId = m01;
shapes = (
{
closed = 1;
nodes = (
(-62,-275,o),
(-29,-261,o),
(1,-239,c),
(104,-163,o),
(128,-9,o),
(149,109,c),
(191,346,l),
(194,364,o),
(210,369,o),
(222,369,c),
(242,369,o),
(301,370,o),
(302,370,c),
(303,371,o),
(350,371,o),
(366,371,c),
(382,370,o),
(389,350,o),
(387,338,c),
(368,226,o),
(354,131,o),
(332,16,c),
(327,-9,o),
(321,-47,o),
(313,-84,c),
(306,-121,o),
(297,-157,o),
(286,-179,c),
(270,-211,o),
(238,-234,o),
(209,-234,c),
(193,-234,o),
(182,-225,o),
(172,-215,c),
(162,-206,o),
(150,-190,o),
(135,-189,c),
(117,-187,o),
(98,-187,o),
(92,-218,c),
(87,-246,o),
(127,-275,o),
(169,-275,c),
(206,-275,o),
(238,-261,o),
(268,-239,c),
(372,-163,o),
(397,-9,o),
(418,110,c),
(461,353,l),
(466,363,o),
(473,369,o),
(485,370,c),
(487,370,o),
(527,366,o),
(528,370,c),
(535,370,o),
(541,381,o),
(544,394,c),
(547,406,o),
(547,418,o),
(540,418,c),
(483,418,l),
(475,419,o),
(473,428,o),
(476,440,c),
(489,516,l),
(503,599,o),
(517,648,o),
(534,674,c),
(547,696,o),
(569,710,o),
(587,710,c),
(626,711,o),
(632,672,o),
(664,668,c),
(685,666,o),
(708,672,o),
(709,697,c),
(710,729,o),
(673,754,o),
(633,754,c),
(586,754,o),
(534,727,o),
(498,681,c),
(472,648,o),
(454,612,o),
(434,553,c),
(420,513,o),
(414,482,o),
(408,446,c),
(405,429,o),
(400,421,o),
(390,417,c),
(385,416,o),
(379,415,o),
(372,415,c),
(356,415,o),
(254,414,o),
(232,415,c),
(221,415,o),
(205,422,o),
(207,433,c),
(221,514,l),
(235,598,o),
(249,646,o),
(265,672,c),
(279,693,o),
(307,705,o),
(325,705,c),
(363,705,o),
(375,652,o),
(408,649,c),
(475,641,o),
(471,750,o),
(377,750,c),
(331,750,o),
(268,724,o),
(231,678,c),
(204,646,o),
(186,611,o),
(165,552,c),
(151,512,o),
(139,449,o),
(132,412,c),
(123,407,o),
(108,403,o),
(71,400,c),
(60,394,o),
(56,370,o),
(68,373,c),
(110,370,l),
(121,371,o),
(123,358,o),
(122,350,c),
(103,238,o),
(86,131,o),
(64,16,c),
(55,-29,o),
(48,-69,o),
(41,-102,c),
(34,-135,o),
(27,-161,o),
(18,-179,c),
(2,-210,o),
(-30,-234,o),
(-58,-234,c),
(-74,-234,o),
(-85,-226,o),
(-96,-215,c),
(-106,-206,o),
(-118,-190,o),
(-132,-189,c),
(-150,-188,o),
(-169,-188,o),
(-175,-218,c),
(-180,-246,o),
(-141,-275,o),
(-98,-275,c)
);
}
);
width = 508;
}
);
},
{
glyphname = f_f_i;
lastChange = "2023-05-15 06:06:58 +0000";
layers = (
{
hints = (
{
horizontal = 1;
place = (371, 44);
place = (371, 44);
type = Stem;
},
{
horizontal = 1;
place = (706, 44);
place = (706, 44);
type = Stem;
},
{
horizontal = 1;
place = (-275, 40);
place = (-275, 40);
type = Stem;
},
{
horizontal = 1;
place = (-15, 21);
target = up;
type = BottomGhost;
},
{
horizontal = 1;
place = (753, -20);
target = down;
type = TopGhost;
}
);
layerId = m01;
shapes = (
{
closed = 1;
nodes = (
(-63,-275,o),
(-29,-261,o),
(1,-239,c),
(104,-163,o),
(128,-8,o),
(149,109,c),
(191,346,l),
(194,365,o),
(211,371,o),
(229,373,c),
(249,372,o),
(298,373,o),
(299,373,c),
(301,373,o),
(343,372,o),
(359,371,c),
(375,371,o),
(383,351,o),
(381,338,c),
(362,226,o),
(348,131,o),
(325,16,c),
(321,-9,o),
(314,-47,o),
(307,-84,c),
(299,-121,o),
(290,-157,o),
(279,-179,c),
(263,-211,o),
(231,-235,o),
(202,-235,c),
(186,-235,o),
(175,-226,o),
(165,-216,c),
(155,-207,o),
(142,-191,o),
(128,-190,c),
(110,-188,o),
(92,-188,o),
(86,-219,c),
(81,-246,o),
(120,-275,o),
(162,-275,c),
(199,-275,o),
(231,-261,o),
(261,-239,c),
(365,-163,o),
(389,-8,o),
(410,110,c),
(454,353,l),
(456,357,o),
(458,363,o),
(461,366,c),
(465,369,o),
(470,371,o),
(478,371,c),
(509,372,o),
(547,371,o),
(583,370,c),
(590,370,o),
(605,367,o),
(600,338,c),
(584,238,o),
(570,164,o),
(552,59,c),
(547,30,o),
(546,-15,o),
(589,-15,c),
(625,-15,o),
(667,13,o),
(719,80,c),
(722,94,o),
(706,109,o),
(698,98,c),
(660,50,o),
(636,37,o),
(629,37,c),
(622,37,o),
(620,42,o),
(620,47,c),
(620,51,o),
(621,55,o),
(621,59,c),
(682,422,l),
(682,432,o),
(664,427,o),
(658,426,c),
(644,422,o),
(633,419,o),
(620,418,c),
(607,416,o),
(591,415,o),
(563,415,c),
(541,414,o),
(504,414,o),
(482,415,c),
(473,416,o),
(466,429,o),
(468,441,c),
(481,517,l),
(495,600,o),
(509,648,o),
(526,675,c),
(540,697,o),
(568,709,o),
(585,709,c),
(605,710,o),
(617,698,o),
(628,685,c),
(637,674,o),
(647,660,o),
(663,656,c),
(690,650,o),
(710,659,o),
(712,693,c),
(713,724,o),
(671,753,o),
(631,753,c),
(584,753,o),
(528,727,o),
(491,681,c),
(466,649,o),
(447,613,o),
(427,554,c),
(413,514,o),
(407,483,o),
(402,447,c),
(399,430,o),
(394,421,o),
(383,417,c),
(378,415,o),
(372,415,o),
(365,415,c),
(348,415,o),
(254,414,o),
(232,415,c),
(221,415,o),
(205,423,o),
(207,434,c),
(221,515,l),
(235,598,o),
(249,647,o),
(265,673,c),
(278,694,o),
(307,706,o),
(325,706,c),
(364,706,o),
(376,653,o),
(408,650,c),
(474,643,o),
(470,750,o),
(377,750,c),
(331,750,o),
(268,724,o),
(231,679,c),
(205,647,o),
(186,611,o),
(165,552,c),
(151,512,o),
(140,450,o),
(132,413,c),
(123,407,o),
(108,403,o),
(71,400,c),
(66,397,o),
(62,390,o),
(61,383,c),
(61,375,o),
(64,372,o),
(68,373,c),
(110,370,l),
(122,372,o),
(124,358,o),
(123,350,c),
(104,238,o),
(87,131,o),
(65,16,c),
(56,-29,o),
(49,-69,o),
(42,-102,c),
(35,-135,o),
(27,-161,o),
(18,-179,c),
(2,-211,o),
(-30,-235,o),
(-58,-235,c),
(-74,-235,o),
(-86,-226,o),
(-97,-216,c),
(-106,-207,o),
(-118,-190,o),
(-132,-189,c),
(-150,-188,o),
(-169,-188,o),
(-174,-218,c),
(-180,-246,o),
(-141,-275,o),
(-98,-275,c)
);
}
);
width = 730;
}
);
},
{
glyphname = f_f_l;
lastChange = "2023-05-15 06:06:58 +0000";
layers = (
{
layerId = m01;
shapes = (
{
closed = 1;
nodes = (
(-62,-275,o),
(-29,-261,o),
(1,-239,c),
(104,-163,o),
(128,-9,o),
(149,109,c),
(191,346,l),
(194,364,o),
(210,369,o),
(222,370,c),
(242,370,o),
(351,371,o),
(352,371,c),
(353,371,o),
(353,371,o),
(369,370,c),
(377,368,o),
(379,356,o),
(378,350,c),
(359,237,o),
(343,132,o),
(320,16,c),
(312,-29,o),
(304,-69,o),
(297,-102,c),
(290,-135,o),
(283,-161,o),
(274,-179,c),
(258,-210,o),
(227,-234,o),
(198,-234,c),
(182,-234,o),
(171,-225,o),
(161,-215,c),
(150,-205,o),
(139,-190,o),
(124,-189,c),
(106,-188,o),
(86,-188,o),
(81,-218,c),
(76,-246,o),
(115,-275,o),
(158,-275,c),
(195,-275,o),
(227,-261,o),
(257,-239,c),
(360,-163,o),
(386,-9,o),
(406,109,c),
(447,350,l),
(449,362,o),
(457,370,o),
(466,372,c),
(496,372,o),
(536,374,o),
(598,373,c),
(611,372,o),
(611,351,o),
(609,343,c),
(562,88,l),
(558,67,o),
(554,44,o),
(556,23,c),
(558,1,o),
(568,-15,o),
(594,-15,c),
(631,-15,o),
(671,12,o),
(725,81,c),
(734,93,o),
(711,110,o),
(703,100,c),
(664,51,o),
(650,44,o),
(637,44,c),
(627,44,o),
(628,63,o),
(629,70,c),
(746,749,l),
(744,759,o),
(734,760,o),
(726,750,c),
(718,745,o),
(711,740,o),
(702,736,c),
(696,733,o),
(689,734,o),
(683,737,c),
(618,777,o),
(529,731,o),
(487,679,c),
(460,647,o),
(442,611,o),
(422,552,c),
(411,519,o),
(400,473,o),
(393,437,c),
(391,428,o),
(384,415,o),
(351,415,c),
(351,415,o),
(335,415,o),
(318,415,c),
(301,415,o),
(254,414,o),
(232,415,c),
(221,415,o),
(205,422,o),
(207,433,c),
(221,514,l),
(235,598,o),
(249,646,o),
(265,672,c),
(279,693,o),
(307,705,o),
(325,705,c),
(363,705,o),
(375,652,o),
(408,649,c),
(475,641,o),
(471,750,o),
(377,750,c),
(331,750,o),
(268,724,o),
(231,678,c),
(204,646,o),
(186,611,o),
(165,552,c),
(151,512,o),
(139,449,o),
(132,412,c),
(123,407,o),
(108,403,o),
(71,400,c),
(60,394,o),
(56,370,o),
(68,373,c),
(110,370,l),
(121,371,o),
(123,358,o),
(122,350,c),
(103,238,o),
(86,131,o),
(64,16,c),
(55,-29,o),
(48,-69,o),
(41,-102,c),
(34,-135,o),
(27,-161,o),
(18,-179,c),
(2,-210,o),
(-30,-234,o),
(-58,-234,c),
(-74,-234,o),
(-85,-226,o),
(-96,-215,c),
(-106,-206,o),
(-118,-190,o),
(-132,-189,c),
(-150,-188,o),
(-169,-188,o),
(-175,-218,c),
(-180,-246,o),
(-141,-275,o),
(-98,-275,c)
);
},
{
closed = 1;
nodes = (
(465,414,o),
(461,430,o),
(464,439,c),
(477,514,l),
(491,598,o),
(505,646,o),
(521,672,c),
(563,736,o),
(634,711,o),
(668,651,c),
(627,434,l),
(624,416,o),
(610,414,o),
(602,414,c),
(563,413,o),
(506,414,o),
(472,414,c)
);
}
);
width = 737;
}
);
},
{
glyphname = fi;
lastChange = "2023-05-15 06:06:58 +0000";
layers = (
{
hints = (
{
horizontal = 1;
place = (-275, 37);
place = (-275, 37);
type = Stem;
},
{
horizontal = 1;
place = (374, 38);
place = (374, 38);
type = Stem;
},
{
horizontal = 1;
place = (750, -20);
target = down;
type = TopGhost;
},
{
horizontal = 1;
place = (-14, 21);
target = up;
type = BottomGhost;
}
);
layerId = m01;
shapes = (
{
closed = 1;
nodes = (
(-37,-275,o),
(-4,-261,o),
(26,-239,c),
(130,-164,o),
(156,-9,o),
(176,109,c),
(220,362,l),
(224,370,o),
(224,375,o),
(233,375,c),
(266,376,o),
(332,376,o),
(368,375,c),
(377,375,o),
(375,362,o),
(374,356,c),
(357,257,o),
(341,164,o),
(323,58,c),
(318,28,o),
(316,-14,o),
(358,-14,c),
(395,-14,o),
(436,13,o),
(488,80,c),
(492,92,o),
(477,106,o),
(469,96,c),
(432,49,o),
(406,32,o),
(397,32,c),
(384,32,o),
(388,50,o),
(389,58,c),
(452,422,l),
(451,429,o),
(439,424,o),
(429,422,c),
(412,419,o),
(403,416,o),
(390,414,c),
(377,412,o),
(361,413,o),
(332,412,c),
(310,411,o),
(262,411,o),
(239,412,c),
(238,412,o),
(229,413,o),
(231,422,c),
(248,516,l),
(263,599,o),
(276,648,o),
(293,675,c),
(307,696,o),
(337,708,o),
(355,708,c),
(374,709,o),
(387,696,o),
(398,684,c),
(409,672,o),
(422,654,o),
(439,652,c),
(504,645,o),
(500,750,o),
(408,750,c),
(362,750,o),
(298,724,o),
(261,679,c),
(234,647,o),
(216,612,o),
(195,552,c),
(181,512,o),
(168,449,o),
(162,412,c),
(152,406,o),
(137,402,o),
(99,399,c),
(97,398,o),
(92,395,o),
(90,387,c),
(89,381,o),
(89,373,o),
(95,374,c),
(146,374,l),
(151,374,o),
(154,366,o),
(153,363,c),
(134,250,o),
(115,130,o),
(93,14,c),
(84,-30,o),
(76,-70,o),
(69,-103,c),
(61,-137,o),
(55,-163,o),
(46,-181,c),
(30,-213,o),
(-3,-238,o),
(-32,-238,c),
(-55,-238,o),
(-68,-222,o),
(-82,-208,c),
(-89,-201,o),
(-97,-193,o),
(-108,-192,c),
(-126,-191,o),
(-143,-191,o),
(-149,-220,c),
(-154,-246,o),
(-116,-275,o),
(-73,-275,c)
);
}
);
width = 504;
}
);
unicode = 64257;
},
{
glyphname = fl;
lastChange = "2023-05-15 06:06:58 +0000";
layers = (
{
hints = (
{
horizontal = 1;
place = (-275, 37);
place = (-275, 37);
type = Stem;
},
{
horizontal = 1;
place = (374, 39);
place = (374, 39);
type = Stem;
},
{
horizontal = 1;
place = (-14, 21);
target = up;
type = BottomGhost;
}
);
layerId = m01;
shapes = (
{
closed = 1;
nodes = (
(-59,-275,o),
(-26,-261,o),
(4,-239,c),
(108,-164,o),
(133,-9,o),
(154,109,c),
(198,360,l),
(198,370,o),
(207,374,o),
(212,374,c),
(243,374,o),
(295,376,o),
(357,374,c),
(365,374,o),
(367,362,o),
(367,361,c),
(316,87,l),
(312,66,o),
(307,44,o),
(309,23,c),
(311,2,o),
(320,-14,o),
(346,-14,c),
(383,-14,o),
(423,13,o),
(476,81,c),
(484,91,o),
(464,106,o),
(458,99,c),
(418,50,o),
(400,34,o),
(386,34,c),
(373,34,o),
(376,50,o),
(377,58,c),
(497,751,l),
(496,758,o),
(489,761,o),
(481,751,c),
(470,744,o),
(459,736,o),
(446,731,c),
(380,781,o),
(284,734,o),
(239,679,c),
(212,647,o),
(193,612,o),
(173,552,c),
(159,512,o),
(147,449,o),
(140,412,c),
(118,405,o),
(104,400,o),
(74,397,c),
(59,395,o),
(58,374,o),
(69,374,c),
(120,374,l),
(129,375,o),
(132,363,o),
(131,362,c),
(112,248,o),
(94,131,o),
(71,14,c),
(62,-30,o),
(55,-70,o),
(48,-103,c),
(40,-137,o),
(33,-163,o),
(24,-181,c),
(8,-213,o),
(-25,-238,o),
(-54,-238,c),
(-77,-238,o),
(-90,-222,o),
(-104,-208,c),
(-111,-201,o),
(-119,-193,o),
(-129,-192,c),
(-147,-191,o),
(-165,-191,o),
(-171,-220,c),
(-176,-246,o),
(-138,-275,o),
(-95,-275,c)
);
},
{
closed = 1;
nodes = (
(211,413,o),
(209,423,o),
(210,427,c),
(226,516,l),
(241,599,o),
(254,648,o),
(272,675,c),
(314,741,o),
(388,714,o),
(423,652,c),
(379,423,l),
(377,416,o),
(373,413,o),
(366,413,c),
(326,412,o),
(255,412,o),
(221,413,c)
);
}
);
width = 487;
}
);
unicode = 64258;
},
{
glyphname = ordfeminine;
lastChange = "2023-05-15 06:06:58 +0000";
layers = (
{
hints = (
{
horizontal = 1;
place = (662, -20);
target = down;
type = TopGhost;
},
{
horizontal = 1;
place = (399, 21);
target = up;
type = BottomGhost;
},
{
place = (100, 45);
place = (100, 45);
type = Stem;
}
);
layerId = m01;
shapes = (
{
closed = 1;
nodes = (
(157,399,o),
(190,424,o),
(249,483,c),
(242,455,o),
(240,439,o),
(240,429,c),
(240,412,o),
(249,399,o),
(261,399,c),
(274,399,o),
(295,415,o),
(324,445,c),
(324,446,o),
(325,447,o),
(326,448,c),
(327,449,o),
(329,450,o),
(331,453,c),
(331,473,l),
(327,469,o),
(321,462,o),
(315,456,c),
(305,447,o),
(295,439,o),
(292,439,c),
(290,439,o),
(288,439,o),
(288,445,c),
(288,456,o),
(291,467,o),
(293,478,c),
(333,662,l),
(315,662,l),
(288,662,o),
(250,652,o),
(221,636,c),
(152,599,o),
(100,526,o),
(100,464,c),
(100,431,o),
(119,399,o),
(141,399,c)
);
},
{
closed = 1;
nodes = (
(154,434,o),
(145,451,o),
(145,476,c),
(145,530,o),
(171,582,o),
(208,606,c),
(226,618,o),
(247,624,o),
(280,627,c),
(254,506,l),
(248,501,l),
(221,479,o),
(203,461,o),
(190,450,c),
(176,439,o),
(168,434,o),
(164,434,c)
);
}
);
width = 265;
}
);
unicode = 170;
},
{
glyphname = ordmasculine;
lastChange = "2023-05-15 06:06:58 +0000";
layers = (
{
hints = (
{
horizontal = 1;
place = (399, 26);
place = (399, 26);
type = Stem;
},
{
horizontal = 1;
place = (636, 26);
place = (636, 26);
type = Stem;
},
{
place = (112, 47);
place = (112, 47);
type = Stem;
},
{
place = (285, 45);
place = (285, 45);
type = Stem;
}
);
layerId = m01;
shapes = (
{
closed = 1;
nodes = (
(182,399,o),
(195,402,o),
(209,408,c),
(285,440,o),
(330,500,o),
(330,569,c),
(330,619,o),
(303,662,o),
(268,662,c),
(252,662,o),
(225,652,o),
(202,637,c),
(145,602,o),
(112,551,o),
(112,498,c),
(112,447,o),
(140,399,o),
(173,399,c)
);
},
{
closed = 1;
nodes = (
(179,425,o),
(159,456,o),
(159,496,c),
(159,570,o),
(196,636,o),
(235,636,c),
(263,636,o),
(285,604,o),
(285,562,c),
(285,489,o),
(244,425,o),
(203,425,c)
);
}
);
width = 265;
}
);
unicode = 186;
},
{
glyphname = zero;
lastChange = "2023-05-15 06:06:58 +0000";
layers = (
{
hints = (
{
horizontal = 1;
place = (-16, 47);
place = (-16, 47);
type = Stem;
},
{
horizontal = 1;
place = (404, 50);
place = (404, 50);
type = Stem;
},
{
place = (60, 76);
place = (60, 76);
type = Stem;
},
{
place = (337, 75);
place = (337, 75);
type = Stem;
}
);
layerId = m01;
shapes = (
{
closed = 1;
nodes = (
(173,-16,o),
(194,-10,o),
(217,0,c),
(269,23,o),
(324,69,o),
(355,111,c),
(392,160,o),
(412,222,o),
(412,288,c),
(412,374,o),
(360,454,o),
(312,454,c),
(286,454,o),
(242,434,o),
(203,407,c),
(113,344,o),
(60,253,o),
(60,161,c),
(60,70,o),
(110,-16,o),
(158,-16,c)
);
},
{
closed = 1;
nodes = (
(169,31,o),
(136,85,o),
(136,158,c),
(136,289,o),
(196,404,o),
(259,404,c),
(301,404,o),
(337,349,o),
(337,274,c),
(337,145,o),
(272,31,o),
(205,31,c)
);
}
);
width = 432;
}
);
unicode = 48;
},
{
glyphname = one;
lastChange = "2023-05-15 06:06:58 +0000";
layers = (
{
hints = (
{
horizontal = 1;
place = (-1, 23);
place = (-1, 23);
type = Stem;
},
{
horizontal = 1;
place = (460, -20);
target = down;
type = TopGhost;
}
);
layerId = m01;
shapes = (
{
closed = 1;
nodes = (
(136,1,o),
(234,0,o),
(309,-1,c),
(319,-1,o),
(322,22,o),
(314,22,c),
(255,26,o),
(242,31,o),
(242,50,c),
(242,52,o),
(242,58,o),
(248,86,c),
(319,446,l),
(320,451,o),
(312,460,o),
(305,460,c),
(297,460,o),
(293,461,o),
(284,454,c),
(156,381,l),
(150,379,o),
(148,372,o),
(148,365,c),
(148,360,o),
(149,353,o),
(153,355,c),
(222,386,l),
(225,386,o),
(235,395,o),
(232,378,c),
(172,73,l),
(169,57,o),
(168,41,o),
(151,34,c),
(131,26,o),
(103,23,o),
(81,22,c),
(78,21,o),
(73,16,o),
(72,9,c),
(71,5,o),
(73,-1,o),
(77,-1,c)
);
}
);
width = 380;
}
);
unicode = 49;
},
{
glyphname = two;
lastChange = "2023-05-15 06:06:58 +0000";
layers = (
{
hints = (
{
horizontal = 1;
place = (-1, 64);
place = (-1, 64);
type = Stem;
},
{
horizontal = 1;
place = (409, 46);
place = (409, 46);
type = Stem;
},
{
place = (331, 78);
place = (331, 78);
type = Stem;
}
);
layerId = m01;
shapes = (
{
closed = 1;
nodes = (
(123,0,o),
(231,0,o),
(309,-1,c),
(319,-1,o),
(325,2,o),
(330,9,c),
(342,41,o),
(363,90,o),
(378,123,c),
(382,133,o),
(358,137,o),
(353,124,c),
(344,109,o),
(339,99,o),
(334,90,c),
(321,67,o),
(299,63,o),
(274,63,c),
(127,63,l),
(114,63,o),
(106,65,o),
(111,70,c),
(140,98,o),
(187,140,o),
(279,196,c),
(343,234,o),
(409,275,o),
(409,348,c),
(409,401,o),
(366,455,o),
(300,455,c),
(217,455,o),
(156,389,o),
(121,346,c),
(116,336,o),
(130,320,o),
(139,329,c),
(172,366,o),
(211,409,o),
(266,409,c),
(299,409,o),
(331,391,o),
(331,352,c),
(331,324,o),
(323,303,o),
(301,277,c),
(245,213,o),
(166,161,o),
(104,96,c),
(80,70,o),
(58,45,o),
(37,21,c),
(34,15,o),
(31,-1,o),
(38,-1,c)
);
}
);
width = 414;
}
);
unicode = 50;
},
